<svg xmlns="http://www.w3.org/2000/svg" width="25" height="29" viewBox="0 0 25 29">
    <g fill="none" fill-rule="evenodd">
        <path d="M-16-11h53v53h-53z"/>
        <path fill="#B4B9C2" fill-rule="nonzero" d="M17.922 13.878a.867.867 0 0 0-.892-.34.909.909 0 0 0-.687.632 7.13 7.13 0 0 1-1.142 2.12c.036-.35.054-.703.054-1.056-.004-.437-.03-.875-.08-1.31a10.086 10.086 0 0 0-.687-2.533c-.031-.092-.07-.18-.116-.264a9.288 9.288 0 0 0-3.273-3.976.851.851 0 0 0-.892-.047.95.95 0 0 0-.473.82 6.789 6.789 0 0 1-.651 2.826 6.183 6.183 0 0 1-2.274 2.59 8.242 8.242 0 0 0-2.542 2.582A8.602 8.602 0 0 0 3 20.435c-.006 2.862 1.405 5.52 3.72 7.01.299.21.69.21.99 0a.97.97 0 0 0 .347-.99 8.283 8.283 0 0 1 .312-4.777c.144-.418.323-.821.536-1.206l.053.132c1.205 2.918 3.274 5.345 5.896 6.915.196.123.392.227.597.33l.09.057a.864.864 0 0 0 .963-.122c1.587-1.347 2.717-3.202 3.22-5.286.179-.793.272-1.606.276-2.421a10.214 10.214 0 0 0-2.078-6.2z"/>
        <path stroke="#D8DDE6" stroke-linecap="round" stroke-linejoin="round" d="M4.31 9.62l.38-.24"/>
        <path stroke="#B4B9C2" stroke-linecap="round" stroke-linejoin="round" d="M10.038 5.413A9.91 9.91 0 0 0 11.165 1a11.972 11.972 0 0 1 4.516 5.012.48.48 0 0 1 .088.194c.48 1.022.807 2.104.969 3.215.075.54.12 1.083.132 1.628 0 1.628-.348 3.239-1.022 4.733a9.994 9.994 0 0 0 4.173-3.56 9.125 9.125 0 0 0 1.136-2.236c1.845 2.184 2.85 4.91 2.843 7.72a12.692 12.692 0 0 1-.379 3.02c-.803 2.986-2.735 5.579-5.422 7.274a11.812 11.812 0 0 1-1.92-.844c-2.427-1.316-4.343-3.354-5.457-5.805a11.043 11.043 0 0 1-.581-1.552 7.476 7.476 0 0 0-1.637 2.531 7.599 7.599 0 0 0-.124 5.468c-3.17-.928-5.703-3.228-6.84-6.213C.504 18.6.895 15.277 2.697 12.61c.15-.228.317-.447.493-.667"/>
    </g>
</svg>
