<svg xmlns="http://www.w3.org/2000/svg" width="32" height="32" viewBox="0 0 32 32">
    <path fill="#767585" fill-rule="nonzero" d="M26.389 18.7v11.476c0 .81-.468 1.366-1.183 1.428l-.137.006H6.597c-.745 0-1.256-.508-1.314-1.285l-.005-.15V18.7c.985.803 2.315 1.357 3.668 1.427l.29.008h3.958v1.434c0 .81.468 1.366 1.183 1.429l.137.006h2.639c.745 0 1.256-.509 1.314-1.286l.005-.149v-1.434h3.959c1.45 0 2.902-.574 3.958-1.435zm2.639 12.91V11.815c1.52.55 2.553 2.027 2.634 3.794l.005.222v14.345c0 .81-.468 1.366-1.183 1.428l-.137.006h-1.32V11.815zM2.638 11.815V31.61H1.32C.528 31.61 0 31.037 0 30.176V15.83c0-1.865 1.056-3.443 2.639-4.016zM19.793.052c3.617 0 6.476 3.026 6.593 6.922l.004.25v5.738c0 2.365-1.613 4.19-3.756 4.299l-.202.005h-3.959V15.83c0-.81-.467-1.366-1.182-1.428l-.137-.006h-2.64c-.744 0-1.256.508-1.313 1.285l-.006.15v1.434H9.236c-2.175 0-3.854-1.754-3.954-4.084l-.004-.22V7.224c0-3.933 2.783-7.04 6.367-7.168l.23-.004h7.917z"/>
</svg>
