<svg xmlns="http://www.w3.org/2000/svg" width="26" height="32" viewBox="0 0 26 32">
    <g fill="#5F5D70" fill-rule="nonzero">
        <path d="M5.236 19.328c.26.131.576.025.707-.239a.544.544 0 0 0-.231-.723c-.077-.04-1.889-1.02-2.364-3.916a.532.532 0 0 0-.465-.447.523.523 0 0 0-.548.335c-1.148 2.922 1.017 6.28 1.11 6.422a.525.525 0 0 0 .733.15.545.545 0 0 0 .148-.747c-.014-.02-.91-1.414-1.186-3.056.87 1.58 2.028 2.186 2.096 2.221z"/>
        <path d="M6.642 20.072c.24-.058.397-.344.35-.637-.05-.293-.28-.483-.524-.424-.892.217-2.58 1.4-2.58 4.322 0 2.12.365 3.591.647 4.409-.973.23-1.535.976-1.535 2.091C3 31.09 3.935 32 5.222 32h.444c.737 0 1.19-.673 1.24-.75.15-.235.116-.576-.077-.76-.194-.185-.473-.142-.624.093-.002.004-.228.334-.538.334h-.445c-.663 0-1.333-.372-1.333-1.084 0-.268 0-1.083 1.333-1.083.163 0 .313-.11.39-.285a.647.647 0 0 0-.019-.555c-.008-.015-.815-1.559-.815-4.577 0-2.747 1.79-3.241 1.864-3.26zM21.465 27.742c.282-.818.646-2.289.646-4.409 0-2.922-1.687-4.105-2.58-4.323-.24-.058-.474.132-.522.425-.048.293.108.579.349.637.076.02 1.864.487 1.864 3.261 0 3.018-.807 4.561-.814 4.575-.09.166-.1.38-.022.556.077.176.228.286.392.286 1.333 0 1.333.815 1.333 1.083 0 .711-.67 1.084-1.333 1.084h-.445c-.306 0-.532-.325-.54-.338-.152-.231-.43-.272-.622-.09-.193.185-.228.526-.077.761.05.077.503.75 1.24.75h.444C22.066 32 23 31.089 23 29.833c0-1.115-.562-1.861-1.535-2.091zM16.084 27.642l.91-6.001c.045-.3-.14-.583-.412-.633-.273-.05-.53.152-.575.451l-.93 6.141H15c-.276 0-.5.246-.5.55 0 .304.224.55.5.55h.5c1.5 0 1.5.828 1.5 1.1 0 .722-.755 1.1-1.5 1.1H15c-.827 0-1.5-.74-1.5-1.65v-7.7c0-.304-.223-.55-.5-.55s-.5.246-.5.55v7.7c0 .91-.673 1.65-1.5 1.65h-.5c-.745 0-1.5-.378-1.5-1.1 0-.272 0-1.1 1.5-1.1h.5c.276 0 .5-.246.5-.55 0-.304-.224-.55-.5-.55h-.077l-.93-6.14c-.044-.3-.302-.502-.575-.452-.273.05-.457.333-.411.633l.909 6C8.705 27.827 8 28.605 8 29.8c0 1.275 1.052 2.2 2.5 2.2h.5c.817 0 1.544-.433 2-1.102.456.669 1.183 1.102 2 1.102h.5c1.449 0 2.5-.925 2.5-2.2 0-1.196-.705-1.974-1.916-2.158zM25.447 4.502C24.348 2.187 21.701 0 20 0c-.965 0-2.627 1.576-3.461 2.435-.965-.87-2.139-1.382-3.539-1.382-1.4 0-2.574.512-3.538 1.382C8.627 1.575 6.965 0 6 0 4.3 0 1.652 2.187.553 4.502.222 5.197 0 6.138 0 6.842c0 1.451 1.121 2.632 2.5 2.632 1.242 0 1.798-.86 2.245-1.551.054-.084.108-.168.171-.262l2-3.158a.543.543 0 0 0-.139-.73.484.484 0 0 0-.693.145L4.091 7.065c-.059.088-.116.177-.174.266-.45.696-.737 1.09-1.417 1.09-.827 0-1.5-.708-1.5-1.579 0-.547.184-1.316.447-1.87.985-2.074 3.367-3.92 4.553-3.92.426 0 1.696 1.046 2.754 2.129C6.876 5.48 6 9.329 6 13.158 6 18.018 8.028 20 13 20c4.972 0 7-1.983 7-6.842 0-3.83-.876-7.678-2.755-9.977C18.304 2.098 19.573 1.053 20 1.053c1.186 0 3.567 1.845 4.553 3.92.263.553.447 1.322.447 1.87 0 .87-.673 1.578-1.5 1.578-.704 0-.983-.39-1.451-1.135l-2.133-3.368a.484.484 0 0 0-.694-.145.543.543 0 0 0-.138.73l2.13 3.364c.475.753 1.011 1.607 2.286 1.607 1.378 0 2.5-1.18 2.5-2.632 0-.704-.222-1.645-.553-2.34zM19 13.158c0 4.275-1.57 5.79-6 5.79s-6-1.515-6-5.79C7 7.656 8.855 2.105 13 2.105s6 5.551 6 11.053z"/>
        <path d="M15.055 15.771c-.085.167-.419.227-.555.229-.586 0-1.19-.499-1.409-1.072.822-.185 1.409-.743 1.409-1.428 0-.841-.879-1.5-2-1.5s-2 .659-2 1.5c0 .685.587 1.242 1.41 1.428-.219.573-.824 1.072-1.406 1.072-.144-.002-.47-.063-.562-.235a.5.5 0 1 0-.883.47c.395.743 1.335.765 1.441.765.777 0 1.528-.443 2-1.078.473.635 1.223 1.078 2 1.078.107 0 1.058-.022 1.444-.771a.5.5 0 1 0-.889-.458zM12.5 14c-.6 0-1-.301-1-.5s.4-.5 1-.5c.61 0 1 .296 1 .5 0 .204-.39.5-1 .5zM15 10a1.001 1.001 0 0 0 0-2 1.001 1.001 0 0 0 0 2zM11 10a1.001 1.001 0 0 0 0-2 1.001 1.001 0 0 0 0 2z"/>
    </g>
</svg>
