<svg xmlns="http://www.w3.org/2000/svg" width="30" height="39" viewBox="0 0 30 39">
    <path fill="#FFF" fill-rule="nonzero" d="M15 0C7.625 0 0 5.661 0 15.097c0 8.932 13.5 22.897 14.125 23.526.25.251.5.377.875.377s.625-.126.875-.377C16.5 37.993 30 24.155 30 15.097 30 5.66 22.375 0 15 0zm5 16.355h-3.75v3.774c0 .755-.5 1.258-1.25 1.258s-1.25-.503-1.25-1.258v-3.774H10c-.75 0-1.25-.503-1.25-1.258s.5-1.258 1.25-1.258h3.75v-3.774c0-.755.5-1.259 1.25-1.259s1.25.504 1.25 1.259v3.774H20c.75 0 1.25.503 1.25 1.258s-.5 1.258-1.25 1.258z"/>
</svg>
