<svg xmlns="http://www.w3.org/2000/svg" width="17" height="17" viewBox="0 0 17 17">
    <path fill="#3E415A" fill-rule="nonzero" d="M13.663 17c-.707 0-1.561-.177-2.5-.532-2.06-.776-4.301-2.311-6.31-4.32-2.01-2.01-3.545-4.252-4.322-6.311-.706-1.873-.708-3.41-.004-4.113.101-.101.204-.21.31-.322.642-.675 1.368-1.435 2.33-1.4.662.027 1.305.438 1.962 1.256 1.943 2.417 1.067 3.278.053 4.276l-.179.178c-.165.165-.479.933 2.436 3.848.952.952 1.763 1.648 2.411 2.07.409.265 1.139.666 1.439.367l.18-.182c.997-1.012 1.858-1.885 4.273.057.818.657 1.23 1.299 1.257 1.963.039.96-.727 1.688-1.403 2.33-.111.106-.22.209-.32.31-.35.35-.909.525-1.613.525zM3.098.572c-.683 0-1.3.65-1.846 1.224-.11.115-.216.228-.321.332-.524.524-.471 1.9.135 3.508.749 1.985 2.237 4.154 4.191 6.108 1.954 1.953 4.122 3.441 6.108 4.19 1.607.607 2.983.658 3.506.135.105-.105.217-.21.333-.32.587-.558 1.253-1.19 1.224-1.892-.02-.482-.371-1-1.044-1.541-2.012-1.618-2.574-1.047-3.508-.1l-.183.184c-.446.446-1.17.348-2.154-.292-.682-.443-1.525-1.165-2.503-2.145C4.616 7.545 3.843 6.064 4.6 5.306l.182-.18c.949-.934 1.521-1.497-.098-3.51C4.143.944 3.624.593 3.143.572h-.045z"/>
</svg>
