<svg xmlns="http://www.w3.org/2000/svg" width="30" height="28" viewBox="0 0 30 28">
    <g fill="#5F5D70" fill-rule="nonzero">
        <path d="M29.993 13.368l-.884-5.504a.511.511 0 0 0-.5-.436h-1.435C25.475 5.246 23.016 4 20.382 4c-2.632 0-5.09 1.246-6.79 3.428h-1.2a.512.512 0 0 0-.5.436l-.885 5.504a.53.53 0 0 0 .114.422.502.502 0 0 0 .386.184h1.22l.605 12.531a.513.513 0 0 0 .507.495h13.322c.27 0 .493-.218.507-.495l.212-4.403a3.205 3.205 0 0 0 1.42-1.435c.637-1.252.525-2.796.32-3.871a11.189 11.189 0 0 0-.953-2.822h.826c.149 0 .29-.068.387-.184a.531.531 0 0 0 .113-.422zm-9.61-8.326c2.046 0 3.977.858 5.437 2.386H14.946c1.46-1.528 3.39-2.386 5.436-2.386zm6.295 20.916H14.322l-.579-11.984h3.269a19.62 19.62 0 0 0 1.03 2.805c1.745 3.783 4.4 5.774 7.692 5.774.09 0 .18-.001.271-.004.264-.009.55-.037.842-.095l-.169 3.504zm.222-4.585a3.927 3.927 0 0 1-.927.135c-3.02.097-5.375-1.635-7.004-5.153a18.127 18.127 0 0 1-.895-2.381h9.183l-.357 7.4zm1.5-1.188c-.12.238-.274.443-.457.617l.258-5.334c.596 1.64.805 3.526.2 4.717zM17.79 12.932a18.67 18.67 0 0 1-.405-2.1.51.51 0 0 0-.563-.457.518.518 0 0 0-.445.578c.007.061.098.844.365 1.979h-4.636l.717-4.462h15.355l.718 4.462H17.789zM7.532 15.934l.17-13.616A2.342 2.342 0 0 0 7.029.64 2.15 2.15 0 0 0 5.5 0a2.15 2.15 0 0 0-1.529.64 2.341 2.341 0 0 0-.674 1.678l.17 13.616C1.55 15.977 0 17.62 0 19.634v7.821c0 .301.247.545.551.545h9.898a.548.548 0 0 0 .551-.545v-7.82c0-2.015-1.549-3.658-3.468-3.7zM4.756 1.406A1.05 1.05 0 0 1 5.5 1.09c.276 0 .54.112.744.316.23.23.36.558.356.898l-.185 14.833h-1.83L4.4 2.304c-.004-.34.126-.667.357-.898zM9.898 26.91H1.102v-7.276c0-1.418 1.062-2.574 2.38-2.61l.008.665c.003.298.249.538.55.538h2.92c.3 0 .547-.24.55-.538l.009-.665c1.317.035 2.379 1.192 2.379 2.61v7.276z"/>
    </g>
</svg>
