<svg xmlns="http://www.w3.org/2000/svg" width="27" height="18" viewBox="0 0 27 18">
    <g fill="#5F5D70" fill-rule="nonzero">
        <path d="M21.704 13.734c-1.56 0-2.364.57-3.074 1.073-.624.441-1.117.79-2.189.79-1.071 0-1.564-.349-2.187-.79-.71-.503-1.515-1.073-3.075-1.073-1.56 0-2.364.57-3.074 1.073-.624.441-1.117.79-2.188.79-1.072 0-1.564-.349-2.188-.79-.71-.503-1.515-1.073-3.074-1.073v1.552c1.071 0 1.564.349 2.187.79.71.503 1.515 1.073 3.075 1.073 1.56 0 2.364-.57 3.074-1.073.624-.441 1.116-.79 2.188-.79s1.564.349 2.188.79c.71.503 1.515 1.073 3.074 1.073 1.56 0 2.365-.57 3.075-1.073.624-.44 1.116-.79 2.188-.79s1.564.349 2.188.79c.71.503 1.515 1.073 3.075 1.073v-1.552c-1.072 0-1.565-.349-2.188-.79-.71-.503-1.515-1.073-3.075-1.073zM21.704 4.578c-1.56 0-2.364.57-3.074 1.072-.624.442-1.117.79-2.189.79-1.071 0-1.564-.348-2.187-.79-.71-.502-1.515-1.072-3.075-1.072-1.56 0-2.364.57-3.074 1.072-.624.442-1.117.79-2.188.79-1.072 0-1.564-.348-2.188-.79-.71-.502-1.515-1.072-3.074-1.072V6.13c1.071 0 1.564.349 2.187.79.71.503 1.515 1.073 3.075 1.073 1.56 0 2.364-.57 3.074-1.073.624-.441 1.116-.79 2.188-.79s1.564.349 2.188.79c.71.503 1.515 1.073 3.074 1.073 1.56 0 2.365-.57 3.075-1.073.624-.441 1.116-.79 2.188-.79s1.564.349 2.188.79c.71.503 1.515 1.073 3.075 1.073V6.44c-1.072 0-1.565-.35-2.188-.79-.71-.503-1.515-1.073-3.075-1.073zM21.704 9.156c-1.56 0-2.364.57-3.074 1.073-.624.441-1.117.79-2.189.79-1.071 0-1.564-.349-2.187-.79-.71-.503-1.515-1.073-3.075-1.073-1.56 0-2.364.57-3.074 1.073-.624.441-1.117.79-2.188.79-1.072 0-1.564-.349-2.188-.79-.71-.503-1.515-1.073-3.074-1.073v1.552c1.071 0 1.564.349 2.187.79.71.503 1.515 1.073 3.075 1.073 1.56 0 2.364-.57 3.074-1.073.624-.441 1.116-.79 2.188-.79s1.564.349 2.188.79c.71.503 1.515 1.073 3.074 1.073 1.56 0 2.365-.57 3.075-1.073.624-.441 1.116-.79 2.188-.79s1.564.349 2.188.79c.71.503 1.515 1.073 3.075 1.073v-1.552c-1.072 0-1.565-.349-2.188-.79-.71-.503-1.515-1.073-3.075-1.073zM24.779 1.073C24.069.57 23.264 0 21.704 0c-1.56 0-2.364.57-3.074 1.073-.624.441-1.117.79-2.189.79-1.071 0-1.564-.349-2.187-.79C13.544.57 12.739 0 11.179 0c-1.56 0-2.364.57-3.074 1.073-.624.441-1.117.79-2.188.79-1.072 0-1.564-.349-2.188-.79C3.02.57 2.214 0 .655 0v1.552c1.071 0 1.564.349 2.187.79.71.503 1.515 1.073 3.075 1.073 1.56 0 2.364-.57 3.074-1.073.624-.441 1.116-.79 2.188-.79s1.564.349 2.188.79c.71.503 1.515 1.073 3.074 1.073 1.56 0 2.365-.57 3.075-1.073.624-.441 1.116-.79 2.188-.79s1.564.349 2.188.79c.71.503 1.515 1.073 3.075 1.073V1.863c-1.072 0-1.565-.349-2.188-.79z"/>
    </g>
</svg>
