<svg xmlns="http://www.w3.org/2000/svg" width="30" height="30" viewBox="0 0 30 30">
    <path fill="#FFF" fill-rule="nonzero" d="M15.005 0A14.997 14.997 0 0 0 1.217 9.096l-.187.062.072.217c-3.11 7.673.587 16.415 8.258 19.526 1.792.727 3.707 1.1 5.64 1.099 8.283.001 14.999-6.714 15-14.998.001-8.284-6.712-15-14.995-15.002zM26.77 22.563l-.77-.77V20a.5.5 0 0 0-.05-.224l-1.95-3.894V14a.5.5 0 0 0-.222-.416l-1.5-1a.5.5 0 0 0-.4-.069l-1.837.459-3.085-1.324-.424-2.974L17.707 7.5h2.525l.85 1.277a.5.5 0 0 0 .334.216l3 .5c.08.013.162.007.24-.019l2.762-.921a13.952 13.952 0 0 1-.65 14.01zM24.707 4.927l-.813.542-2.266-.454-1.47-.489a.49.49 0 0 0-.28-.011l-1.858.464-.815-.271.604-1.208h1.69a.5.5 0 0 0 .224-.053l1.73-.865a14.049 14.049 0 0 1 3.254 2.345zM9.526 2.117l1.2.8a.5.5 0 0 0 .195.076l2.422.404-.236.708-1.262.421a.5.5 0 0 0-.27.217l-1.437 2.393L7.832 8.52l-3.399.485a.5.5 0 0 0-.43.495V11a.5.5 0 0 0 .147.353l.853.854v.859l-2.08-1.387-.754-2.264a14.08 14.08 0 0 1 7.357-7.299zM8.102 18.51l-2.26-.453-.839-1.675v-1.175l1.863-1.863.689 1.38a.5.5 0 0 0 .447.276h3.217l1.354 2.257A.5.5 0 0 0 13 17.5h1.39l-.35 1.753-1.893 1.893a.5.5 0 0 0-.147.354v1.25l-1.8 1.35a.5.5 0 0 0-.2.4v1.806L9.38 26.1l-.878-2.196V19a.5.5 0 0 0-.4-.49zM6.6 26.196a13.998 13.998 0 0 1-4.986-15.284l.416 1.246a.5.5 0 0 0 .196.258l2.492 1.661-.568.57a.5.5 0 0 0-.147.353v1.5a.5.5 0 0 0 .053.223l1 2a.5.5 0 0 0 .35.267l2.099.42V24a.5.5 0 0 0 .035.185l1 2.5a.5.5 0 0 0 .307.289l1.5.5a.5.5 0 0 0 .655-.474v-2.25l1.8-1.35a.5.5 0 0 0 .2-.4v-1.293l1.852-1.854a.5.5 0 0 0 .137-.255l.5-2.5A.5.5 0 0 0 15 16.5h-1.717l-1.354-2.258a.5.5 0 0 0-.428-.242h-3.19l-.86-1.724a.5.5 0 0 0-.8-.13l-.65.647V12a.5.5 0 0 0-.146-.354l-.853-.853v-.86l3.07-.438a.502.502 0 0 0 .187-.067l2.5-1.5a.5.5 0 0 0 .17-.17l1.405-2.342 1.324-.442a.495.495 0 0 0 .316-.316l.5-1.5a.5.5 0 0 0-.392-.65l-2.893-.482-.509-.34a13.956 13.956 0 0 1 9.614.358l-.913.456H17.5a.5.5 0 0 0-.45.276l-1 2a.5.5 0 0 0 .29.698l1.5.5a.49.49 0 0 0 .279.011l1.858-.465 1.362.454c.02.007.04.012.06.016l2.5.5c.13.026.265 0 .375-.074l1.138-.759c.56.624 1.063 1.296 1.503 2.01l-2.46.82-2.662-.445-.88-1.32A.5.5 0 0 0 20.5 6.5h-3a.5.5 0 0 0-.353.146l-1.5 1.5a.5.5 0 0 0-.141.425l.5 3.5a.5.5 0 0 0 .3.388l3.499 1.5c.1.044.212.053.318.026l1.785-.447 1.091.73V16a.5.5 0 0 0 .05.223L25 20.118V22a.5.5 0 0 0 .146.353l1.046 1.047c-4.638 6.183-13.41 7.435-19.591 2.796z"/>
</svg>
