<svg xmlns="http://www.w3.org/2000/svg" width="40" height="38" viewBox="0 0 40 38">
    <path fill="#6A6A77" fill-rule="evenodd" d="M.834 18.678C.834 8.363 9.5 0 20.192 0c10.69 0 19.357 8.363 19.357 18.678 0 10.316-8.666 18.679-19.357 18.679C9.5 37.357.834 28.994.834 18.678zm29.33 1.513c0-3.736-1.896-5.475-4.425-5.475-2.042 0-2.953 1.183-3.463 2.01v.04h-.026c.007-.013.018-.026.026-.04v-1.724h-3.844c.051 1.141 0 12.166 0 12.166h3.843v-6.795c0-.364.026-.725.128-.986.278-.727.909-1.479 1.971-1.479 1.392 0 1.946 1.117 1.946 2.751v6.51h3.844V20.19zM13.754 9.056c-1.428 0-2.362.978-2.362 2.264 0 1.258.907 2.264 2.306 2.264h.028c1.455 0 2.36-1.006 2.36-2.264-.028-1.286-.905-2.264-2.333-2.264zm-2.362 16.98h3.52v-11.32h-3.52v11.32z"/>
</svg>
