<svg xmlns="http://www.w3.org/2000/svg" width="18" height="26" viewBox="0 0 18 26">
    <path fill="#3E415A" fill-rule="evenodd" d="M9 .5C4.035.5 0 4.577 0 9.705c0 5.368 4.5 10.86 7.781 14.721.012.015.539.617 1.19.617h.057c.65 0 1.178-.602 1.19-.617C13.5 20.566 18 15.074 18 9.705 18 4.577 13.963.5 9 .5zm.087 22.92a.912.912 0 0 1-.101.075c-.008-.02-.063-.066-.097-.102-2.749-3.234-7.39-8.693-7.39-13.688 0-4.23 3.366-7.671 7.5-7.671 4.137 0 7.501 3.441 7.501 7.671 0 4.995-4.64 10.454-7.413 13.715zM9.084 6.227c-1.894 0-3.436 1.501-3.436 3.347 0 1.845 1.542 3.346 3.436 3.346 1.895 0 3.436-1.501 3.436-3.346 0-1.846-1.541-3.347-3.436-3.347zm-.003 7.708c-2.481 0-4.5-1.966-4.5-4.383s2.019-4.383 4.5-4.383 4.5 1.966 4.5 4.383-2.019 4.383-4.5 4.383z" opacity=".802"/>
</svg>
