<svg width="105" height="39" viewBox="0 0 105 39" fill="none" xmlns="http://www.w3.org/2000/svg">
<g clip-path="url(#clip0)">
<path d="M19.3159 39C8.66197 39 0 30.2555 0 19.5C0 8.74453 8.66197 0 19.3159 0C29.9698 0 38.6318 8.74453 38.6318 19.5C38.6318 30.2555 29.9698 39 19.3159 39ZM15.3622 10.0242H12.3742V23.6133C12.3742 24.832 12.8571 25.7156 13.7928 26.2945C14.7284 26.843 15.8753 27.1477 17.2032 27.1477H22.4547C25.4728 27.1477 26.9819 25.9898 26.9819 23.7047V17.6719C26.9819 16.6664 26.5895 15.8438 25.7747 15.2039C24.9598 14.5945 23.8732 14.2594 22.4849 14.2594H15.3622V10.0242ZM24.0241 23.1562C24.0241 23.7961 23.8732 24.1922 23.5714 24.4055C23.1791 24.7406 22.5151 24.9234 21.6097 24.9234H17.9879C16.2374 24.9234 15.3924 24.375 15.3924 23.2781V17.0016C15.3924 16.6359 15.6338 16.4531 16.1167 16.4531H21.6097C23.2394 16.4531 24.0241 17.0625 24.0241 18.2508V23.1562Z" fill="black"/>
<path d="M56.6806 27.1172C56.8617 27.1172 56.9824 27.0258 56.9824 26.8125L57.0428 25.3805C57.4653 25.9898 57.9482 26.4773 58.5518 26.782C59.1253 27.0867 59.8194 27.2695 60.6343 27.2695C61.4492 27.2695 62.1735 27.1172 62.8073 26.8125C63.4411 26.5078 63.9542 26.0813 64.3768 25.5328C64.7993 24.9844 65.1313 24.3445 65.3426 23.6133C65.5538 22.882 65.6745 22.0898 65.6745 21.2367C65.6745 19.2562 65.2822 17.7633 64.4975 16.7883C63.7128 15.8133 62.5961 15.2953 61.1776 15.2953C60.3325 15.2953 59.578 15.5086 58.914 15.9047C58.25 16.3008 57.6464 16.8492 57.1333 17.55V10.1156H56.0166V27.1781H56.6806V27.1172ZM63.6222 17.3672C64.256 18.1898 64.588 19.4695 64.588 21.2062C64.588 21.968 64.4975 22.6687 64.3164 23.3086C64.1353 23.9484 63.8939 24.4969 63.5317 24.9539C63.1997 25.4109 62.747 25.7766 62.2339 26.0203C61.7208 26.2641 61.1172 26.3859 60.4532 26.3859C59.7591 26.3859 59.1253 26.2641 58.6122 25.9898C58.0689 25.7156 57.586 25.2586 57.1333 24.5883V18.4031C57.6162 17.7023 58.1896 17.1234 58.7933 16.7273C59.4271 16.3313 60.1212 16.118 60.8758 16.118C62.0528 16.1484 62.9583 16.5445 63.6222 17.3672ZM69.6886 27.1172V19.5305C70.0508 18.4945 70.5035 17.7023 71.0468 17.1539C71.6202 16.6055 72.3144 16.3312 73.1896 16.3312C73.4311 16.3312 73.6424 16.3617 73.8234 16.3922C74.0045 16.4227 74.1554 16.4531 74.3063 16.4836C74.4271 16.5141 74.5478 16.5445 74.6383 16.575C74.7289 16.6055 74.7892 16.6359 74.8496 16.6359C74.9703 16.6359 75.0609 16.575 75.091 16.4531L75.242 15.6914C74.9703 15.5391 74.6987 15.4477 74.3969 15.3563C74.0951 15.2953 73.7933 15.2344 73.4311 15.2344C72.5257 15.2344 71.7711 15.5086 71.1373 16.0266C70.5035 16.575 70.0206 17.3063 69.6585 18.2508L69.5679 15.7828C69.5679 15.6609 69.5377 15.5695 69.4774 15.5086C69.417 15.4477 69.3265 15.4172 69.2057 15.4172H68.6323V27.1172H69.6886ZM77.5357 15.4477V22.9125C77.5357 23.5828 77.6263 24.1922 77.7772 24.7406C77.9281 25.2891 78.1695 25.7461 78.5015 26.1117C78.8335 26.5078 79.2259 26.782 79.7088 26.9953C80.1917 27.2086 80.7651 27.3 81.3989 27.3C82.2741 27.3 83.0287 27.0867 83.753 26.6906C84.4472 26.2945 85.081 25.7461 85.5941 25.0758L85.6846 26.8125C85.6846 27.0258 85.8053 27.1172 86.0166 27.1172H86.6202V15.4477H85.5035V24.2227C84.9904 24.9234 84.3868 25.4414 83.753 25.8375C83.089 26.2336 82.3949 26.4164 81.6403 26.4164C80.6142 26.4164 79.8597 26.1117 79.3768 25.4719C78.8939 24.8625 78.6222 23.9789 78.6222 22.882V15.4477H77.5357ZM99.2057 27.1172V10.0547H98.089V16.9711C97.6665 16.4227 97.1836 15.9656 96.6102 15.6914C96.0367 15.3867 95.3426 15.2648 94.588 15.2648C93.7731 15.2648 93.0488 15.4172 92.415 15.7219C91.7812 16.0266 91.2681 16.4531 90.8456 17.0016C90.423 17.55 90.091 18.1898 89.8798 18.9211C89.6685 19.6523 89.5478 20.4445 89.5478 21.2977C89.5478 23.2781 89.9401 24.7711 90.755 25.7766C91.5397 26.782 92.6564 27.2695 94.075 27.2695C94.92 27.2695 95.7047 27.0562 96.3989 26.6602C97.0931 26.2336 97.6967 25.6852 98.2098 24.9844L98.3305 26.8125C98.3607 27.0258 98.4814 27.1172 98.6625 27.1172H99.2057ZM91.6001 25.1367C90.9663 24.3141 90.6343 23.0344 90.6343 21.2977C90.6343 20.5359 90.7249 19.8352 90.9059 19.1953C91.087 18.5555 91.3285 18.007 91.6906 17.55C92.0226 17.093 92.4754 16.7273 92.9884 16.4836C93.5015 16.2398 94.1051 16.118 94.7691 16.118C95.4331 16.118 96.0669 16.2398 96.6102 16.5141C97.1534 16.7883 97.6363 17.2453 98.089 17.9156V24.0703C97.6061 24.7711 97.0327 25.35 96.4291 25.7461C95.7953 26.1422 95.1011 26.3555 94.3466 26.3555C93.1695 26.3555 92.2641 25.9594 91.6001 25.1367ZM103.401 15.4477V27.1172H104.518V15.4477H103.401ZM104.91 11.0297C104.85 10.9078 104.789 10.7859 104.669 10.6945C104.548 10.6031 104.457 10.5117 104.337 10.4813C104.216 10.4203 104.095 10.3898 103.944 10.3898C103.793 10.3898 103.673 10.4203 103.552 10.4813C103.431 10.5422 103.31 10.6031 103.22 10.6945C103.129 10.7859 103.039 10.9078 103.009 11.0297C102.948 11.1516 102.918 11.3039 102.918 11.4258C102.918 11.5781 102.948 11.7 103.009 11.8219C103.069 11.9437 103.129 12.0656 103.22 12.157C103.31 12.2484 103.431 12.3398 103.552 12.3703C103.673 12.4312 103.793 12.4617 103.944 12.4617C104.095 12.4617 104.216 12.4312 104.337 12.3703C104.457 12.3094 104.578 12.2484 104.669 12.157C104.759 12.0656 104.85 11.9437 104.91 11.8219C104.97 11.7 105 11.5781 105 11.4258C105 11.2734 104.97 11.1516 104.91 11.0297Z" fill="black"/>
</g>
<defs>
<clipPath id="clip0">
<rect width="105" height="39" fill="white"/>
</clipPath>
</defs>
</svg>
