<svg width="92" height="26" viewBox="0 0 92 26" fill="none" xmlns="http://www.w3.org/2000/svg">
<path d="M58.5947 21.2173C58.5947 21.767 58.9014 22.1334 59.2848 22.1334H67.397C67.7803 22.1334 68.087 21.767 68.087 21.2173C68.087 20.6677 67.7803 20.3013 67.397 20.3013H59.2848C58.9014 20.3013 58.5947 20.6677 58.5947 21.2173Z" fill="#060400"/>
<path d="M63.2715 18.4693C63.2715 18.9731 63.5782 19.3854 63.9616 19.3854H72.0737C72.4571 19.3854 72.7638 18.9731 72.7638 18.4693C72.7638 17.9655 72.4571 17.5532 72.0737 17.5532H63.9616C63.5782 17.5532 63.2715 17.9655 63.2715 18.4693Z" fill="#060400"/>
<path d="M67.9492 15.7212C67.9492 16.2709 68.2559 16.6373 68.6393 16.6373H76.7515C77.1348 16.6373 77.4415 16.2709 77.4415 15.7212C77.4415 15.1716 77.1348 14.8052 76.7515 14.8052H68.6393C68.2713 14.8052 67.9492 15.1716 67.9492 15.7212Z" fill="#060400"/>
<path d="M9.76873 13.1256C9.76873 13.8432 9.61538 14.4233 9.32401 14.8814C9.03265 15.3394 8.67995 15.7364 8.28124 16.0876C8.08189 16.2708 7.85186 16.4387 7.62184 16.6219C7.39181 16.8051 7.13112 16.9578 6.83976 17.0952C6.54839 17.2326 6.22636 17.3395 5.85832 17.4159C5.49028 17.4922 5.06091 17.538 4.55485 17.538C3.66543 17.538 2.85268 17.4464 2.1166 17.2632C1.38052 17.08 0.690453 16.7746 0.0463867 16.3776L0.935812 14.0111C1.21184 14.1791 1.5032 14.3623 1.8099 14.5608C2.1166 14.7592 2.45397 14.9577 2.79134 15.1257C3.14404 15.2936 3.51208 15.4463 3.89545 15.5532C4.27882 15.6753 4.67753 15.7211 5.07624 15.7211C5.35227 15.7211 5.59763 15.7059 5.82765 15.66C6.05768 15.6142 6.24169 15.5379 6.39504 15.431C6.51772 15.3394 6.60973 15.1562 6.67107 14.9119C6.73241 14.6524 6.76308 14.3623 6.76308 13.9959C6.76308 13.5836 6.60973 13.263 6.30303 13.0187C5.99634 12.7744 5.61296 12.5759 5.13758 12.3927C4.67753 12.2095 4.17148 12.0416 3.63476 11.8583C3.09804 11.6751 2.59198 11.4461 2.13194 11.156C1.67189 10.8659 1.27318 10.4842 0.966482 10.0262C0.659784 9.56816 0.506434 8.95745 0.506434 8.20932C0.506434 7.72075 0.659784 7.23218 0.966482 6.74361C1.27318 6.25503 1.59521 5.85807 1.94792 5.53744C2.39263 5.14048 2.86801 4.85039 3.40473 4.65191C3.94146 4.45342 4.55485 4.36182 5.26026 4.36182C5.84299 4.36182 6.47172 4.39235 7.13112 4.46869C7.79052 4.52976 8.40392 4.6061 8.98665 4.69771L8.58794 7.20164C8.29657 7.11004 7.98988 7.00316 7.65251 6.91155C7.31514 6.81995 6.97777 6.72834 6.65574 6.652C6.3337 6.57566 6.01167 6.49932 5.70497 6.45352C5.39827 6.40771 5.12225 6.37718 4.87689 6.37718C4.55485 6.37718 4.32483 6.39244 4.15615 6.42298C3.98746 6.45352 3.86478 6.49932 3.75744 6.56039C3.68076 6.62146 3.60409 6.72834 3.55808 6.91155C3.51208 7.09477 3.48141 7.27798 3.48141 7.4612C3.48141 7.84289 3.63476 8.14825 3.94146 8.362C4.24816 8.57575 4.63153 8.77423 5.10691 8.94218C5.56696 9.11013 6.07301 9.29334 6.62507 9.47656C7.16179 9.65977 7.66784 9.90406 8.14322 10.1789C8.60327 10.469 9.00198 10.8354 9.30868 11.2934C9.61538 11.7973 9.76873 12.3927 9.76873 13.1256Z" fill="#060400"/>
<path d="M12.8199 6.40764L11.4551 5.9496V5.18621L15.3655 2.43799H16.3623L16.4083 4.65183H20.2573L20.0886 6.04121C19.7973 6.10228 19.4446 6.14808 19.0305 6.17862C18.6165 6.22442 18.2178 6.25496 17.8191 6.28549C17.359 6.3313 16.899 6.36183 16.4236 6.40764V13.4919C16.4236 13.95 16.5003 14.3164 16.669 14.637C16.8376 14.9424 17.175 15.0951 17.6964 15.0951C17.8344 15.0951 18.0184 15.0951 18.2484 15.0798C18.4785 15.0645 18.7238 15.0493 18.9845 15.0187C19.2452 14.9882 19.4906 14.9576 19.7206 14.9271C19.966 14.8966 20.1653 14.866 20.334 14.8355V15.8737C20.0273 16.0722 19.6746 16.2554 19.2912 16.4539C18.8925 16.6524 18.4785 16.8356 18.0184 16.9883C17.5737 17.141 17.129 17.2784 16.669 17.37C16.2089 17.4616 15.7795 17.5074 15.3655 17.5074C15.0435 17.5074 14.7368 17.4768 14.4301 17.4158C14.1234 17.3547 13.8473 17.2326 13.6173 17.0646C13.3719 16.8814 13.1879 16.6371 13.0346 16.3165C12.8966 15.9959 12.8199 15.5684 12.8199 15.0493V6.40764Z" fill="#060400"/>
<path d="M28.2781 17.5381C26.2232 17.5381 24.6437 16.9884 23.5549 15.8739C22.4661 14.7593 21.9141 13.1257 21.9141 10.9882C21.9141 9.98049 22.0521 9.06442 22.3128 8.25522C22.5735 7.44602 22.9875 6.75897 23.5242 6.17879C24.061 5.61388 24.7204 5.17111 25.5178 4.86575C26.3152 4.56039 27.2353 4.40771 28.2781 4.40771C30.3789 4.40771 31.9584 4.97263 33.0319 6.10245C34.1053 7.23227 34.642 8.85067 34.642 10.9424C34.642 11.9653 34.504 12.8814 34.2433 13.7059C33.9826 14.5151 33.5686 15.2021 33.0319 15.7823C32.4952 16.3472 31.8358 16.79 31.0383 17.0953C30.2409 17.3854 29.3208 17.5381 28.2781 17.5381ZM25.6711 10.9576C25.6711 12.6066 25.8705 13.828 26.2692 14.6067C26.6679 15.3853 27.3273 15.7823 28.2627 15.7823C28.6154 15.7823 28.9528 15.7518 29.2748 15.6907C29.5969 15.6296 29.8576 15.538 30.0569 15.4159C30.1949 15.3548 30.3176 15.1868 30.4096 14.912C30.517 14.6525 30.609 14.3166 30.6703 13.9196C30.747 13.5226 30.8083 13.0799 30.839 12.5608C30.8697 12.0569 30.885 11.5225 30.885 10.9882C30.885 9.36978 30.6856 8.16361 30.2716 7.36968C29.8729 6.57575 29.2135 6.16352 28.3087 6.16352C27.9714 6.16352 27.634 6.19406 27.2966 6.2704C26.9746 6.33147 26.6832 6.45361 26.4379 6.59102C26.2998 6.66736 26.1772 6.85058 26.0852 7.11013C25.9778 7.36968 25.9011 7.69031 25.8398 8.08727C25.7785 8.48424 25.7325 8.92701 25.7018 9.41558C25.6865 9.90415 25.6711 10.4233 25.6711 10.9576Z" fill="#060400"/>
<path d="M45.1616 7.50709C44.8856 7.41549 44.5942 7.33915 44.2722 7.27808C43.9502 7.217 43.6588 7.18647 43.3675 7.18647C43.1681 7.18647 42.9841 7.20174 42.8154 7.23227C42.6467 7.26281 42.4934 7.32388 42.3553 7.40022C42.2173 7.47656 42.064 7.5987 41.926 7.72084C41.788 7.85826 41.6193 8.0262 41.4353 8.20942V17.2633H37.8315V4.66727H41.0672L41.3739 6.68263H41.3892C41.4813 6.52995 41.6039 6.362 41.742 6.16352C41.88 5.96504 42.0333 5.76656 42.1867 5.56807C42.34 5.36959 42.5087 5.18638 42.6774 5.01843C42.8461 4.85048 43.0301 4.74361 43.1988 4.66727C43.5208 4.56039 43.8735 4.48405 44.2722 4.45352C44.6709 4.42298 45.1003 4.40771 45.5757 4.40771L45.1616 7.50709Z" fill="#060400"/>
<path d="M49.5469 23.416C48.9029 24.2099 48.2588 24.7901 47.6147 25.1718C46.9707 25.5535 46.3266 25.7367 45.6672 25.7367C45.3298 25.7367 44.9464 25.7062 44.5631 25.6604C44.1644 25.5993 43.8423 25.5382 43.6123 25.4619V24.2405H43.873C44.3177 24.2405 44.8238 24.1183 45.3912 23.874C45.9739 23.6298 46.5106 23.2786 47.032 22.8053C47.3234 22.561 47.6607 22.2404 48.0441 21.8281C48.4275 21.4312 48.8262 20.9884 49.2402 20.4998C49.6543 20.0265 50.053 19.5227 50.4517 19.0189C50.8351 18.515 51.2031 18.0264 51.5098 17.5684C51.0191 16.0721 50.5284 14.698 50.053 13.4155C49.5776 12.133 49.1329 11.0032 48.7188 10.0261C48.3048 9.04892 47.9368 8.25499 47.6147 7.62901C47.2927 7.00303 47.032 6.60606 46.848 6.40758C46.664 6.22437 46.4799 6.11749 46.2959 6.07169C46.0966 6.02588 45.9585 5.99535 45.8359 5.99535H45.7285V4.80445C45.8819 4.75865 46.0812 4.72811 46.3113 4.69758C46.5566 4.66704 46.802 4.63651 47.0627 4.60597C47.3234 4.57544 47.584 4.56017 47.8294 4.52963C48.0748 4.51436 48.2895 4.4991 48.4428 4.4991C48.7955 4.4991 49.1175 4.5449 49.4089 4.63651C49.7003 4.72811 49.9303 4.88079 50.1296 5.09454C50.375 5.33883 50.651 5.75106 50.9271 6.30071C51.2184 6.86562 51.5098 7.5374 51.8165 8.31607C52.1232 9.09473 52.4452 9.98027 52.7673 10.9421C53.0893 11.904 53.396 12.927 53.7027 13.9804H53.764C54.1781 13.3239 54.5154 12.6979 54.7608 12.1178C55.0215 11.5376 55.2208 10.9421 55.3742 10.3772C55.5275 9.79705 55.6349 9.23214 55.6809 8.65196C55.7422 8.07178 55.7576 7.47633 55.7576 6.83508C55.7576 6.65187 55.7422 6.46865 55.7269 6.27017C55.7116 6.07169 55.6809 5.87321 55.6502 5.68999C55.6195 5.50678 55.5889 5.33883 55.5582 5.18615C55.5275 5.03347 55.4969 4.9266 55.4662 4.86553L58.2725 4.37695C58.3338 4.57544 58.4105 4.85026 58.4565 5.23195C58.5178 5.61365 58.5332 5.96481 58.5332 6.30071C58.5332 7.20151 58.3952 8.11758 58.1038 9.03366C57.8124 9.94973 57.4444 10.8811 56.9844 11.7971C56.5243 12.7132 56.0183 13.614 55.4662 14.5301C54.9141 15.4309 54.3621 16.3164 53.8254 17.1714C53.2426 18.057 52.7673 18.8051 52.3992 19.4005C52.0158 19.996 51.6785 20.5151 51.3871 20.9426C51.0804 21.3854 50.789 21.7823 50.513 22.164C50.237 22.5457 49.915 22.9732 49.5469 23.416Z" fill="#060400"/>
<path d="M67.6724 0.529297V8.9877C67.6724 9.73583 67.795 10.3007 68.0404 10.6519C68.2858 11.0183 68.6998 11.2015 69.2825 11.2015C69.4972 11.2015 69.7119 11.171 69.9726 11.1099C70.2179 11.0489 70.4786 10.9725 70.7393 10.8657C71 10.7588 71.2607 10.6519 71.4908 10.5145C71.7361 10.3923 71.9508 10.2397 72.1655 10.087V0.529297H75.7539V13.1558H72.5335L72.2115 11.6748H72.1655C71.9201 11.8428 71.6134 12.026 71.2761 12.2245C70.9234 12.423 70.5553 12.6215 70.1413 12.8047C69.7426 12.9879 69.3132 13.1406 68.8685 13.2627C68.4238 13.3849 67.9791 13.4459 67.565 13.4459C67.0896 13.4459 66.6296 13.3696 66.2155 13.2169C65.8015 13.0642 65.4335 12.8199 65.1114 12.5146C64.7894 12.2092 64.544 11.8123 64.36 11.339C64.176 10.8657 64.084 10.3313 64.084 9.70529V0.529297H67.6724Z" fill="#060400"/>
<path d="M83.3761 1.62873C83.8821 1.2623 84.4035 0.941675 84.9556 0.682121C85.4923 0.422567 86.1364 0.285156 86.8878 0.285156C87.5472 0.285156 88.1759 0.392031 88.7893 0.62105C89.4027 0.850068 89.9394 1.20123 90.4148 1.6898C90.8902 2.17837 91.2582 2.81962 91.5496 3.61355C91.8256 4.39222 91.979 5.35409 91.979 6.49918C91.979 7.59847 91.8256 8.56035 91.5189 9.41535C91.2122 10.2703 90.7675 10.9879 90.2001 11.5834C89.6327 12.1788 88.9427 12.6369 88.1146 12.9422C87.3018 13.2629 86.3817 13.4155 85.3389 13.4155C85.0016 13.4155 84.6489 13.385 84.2962 13.3392C83.9435 13.2934 83.6368 13.2323 83.3914 13.1712C83.3914 13.2934 83.3914 13.5071 83.4067 13.8125C83.4221 14.1179 83.4221 14.4232 83.4221 14.7286V21.2327L79.8184 21.8281V0.911139L83.008 0.361496L83.3761 1.62873ZM88.2219 6.62133C88.2219 5.21668 87.9919 4.17847 87.5318 3.50668C87.0718 2.83489 86.4431 2.499 85.661 2.499C85.2623 2.499 84.8789 2.5448 84.5109 2.62114C84.1428 2.69748 83.7901 2.81962 83.4221 2.9723V11.2628C83.6981 11.3238 83.9741 11.3849 84.2348 11.4002C84.5109 11.4307 84.7869 11.446 85.0936 11.446C85.5536 11.446 85.983 11.4002 86.3817 11.3238C86.7804 11.2475 87.0718 11.1101 87.2711 10.9116C87.4858 10.6978 87.7005 10.2093 87.9152 9.47642C88.1146 8.72829 88.2219 7.76642 88.2219 6.62133Z" fill="#060400"/>
<path d="M1.22679 24.0423V22.4087L0 20.1948H0.567392L1.11945 21.2483C1.2728 21.5384 1.38014 21.7674 1.50282 22.0422H1.51816C1.6255 21.798 1.76352 21.5384 1.90153 21.2483L2.45359 20.1948H3.02098L1.71751 22.4087V24.0423H1.22679Z" fill="#060400"/>
<path d="M6.54803 22.0877C6.54803 23.416 5.73528 24.1183 4.75384 24.1183C3.7264 24.1183 3.021 23.3244 3.021 22.164C3.021 20.9426 3.78774 20.1486 4.81518 20.1486C5.87329 20.1334 6.54803 20.9426 6.54803 22.0877ZM3.55772 22.1487C3.55772 22.9732 4.00243 23.7061 4.78451 23.7061C5.58193 23.7061 6.02664 22.9732 6.02664 22.1029C6.02664 21.3395 5.62793 20.5456 4.79985 20.5456C3.97176 20.5456 3.55772 21.309 3.55772 22.1487Z" fill="#060400"/>
<path d="M7.69824 20.21V22.4849C7.69824 23.3399 8.08161 23.7063 8.603 23.7063C9.17039 23.7063 9.53843 23.3246 9.53843 22.4849V20.21H10.0445V22.4543C10.0445 23.63 9.41575 24.1185 8.58766 24.1185C7.79025 24.1185 7.20752 23.6605 7.20752 22.4696V20.21H7.69824Z" fill="#060400"/>
<path d="M10.9185 20.2555C11.1638 20.2097 11.5319 20.1792 11.8692 20.1792C12.4059 20.1792 12.7433 20.2708 12.9887 20.4998C13.188 20.6678 13.2954 20.9273 13.2954 21.2327C13.2954 21.7365 12.9733 22.0724 12.5746 22.2098V22.2251C12.866 22.332 13.05 22.6068 13.142 23.0038C13.2647 23.5381 13.3567 23.9046 13.4334 24.0572H12.912C12.8507 23.9504 12.7586 23.6145 12.6513 23.1412C12.544 22.6068 12.3293 22.4083 11.8846 22.393H11.4092V24.0572H10.9185V20.2555ZM11.4092 22.0113H11.9152C12.4519 22.0113 12.7893 21.7213 12.7893 21.2785C12.7893 20.7899 12.4213 20.5609 11.8999 20.5609C11.6545 20.5609 11.4858 20.5914 11.4092 20.6067V22.0113Z" fill="#060400"/>
<path d="M15.2119 20.2555C15.4266 20.2097 15.7793 20.1792 16.1167 20.1792C16.6227 20.1792 16.9294 20.2708 17.1748 20.454C17.3741 20.6067 17.4968 20.8357 17.4968 21.1258C17.4968 21.4922 17.2515 21.8281 16.8374 21.9655V21.9808C17.2055 22.0724 17.6348 22.3778 17.6348 22.9427C17.6348 23.2786 17.4968 23.5229 17.3128 23.7061C17.0368 23.9504 16.6074 24.0725 15.9787 24.0725C15.6413 24.0725 15.3653 24.042 15.2119 24.0267V20.2555ZM15.7026 21.8281H16.1627C16.6841 21.8281 17.0061 21.5533 17.0061 21.1869C17.0061 20.7441 16.6687 20.5609 16.1627 20.5609C15.9327 20.5609 15.7946 20.5762 15.718 20.5914V21.8281H15.7026ZM15.7026 23.6755C15.7946 23.6908 15.948 23.6908 16.1167 23.6908C16.6381 23.6908 17.1134 23.5076 17.1134 22.9427C17.1134 22.4236 16.6534 22.1946 16.1167 22.1946H15.7026V23.6755Z" fill="#060400"/>
<path d="M18.8159 20.21V22.4849C18.8159 23.3399 19.1993 23.7063 19.7207 23.7063C20.2881 23.7063 20.6561 23.3246 20.6561 22.4849V20.21H21.1622V22.4543C21.1622 23.63 20.5334 24.1185 19.7053 24.1185C18.9079 24.1185 18.3252 23.6605 18.3252 22.4696V20.21H18.8159Z" fill="#060400"/>
<path d="M21.9599 23.4463C22.1899 23.5837 22.5119 23.6906 22.8493 23.6906C23.3554 23.6906 23.6621 23.4158 23.6621 23.0341C23.6621 22.6676 23.4627 22.4692 22.9413 22.2707C22.3126 22.0417 21.9292 21.721 21.9292 21.1867C21.9292 20.5912 22.4353 20.1484 23.1713 20.1484C23.57 20.1484 23.8461 20.24 24.0301 20.3317L23.8921 20.7439C23.7694 20.6828 23.5087 20.5607 23.156 20.5607C22.6346 20.5607 22.4353 20.8813 22.4353 21.1408C22.4353 21.5073 22.6653 21.6752 23.202 21.889C23.8614 22.1333 24.1834 22.4539 24.1834 23.0188C24.1834 23.6142 23.7387 24.1181 22.834 24.1181C22.4659 24.1181 22.0519 24.0112 21.8525 23.8738L21.9599 23.4463Z" fill="#060400"/>
<path d="M25.3483 20.21V24.0575H24.8423V20.21H25.3483Z" fill="#060400"/>
<path d="M26.2227 24.0423V20.1948H26.7747L28.0168 22.1338C28.3082 22.5919 28.5229 22.9888 28.7069 23.3858H28.7222C28.6762 22.8667 28.6609 22.4087 28.6609 21.8132V20.2101H29.1363V24.0576H28.6302L27.4034 22.1033C27.1274 21.6758 26.8821 21.233 26.6827 20.8208H26.6674C26.698 21.3094 26.7134 21.7674 26.7134 22.4087V24.0576H26.2227V24.0423Z" fill="#060400"/>
<path d="M31.9889 22.2407H30.486V23.6301H32.1575V24.0423H29.98V20.1948H32.0655V20.6071H30.486V21.8285H31.9889V22.2407Z" fill="#060400"/>
<path d="M32.7404 23.4463C32.9704 23.5837 33.2924 23.6906 33.6298 23.6906C34.1358 23.6906 34.4425 23.4158 34.4425 23.0341C34.4425 22.6676 34.2432 22.4692 33.7218 22.2707C33.0931 22.0417 32.6944 21.721 32.6944 21.1867C32.6944 20.5912 33.2004 20.1484 33.9365 20.1484C34.3352 20.1484 34.6112 20.24 34.7952 20.3317L34.6572 20.7286C34.5345 20.6675 34.2738 20.5454 33.9211 20.5454C33.3998 20.5454 33.2004 20.866 33.2004 21.1256C33.2004 21.492 33.4304 21.66 33.9672 21.8737C34.6266 22.118 34.9486 22.4386 34.9486 23.0035C34.9486 23.599 34.5039 24.1028 33.5991 24.1028C33.2311 24.1028 32.817 23.9959 32.6177 23.8585L32.7404 23.4463Z" fill="#060400"/>
<path d="M35.5614 23.4463C35.7915 23.5837 36.1135 23.6906 36.4509 23.6906C36.9569 23.6906 37.2636 23.4158 37.2636 23.0341C37.2636 22.6676 37.0643 22.4692 36.5429 22.2707C35.9141 22.0417 35.5308 21.721 35.5308 21.1867C35.5308 20.5912 36.0368 20.1484 36.7729 20.1484C37.1716 20.1484 37.4476 20.24 37.6317 20.3317L37.4936 20.7439C37.371 20.6828 37.1103 20.5607 36.7576 20.5607C36.2362 20.5607 36.0368 20.8813 36.0368 21.1408C36.0368 21.5073 36.2669 21.6752 36.8036 21.889C37.463 22.1333 37.785 22.4539 37.785 23.0188C37.785 23.6142 37.3403 24.1181 36.4355 24.1181C36.0675 24.1181 35.6535 24.0112 35.4541 23.8738L35.5614 23.4463Z" fill="#060400"/>
</svg>
