<svg width="143" height="58" viewBox="0 0 143 58" fill="none" xmlns="http://www.w3.org/2000/svg">
<g clip-path="url(#clip0)">
<path d="M2.07231 55.6766H3.52496L4.97762 50.492L6.45567 55.6766H7.92356L9.73175 47.6613H8.22831L7.08041 52.7799L5.62776 47.6613H4.35795L2.92562 52.7799L1.76248 47.6613H0.259033L2.07231 55.6766ZM16.7106 52.8611C16.7106 51.882 16.416 51.0906 15.8319 50.492C15.2478 49.8934 14.4859 49.5941 13.5513 49.5941C12.6726 49.5941 11.9412 49.8934 11.3571 50.492C10.773 51.0906 10.4835 51.8414 10.4835 52.7444C10.4835 53.6271 10.7781 54.3627 11.3622 54.9512C11.9463 55.5397 12.7082 55.8288 13.6377 55.8288C14.237 55.8288 14.7551 55.7223 15.1919 55.5092C15.6287 55.2962 16.0046 54.9664 16.3144 54.5251L15.0598 53.9366C14.6586 54.3272 14.1811 54.52 13.6224 54.52C13.1551 54.52 12.7742 54.3932 12.4745 54.1446C12.1749 53.896 11.992 53.5612 11.9209 53.1401H16.7055L16.7106 52.8611ZM11.9869 51.9733C12.1545 51.6081 12.3374 51.3494 12.5355 51.2073C12.8504 50.974 13.211 50.8573 13.6275 50.8573C14.0084 50.8573 14.3437 50.9587 14.6383 51.1667C14.9329 51.3747 15.1208 51.6436 15.2224 51.9733H11.9869ZM25.6957 49.9441C25.2284 49.7108 24.6951 49.5941 24.1059 49.5941C23.471 49.5941 22.892 49.7311 22.379 50.0101C21.866 50.284 21.4647 50.6645 21.1752 51.1515C20.8857 51.6334 20.7435 52.161 20.7435 52.7394C20.7435 53.5663 21.0381 54.2917 21.6323 54.9106C22.2215 55.5295 23.0393 55.839 24.0856 55.839C25.2437 55.839 26.1427 55.4281 26.7827 54.5961L25.6094 53.7946C25.2386 54.2511 24.7205 54.4743 24.05 54.4743C23.5116 54.4743 23.0748 54.3171 22.7447 53.9975C22.4145 53.6779 22.2469 53.267 22.2469 52.7647C22.2469 52.2473 22.4196 51.8211 22.765 51.4863C23.1104 51.1566 23.5574 50.9892 24.1161 50.9892C24.4208 50.9892 24.69 51.0348 24.9186 51.1312C25.1471 51.2276 25.3757 51.395 25.6094 51.6385L26.8487 50.9587C26.549 50.5123 26.1681 50.1826 25.6957 49.9441ZM27.8391 55.6766H29.3172V53.2771L29.3121 52.9879C29.3121 52.161 29.3934 51.603 29.5508 51.3189C29.7083 51.0348 29.9013 50.8928 30.1299 50.8928C30.2416 50.8928 30.3838 50.9384 30.5616 51.0247L31.0238 49.7463C30.8105 49.6448 30.6124 49.5941 30.4194 49.5941C30.1451 49.5941 29.8962 49.6702 29.6676 49.8224C29.4391 49.9746 29.2562 50.1978 29.1191 50.492V49.7463H27.8442V55.6766H27.8391ZM37.7182 52.8611C37.7182 51.882 37.4236 51.0906 36.8395 50.492C36.2554 49.8934 35.4935 49.5941 34.5589 49.5941C33.6802 49.5941 32.9488 49.8934 32.3647 50.492C31.7806 51.0906 31.4911 51.8414 31.4911 52.7444C31.4911 53.6271 31.7857 54.3627 32.3698 54.9512C32.9539 55.5397 33.7158 55.8288 34.6453 55.8288C35.2446 55.8288 35.7627 55.7223 36.1995 55.5092C36.6363 55.2962 37.0122 54.9664 37.322 54.5251L36.0674 53.9366C35.6662 54.3272 35.1887 54.52 34.63 54.52C34.1627 54.52 33.7818 54.3932 33.4821 54.1446C33.1825 53.896 32.9996 53.5612 32.9285 53.1401H37.7131L37.7182 52.8611ZM32.9894 51.9733C33.1571 51.6081 33.3399 51.3494 33.538 51.2073C33.8529 50.974 34.2135 50.8573 34.63 50.8573C35.011 50.8573 35.3462 50.9587 35.6408 51.1667C35.9354 51.3747 36.1233 51.6436 36.2249 51.9733H32.9894ZM43.3002 50.4007C43.0361 50.1318 42.7466 49.9289 42.4317 49.797C42.1168 49.6651 41.7866 49.5941 41.4311 49.5941C40.659 49.5941 39.9988 49.8883 39.4604 50.4717C38.9169 51.0551 38.6477 51.8059 38.6477 52.7241C38.6477 53.6069 38.927 54.3475 39.4858 54.9411C40.0445 55.5346 40.7098 55.8339 41.4768 55.8339C41.8171 55.8339 42.1371 55.773 42.4266 55.6513C42.7212 55.5295 43.0107 55.3317 43.3002 55.0527V55.6817H44.7884V49.7463H43.3002V50.4007ZM42.9041 51.4457C43.2139 51.7653 43.3663 52.1813 43.3663 52.6988C43.3663 53.2264 43.2139 53.6525 42.9041 53.9772C42.5942 54.3019 42.2082 54.4642 41.7409 54.4642C41.2889 54.4642 40.9079 54.2968 40.5981 53.967C40.2883 53.6373 40.1308 53.2162 40.1308 52.7039C40.1308 52.1966 40.2832 51.7806 40.5879 51.4508C40.8927 51.1261 41.2736 50.9638 41.7358 50.9638C42.2031 50.9689 42.5942 51.1261 42.9041 51.4457ZM46.4747 49.7463H45.7129V51.0247H46.4747V55.6716H47.9629V51.0247H48.8467V49.7463H47.9629V47.5598H46.4747V49.7463ZM55.597 52.8611C55.597 51.882 55.3024 51.0906 54.7183 50.492C54.1342 49.8934 53.3723 49.5941 52.4377 49.5941C51.559 49.5941 50.8276 49.8934 50.2435 50.492C49.6594 51.0906 49.3699 51.8414 49.3699 52.7444C49.3699 53.6271 49.6645 54.3627 50.2486 54.9512C50.8327 55.5397 51.5946 55.8288 52.5241 55.8288C53.1234 55.8288 53.6415 55.7223 54.0783 55.5092C54.5151 55.2962 54.891 54.9664 55.2008 54.5251L53.9463 53.9366C53.545 54.3272 53.0676 54.52 52.5088 54.52C52.0416 54.52 51.6606 54.3932 51.3609 54.1446C51.0613 53.896 50.8784 53.5612 50.8073 53.1401H55.5919L55.597 52.8611ZM50.8733 51.9733C51.0409 51.6081 51.2238 51.3494 51.4219 51.2073C51.7368 50.974 52.0974 50.8573 52.5139 50.8573C52.8949 50.8573 53.2301 50.9587 53.5247 51.1667C53.8142 51.3747 54.0072 51.6436 54.1088 51.9733H50.8733Z" fill="black"/>
<path d="M64.3028 50.4004C64.0387 50.1316 63.7492 49.9287 63.4343 49.7968C63.1194 49.6649 62.7892 49.5938 62.4337 49.5938C61.6616 49.5938 61.0013 49.8881 60.4629 50.4715C59.9195 51.0549 59.6503 51.8057 59.6503 52.7239C59.6503 53.6066 59.9296 54.3472 60.4883 54.9408C61.0471 55.5343 61.7124 55.8336 62.4794 55.8336C62.8197 55.8336 63.1397 55.7728 63.4292 55.651C63.7238 55.5292 64.0133 55.3314 64.3028 55.0524V55.6814H65.791V47.4632H64.3028V50.4004ZM63.9066 51.4455C64.2165 51.7651 64.3689 52.1811 64.3689 52.6985C64.3689 53.2261 64.2165 53.6522 63.9066 53.9769C63.5968 54.3016 63.2108 54.4639 62.7435 54.4639C62.2915 54.4639 61.9105 54.2965 61.6007 53.9668C61.2909 53.637 61.1334 53.216 61.1334 52.7036C61.1334 52.1963 61.2858 51.7803 61.5905 51.4506C61.8953 51.1259 62.2762 50.9635 62.7384 50.9635C63.2108 50.9686 63.6019 51.1259 63.9066 51.4455ZM67.2132 47.5849C67.0304 47.7726 66.9339 47.9958 66.9339 48.2546C66.9339 48.5285 67.0253 48.7568 67.2132 48.9496C67.4011 49.1423 67.6246 49.2336 67.8887 49.2336C68.1478 49.2336 68.3662 49.1423 68.5541 48.9546C68.737 48.7669 68.8335 48.5437 68.8335 48.2749C68.8335 48.006 68.742 47.7777 68.5541 47.59C68.3662 47.4023 68.1427 47.3059 67.8837 47.3059C67.6195 47.3059 67.3961 47.3972 67.2132 47.5849ZM67.137 55.6764H68.6252V49.746H67.137V55.6764ZM74.3647 50.4004C74.06 50.1113 73.7552 49.9084 73.4505 49.7815C73.1457 49.6547 72.8257 49.5938 72.4803 49.5938C71.7489 49.5938 71.1191 49.8526 70.5909 50.37C70.0068 50.9382 69.7173 51.6941 69.7173 52.6376C69.7173 53.5153 69.9915 54.2458 70.5401 54.819C71.0886 55.3923 71.7642 55.6814 72.5565 55.6814C72.9222 55.6814 73.2473 55.6256 73.5317 55.509C73.8213 55.3923 74.0955 55.2046 74.3546 54.9459C74.3546 55.4278 74.3038 55.7626 74.2022 55.9605C74.1006 56.1583 73.9279 56.3156 73.6841 56.4424C73.4403 56.5641 73.1203 56.6301 72.7191 56.6301C72.4042 56.6301 72.135 56.5895 71.9064 56.5033C71.6778 56.417 71.4899 56.2902 71.3426 56.1228H69.702C69.8341 56.5236 70.0372 56.8685 70.3064 57.1475C70.5807 57.4266 70.9159 57.6447 71.3121 57.7867C71.7083 57.9339 72.1959 58.0049 72.78 58.0049C73.872 58.0049 74.6898 57.6853 75.2282 57.0461C75.6295 56.5743 75.8326 55.8387 75.8326 54.8342V49.746H74.3495V50.4004H74.3647ZM73.9889 51.4455C74.2885 51.7549 74.4409 52.1557 74.4409 52.6478C74.4409 53.15 74.2885 53.5559 73.9889 53.8653C73.6892 54.1748 73.3083 54.3269 72.846 54.3269C72.3737 54.3269 71.9826 54.1697 71.6677 53.8552C71.3528 53.5406 71.2004 53.1348 71.2004 52.6376C71.2004 52.1608 71.3528 51.7651 71.6575 51.4506C71.9623 51.136 72.3483 50.9788 72.8207 50.9788C73.2981 50.9838 73.6892 51.1411 73.9889 51.4455ZM77.27 47.5849C77.0872 47.7726 76.9907 47.9958 76.9907 48.2546C76.9907 48.5285 77.0821 48.7568 77.27 48.9496C77.458 49.1423 77.6815 49.2336 77.9456 49.2336C78.2046 49.2336 78.423 49.1423 78.6109 48.9546C78.7938 48.7669 78.8903 48.5437 78.8903 48.2749C78.8903 48.006 78.7989 47.7777 78.6109 47.59C78.423 47.4023 78.1995 47.3059 77.9405 47.3059C77.6764 47.3059 77.4529 47.3972 77.27 47.5849ZM77.1939 55.6764H78.6821V49.746H77.1939V55.6764ZM80.216 49.746H79.4541V51.0244H80.216V55.6713H81.7042V51.0244H82.588V49.746H81.7042V47.5596H80.216V49.746ZM87.7688 50.4004C87.5046 50.1316 87.2151 49.9287 86.9002 49.7968C86.5853 49.6649 86.2552 49.5938 85.8996 49.5938C85.1276 49.5938 84.4673 49.8881 83.9289 50.4715C83.3854 51.0549 83.1162 51.8057 83.1162 52.7239C83.1162 53.6066 83.3956 54.3472 83.9543 54.9408C84.513 55.5343 85.1784 55.8336 85.9453 55.8336C86.2856 55.8336 86.6056 55.7728 86.8951 55.651C87.1897 55.5292 87.4792 55.3314 87.7688 55.0524V55.6814H89.257V49.746H87.7688V50.4004ZM87.3675 51.4455C87.6773 51.7651 87.8297 52.1811 87.8297 52.6985C87.8297 53.2261 87.6773 53.6522 87.3675 53.9769C87.0577 54.3016 86.6716 54.4639 86.2044 54.4639C85.7523 54.4639 85.3714 54.2965 85.0615 53.9668C84.7517 53.637 84.5943 53.216 84.5943 52.7036C84.5943 52.1963 84.7466 51.7803 85.0514 51.4506C85.3561 51.1259 85.7371 50.9635 86.1993 50.9635C86.6716 50.9686 87.0627 51.1259 87.3675 51.4455ZM90.5979 55.6764H92.0861V47.4581H90.5979V55.6764Z" fill="black"/>
<path d="M96.5659 49.746V57.8426H98.044V55.0473C98.3335 55.3213 98.6281 55.5242 98.9227 55.6459C99.2173 55.7677 99.5373 55.8286 99.8776 55.8286C100.645 55.8286 101.31 55.5293 101.869 54.9357C102.427 54.3422 102.707 53.6015 102.707 52.7188C102.707 51.8057 102.437 51.0548 101.894 50.4664C101.351 49.883 100.695 49.5887 99.9182 49.5887C99.5627 49.5887 99.2274 49.6547 98.9125 49.7917C98.5976 49.9286 98.3081 50.1265 98.0389 50.3954V49.7409H96.5659V49.746ZM100.766 51.4556C101.071 51.7803 101.224 52.1963 101.224 52.7087C101.224 53.221 101.066 53.6421 100.756 53.9718C100.446 54.3016 100.06 54.469 99.6084 54.469C99.1411 54.469 98.75 54.3067 98.4402 53.982C98.1303 53.6573 97.9779 53.2312 97.9779 52.7036C97.9779 52.1861 98.1303 51.7701 98.4402 51.4505C98.75 51.1309 99.136 50.9686 99.6084 50.9686C100.076 50.9686 100.462 51.1309 100.766 51.4556ZM103.596 55.6764H105.074V53.2768L105.069 52.9877C105.069 52.1608 105.15 51.6027 105.307 51.3186C105.465 51.0346 105.658 50.8925 105.886 50.8925C105.998 50.8925 106.14 50.9382 106.318 51.0244L106.78 49.746C106.567 49.6445 106.369 49.5938 106.176 49.5938C105.902 49.5938 105.653 49.6699 105.424 49.8221C105.196 49.9743 105.013 50.1975 104.876 50.4917V49.746H103.601V55.6764H103.596ZM108.248 50.4004C107.568 51.0193 107.227 51.7904 107.227 52.7188C107.227 53.5812 107.527 54.3168 108.131 54.9256C108.736 55.5293 109.462 55.8336 110.31 55.8336C110.889 55.8336 111.418 55.6967 111.9 55.4227C112.383 55.1488 112.758 54.7683 113.038 54.2813C113.317 53.7943 113.454 53.2718 113.454 52.7137C113.454 52.1557 113.317 51.6382 113.038 51.1614C112.764 50.6794 112.378 50.304 111.885 50.0199C111.392 49.7409 110.864 49.5989 110.305 49.5989C109.533 49.5938 108.847 49.8627 108.248 50.4004ZM111.499 51.4708C111.804 51.7904 111.956 52.2013 111.956 52.7087C111.956 53.216 111.804 53.6319 111.494 53.9566C111.184 54.2813 110.798 54.4436 110.331 54.4436C109.863 54.4436 109.477 54.2813 109.173 53.9617C108.868 53.6421 108.715 53.2261 108.715 52.7087C108.715 52.2064 108.868 51.7955 109.178 51.4759C109.487 51.1563 109.868 50.994 110.336 50.994C110.803 50.994 111.194 51.1563 111.499 51.4708ZM119.052 50.4004C118.787 50.1316 118.498 49.9286 118.183 49.7967C117.868 49.6648 117.538 49.5938 117.182 49.5938C116.41 49.5938 115.75 49.888 115.212 50.4714C114.668 51.0548 114.399 51.8057 114.399 52.7239C114.399 53.6066 114.678 54.3472 115.237 54.9408C115.796 55.5343 116.461 55.8336 117.228 55.8336C117.568 55.8336 117.888 55.7728 118.178 55.651C118.473 55.5293 118.762 55.3314 119.052 55.0524V55.6814H120.54V47.4631H119.052V50.4004ZM118.655 51.4455C118.965 51.7651 119.118 52.1811 119.118 52.6985C119.118 53.2261 118.965 53.6522 118.655 53.9769C118.346 54.3016 117.96 54.4639 117.492 54.4639C117.04 54.4639 116.659 54.2965 116.349 53.9668C116.04 53.637 115.882 53.216 115.882 52.7036C115.882 52.1963 116.035 51.7803 116.339 51.4505C116.644 51.1259 117.025 50.9635 117.487 50.9635C117.96 50.9686 118.346 51.1259 118.655 51.4455ZM122.043 52.2166C122.043 53.1652 122.099 53.8196 122.216 54.1798C122.379 54.6973 122.663 55.1031 123.064 55.3974C123.465 55.6865 123.994 55.8336 124.644 55.8336C125.243 55.8336 125.741 55.7068 126.127 55.4582C126.518 55.2097 126.813 54.8545 127.011 54.3878C127.173 54.0073 127.255 53.2971 127.255 52.2622V49.7511H125.766V52.6579C125.766 53.216 125.736 53.5812 125.675 53.7537C125.589 53.982 125.462 54.1545 125.289 54.2762C125.116 54.3929 124.903 54.4538 124.659 54.4538C124.41 54.4538 124.202 54.3929 124.034 54.2762C123.867 54.1545 123.74 53.9871 123.664 53.774C123.587 53.5558 123.547 53.1703 123.547 52.6173V49.7612H122.043V52.2166ZM133.411 49.9438C132.943 49.7105 132.41 49.5938 131.821 49.5938C131.186 49.5938 130.607 49.7308 130.094 50.0098C129.581 50.2837 129.18 50.6642 128.89 51.1512C128.601 51.6332 128.458 52.1608 128.458 52.7391C128.458 53.566 128.753 54.2914 129.347 54.9104C129.936 55.5293 130.754 55.8387 131.8 55.8387C132.959 55.8387 133.858 55.4278 134.498 54.5958L133.324 53.7943C132.953 54.2509 132.435 54.4741 131.765 54.4741C131.227 54.4741 130.79 54.3168 130.46 53.9972C130.129 53.6776 129.962 53.2667 129.962 52.7645C129.962 52.247 130.134 51.8209 130.48 51.4861C130.825 51.1563 131.272 50.9889 131.831 50.9889C132.136 50.9889 132.405 51.0346 132.633 51.1309C132.862 51.2273 133.091 51.3947 133.324 51.6382L134.564 50.9585C134.264 50.512 133.883 50.1823 133.411 49.9438ZM136.087 49.746H135.325V51.0244H136.087V55.6713H137.576V51.0244H138.459V49.746H137.576V47.5595H136.087V49.746ZM142.025 49.8475C141.685 49.6801 141.324 49.5938 140.938 49.5938C140.374 49.5938 139.912 49.7612 139.551 50.091C139.191 50.4258 139.008 50.8215 139.008 51.2933C139.008 52.0187 139.49 52.6224 140.45 53.1094L140.953 53.358C141.385 53.5761 141.603 53.7994 141.603 54.0276C141.603 54.1494 141.542 54.261 141.426 54.3523C141.304 54.4487 141.146 54.4944 140.953 54.4944C140.77 54.4944 140.562 54.4335 140.328 54.3067C140.095 54.1798 139.892 54.0175 139.714 53.8146L138.8 54.814C139.318 55.4887 140.008 55.8286 140.872 55.8286C141.522 55.8286 142.04 55.651 142.431 55.301C142.817 54.9509 143.01 54.5096 143.01 53.982C143.01 53.5863 142.904 53.2413 142.69 52.9471C142.477 52.6528 142.081 52.3637 141.507 52.0796L140.963 51.8057C140.725 51.689 140.577 51.5977 140.516 51.5317C140.455 51.4658 140.425 51.3897 140.425 51.3085C140.425 51.202 140.471 51.1157 140.567 51.0447C140.664 50.9737 140.791 50.9382 140.958 50.9382C141.263 50.9382 141.603 51.1259 141.979 51.4962L142.904 50.5729C142.655 50.2584 142.365 50.0149 142.025 49.8475Z" fill="black"/>
<path d="M37.0731 41.4873H4.4697C2.00121 41.4873 0 39.4885 0 37.023V4.46427C0 1.99878 2.00121 0 4.4697 0H37.0731C39.5416 0 41.5428 1.99878 41.5428 4.46427V37.0281C41.5377 39.4936 39.5416 41.4873 37.0731 41.4873Z" fill="black"/>
<path d="M8.40607 29.3985C7.16674 29.3985 6.16614 28.3941 6.16614 27.1613V20.7186C6.16614 18.5473 7.04484 16.3659 8.57876 14.7273C10.199 12.9974 12.3323 12.0437 14.5824 12.0437C19.2248 12.0437 22.9986 15.9347 22.9986 20.7237C22.9986 21.9615 21.9929 22.9609 20.7587 22.9609C19.5245 22.9609 18.5188 21.9564 18.5188 20.7237C18.5188 18.4053 16.7512 16.5232 14.5824 16.5232C12.5202 16.5232 10.646 18.527 10.646 20.7237V27.1613C10.646 28.3941 9.64539 29.3985 8.40607 29.3985Z" fill="white"/>
<path d="M33.1164 29.3983C31.877 29.3983 30.8764 28.3938 30.8764 27.161V20.7183C30.8764 18.5217 29.0022 16.5178 26.94 16.5178C24.7712 16.5178 23.0037 18.405 23.0037 20.7183C23.0037 21.9561 21.998 22.9555 20.7637 22.9555C19.5295 22.9555 18.5238 21.951 18.5238 20.7183C18.5238 15.9344 22.3027 12.0383 26.94 12.0383C29.1952 12.0383 31.3234 12.9921 32.9437 14.722C34.4776 16.3606 35.3563 18.547 35.3563 20.7132V27.1509C35.3563 28.3938 34.3557 29.3983 33.1164 29.3983Z" fill="white"/>
<path fill-rule="evenodd" clip-rule="evenodd" d="M52.7222 12.7587H53.1235C56.1405 12.7587 58.5531 14.2756 60.3664 17.3143C60.9911 18.5521 61.3061 19.8052 61.3061 21.0683C61.3061 24.239 59.762 26.7451 56.6789 28.5764C55.4853 29.1598 54.2968 29.449 53.1235 29.449H52.7222C49.5731 29.449 47.0894 27.8155 45.2812 24.5535C44.7885 23.3461 44.5447 22.2098 44.5447 21.1343C44.5447 17.8926 46.0888 15.3916 49.1718 13.6262C50.2994 13.0479 51.4829 12.7587 52.7222 12.7587ZM48.7096 21.0633C48.7096 22.991 49.8169 24.3252 52.0264 25.071L52.9762 25.1369C54.8047 25.1369 56.1151 24.1578 56.9024 22.1946L57.0395 21.2611V20.7944C57.0395 19.0442 56.0237 17.8013 53.992 17.0505L53.0422 16.9186H52.905C50.9089 16.9186 49.5528 17.9637 48.8417 20.0588L48.7096 21.0633ZM79.1341 6.3667C80.2566 6.3667 80.9677 7.01605 81.2673 8.31982V21.3068C81.2673 24.4368 79.642 26.9023 76.3964 28.7083C75.2078 29.2004 74.0752 29.449 72.9933 29.449C69.6817 29.449 67.1471 27.8104 65.3897 24.5383C64.9021 23.4527 64.6583 22.2605 64.6583 20.972C64.6583 17.8318 66.1719 15.3663 69.1941 13.5704C70.3166 12.987 71.4492 12.6978 72.5971 12.6978H73.0644C73.999 12.6978 74.6644 13.261 75.0656 14.3821V14.9858C75.0656 15.7822 74.5526 16.3859 73.5317 16.8019C72.4651 16.8932 71.6422 17.0708 71.0632 17.3397C69.5953 18.2376 68.8639 19.4906 68.8639 21.1089C68.8639 23.0621 69.9306 24.3861 72.0638 25.0811L72.5971 25.1471H72.8663L72.9324 25.213L72.9984 25.1471H73.2676C74.9234 25.1471 76.1475 24.1578 76.9348 22.1844L77.0668 21.1749V8.72059C77.0668 7.57408 77.6002 6.81313 78.6668 6.43265L79.1341 6.3667ZM92.66 12.8602H93.4625C96.3323 12.8602 98.7093 14.4227 100.599 17.5527C101.086 18.75 101.33 19.8204 101.33 20.769V21.4387C100.995 22.6461 100.396 23.2498 99.5271 23.2498L98.6585 23.3157H93.6606C92.3146 23.3157 91.4715 22.8896 91.1261 22.0424L90.928 21.1698C91.1819 19.7849 91.8727 19.0899 92.9952 19.0899H96.5964C95.7532 17.7049 94.5749 17.0099 93.0613 17.0099C91.1515 17.0099 89.8156 18.06 89.0588 20.1603L88.9268 21.1647C88.9268 23.1534 89.9934 24.4926 92.1267 25.1877C92.5584 25.279 93.2035 25.3196 94.0619 25.3196H99.329C100.375 25.3196 101.041 25.9232 101.33 27.1306V27.6684C101.02 28.8758 100.421 29.4794 99.5271 29.4794L98.7957 29.5454H93.9247C91.0143 29.5454 88.8557 28.8098 87.4538 27.3335C85.6304 25.6138 84.7212 23.5592 84.7212 21.1647C84.7212 17.8571 86.3872 15.2902 89.7242 13.4588C90.8467 13.0631 91.827 12.8602 92.66 12.8602ZM112.936 12.7587H113.403C116.415 12.7587 118.975 13.8088 121.073 15.9091C121.251 16.3098 121.342 16.6903 121.342 17.0505C121.053 18.2579 120.453 18.8616 119.539 18.8616L119.006 18.9275C118.528 18.8261 117.904 18.471 117.137 17.8571C115.867 17.0962 114.511 16.7157 113.068 16.7157C110.579 16.7157 109.335 17.1165 109.335 17.9231C109.335 18.7297 110.823 19.1305 113.805 19.1305C115.841 19.1305 117.843 19.8255 119.808 21.2104C120.829 22.1134 121.342 23.1432 121.342 24.2948V24.3608C121.342 26.5168 119.697 28.0793 116.405 29.0533C115.527 29.3222 114.572 29.4541 113.536 29.4541H112.667C109.685 29.4541 107.151 28.4242 105.063 26.3697C104.931 26.1566 104.82 25.8218 104.728 25.3652C104.942 24.0259 105.607 23.3563 106.729 23.3563L106.795 23.2903C107.405 23.2903 108.228 23.7368 109.264 24.6296C110.463 25.213 111.778 25.5022 113.2 25.5022C115.557 25.5022 116.735 25.1014 116.735 24.2948C116.735 23.7469 116.045 23.3664 114.668 23.1534C110.3 23.1534 107.385 22.3265 105.932 20.6727C105.129 19.8914 104.733 18.9732 104.733 17.9231C104.733 15.5235 106.689 13.8697 110.605 12.9616C111.326 12.8247 112.103 12.7587 112.936 12.7587ZM132.974 12.7587H133.375C136.392 12.7587 138.805 14.2756 140.618 17.3143C141.243 18.5521 141.558 19.8052 141.558 21.0683C141.558 24.239 140.013 26.7451 136.93 28.5764C135.737 29.1598 134.548 29.449 133.375 29.449H132.974C129.825 29.449 127.341 27.8155 125.533 24.5535C125.04 23.3461 124.796 22.2098 124.796 21.1343C124.796 17.8926 126.34 15.3916 129.423 13.6262C130.551 13.0479 131.734 12.7587 132.974 12.7587ZM128.961 21.0633C128.961 22.991 130.068 24.3252 132.278 25.071L133.228 25.1369C135.056 25.1369 136.367 24.1578 137.154 22.1946L137.291 21.2611V20.7944C137.291 19.0442 136.275 17.8013 134.243 17.0505L133.294 16.9186H133.157C131.16 16.9186 129.804 17.9637 129.093 20.0588L128.961 21.0633Z" fill="black"/>
</g>
<defs>
<clipPath id="clip0">
<rect width="143" height="58" fill="white"/>
</clipPath>
</defs>
</svg>
