<svg width="40" height="53" viewBox="0 0 40 53" fill="none" xmlns="http://www.w3.org/2000/svg">
<g clip-path="url(#clip0)">
<path d="M7.16761 53.0001C7.28322 53.0001 7.28322 53.0001 7.28322 52.8844V52.19C7.51444 52.5372 7.74565 52.7687 8.09247 52.8844C8.43929 53.0001 8.78611 53.1158 9.13293 53.1158C9.59536 53.1158 9.94218 53.0001 10.1734 52.8844C10.5202 52.7687 10.7514 52.5372 10.9826 52.19C11.2139 51.9586 11.3295 51.6114 11.4451 51.2643C11.5607 50.9171 11.5607 50.4542 11.5607 50.1071C11.5607 49.0656 11.3295 48.3713 10.9826 47.9084C10.6358 47.4455 10.0578 47.2141 9.36415 47.2141C8.90172 47.2141 8.5549 47.3298 8.20808 47.5612C7.86126 47.7927 7.51444 48.0241 7.28322 48.3713V44.6682H6.9364V53.2315H7.16761V53.0001ZM10.7514 48.1398C11.0983 48.6027 11.2139 49.1813 11.2139 49.9914C11.2139 50.3385 11.2139 50.6857 11.0983 51.0328C10.9826 51.38 10.867 51.6114 10.7514 51.8429C10.5202 52.0743 10.4046 52.19 10.0578 52.4215C9.82657 52.5372 9.47975 52.6529 9.13293 52.6529C8.78611 52.6529 8.43929 52.5372 8.20808 52.4215C7.97686 52.3058 7.74565 52.0743 7.51444 51.7272V48.6027C7.74565 48.2555 8.09247 48.0241 8.32368 47.7927C8.5549 47.5612 8.90172 47.4455 9.36415 47.4455C9.94218 47.4455 10.4046 47.6769 10.7514 48.1398ZM13.7572 53.0001V49.1813C13.9884 48.7184 14.104 48.2555 14.4509 48.0241C14.6821 47.7927 15.1445 47.5612 15.4913 47.5612C15.6069 47.5612 15.7225 47.5612 15.8381 47.5612C15.9537 47.5612 15.9537 47.5612 16.0693 47.5612C16.185 47.5612 16.185 47.5612 16.185 47.5612H16.3006C16.4162 47.5612 16.4162 47.5612 16.4162 47.4455L16.5318 47.0983C16.4162 46.9826 16.3006 46.9826 16.0693 46.9826C15.9537 46.9826 15.7225 46.9826 15.6069 46.9826C15.1445 46.9826 14.7977 47.0983 14.4509 47.3298C14.104 47.5612 13.8728 47.9084 13.7572 48.487V47.2141C13.7572 47.0983 13.7572 47.0983 13.7572 47.0983H13.6416H13.2948V52.8844H13.7572V53.0001ZM17.6878 47.0983V50.8014C17.6878 51.1486 17.6878 51.4957 17.8035 51.7272C17.9191 51.9586 18.0347 52.19 18.1503 52.4215C18.2659 52.6529 18.4971 52.7687 18.7283 52.8844C18.9595 53.0001 19.3063 53.0001 19.5376 53.0001C20 53.0001 20.3468 52.8844 20.6936 52.6529C21.0404 52.4215 21.3873 52.19 21.6185 51.8429V52.6529C21.6185 52.7687 21.7341 52.7686 21.7341 52.7686H22.0809V46.9826H21.5029V51.38C21.2717 51.7272 20.9248 51.9586 20.578 52.19C20.2312 52.4215 19.8844 52.5372 19.5376 52.5372C19.0751 52.5372 18.6127 52.4215 18.3815 52.0743C18.1503 51.7272 18.0347 51.38 18.0347 50.8014V47.0983H17.6878ZM28.5549 53.0001V44.4368H27.9769V47.9084C27.7456 47.6769 27.5144 47.4455 27.2832 47.2141C27.052 47.0983 26.7052 46.9826 26.2428 46.9826C25.7803 46.9826 25.4335 47.0983 25.2023 47.2141C24.8555 47.3298 24.6243 47.5612 24.393 47.9084C24.1618 48.1398 24.0462 48.487 23.9306 48.8342C23.815 49.1813 23.815 49.6442 23.815 49.9914C23.815 51.0328 24.0462 51.7272 24.393 52.19C24.7399 52.6529 25.3179 52.8844 26.0115 52.8844C26.474 52.8844 26.8208 52.7687 27.1676 52.5372C27.5144 52.3058 27.8613 52.0743 28.0925 51.7272L28.2081 52.6529C28.2081 52.7687 28.3237 52.7686 28.3237 52.7686H28.5549V53.0001ZM24.7399 51.9586C24.5087 51.6114 24.2774 50.9171 24.2774 50.1071C24.2774 49.7599 24.2774 49.4128 24.393 49.0656C24.5087 48.7184 24.6243 48.487 24.7399 48.2555C24.9711 48.0241 25.0867 47.9084 25.4335 47.6769C25.6647 47.5612 26.0115 47.4455 26.3584 47.4455C26.7052 47.4455 27.052 47.5612 27.2832 47.6769C27.5144 47.7927 27.7456 48.0241 27.9769 48.3713V51.4957C27.7456 51.8429 27.3988 52.0743 27.1676 52.3058C26.8208 52.5372 26.474 52.6529 26.1272 52.6529C25.5491 52.5372 25.0867 52.4215 24.7399 51.9586ZM30.7514 47.0983V52.8844H31.2139V47.0983H30.7514ZM31.4451 44.8996C31.4451 44.7839 31.3295 44.7839 31.3295 44.7839L31.2139 44.6682C31.0982 44.6682 31.0982 44.6682 30.9826 44.6682C30.867 44.6682 30.867 44.6682 30.7514 44.6682C30.6358 44.6682 30.6358 44.7839 30.6358 44.7839L30.5202 44.8996C30.5202 45.0154 30.5202 45.0154 30.5202 45.1311C30.5202 45.2468 30.5202 45.2468 30.5202 45.3625C30.5202 45.4783 30.6358 45.4783 30.6358 45.4783L30.7514 45.594C30.867 45.594 30.867 45.594 30.9826 45.594C31.0982 45.594 31.0982 45.594 31.2139 45.594C31.3295 45.594 31.3295 45.4783 31.3295 45.4783L31.4451 45.3625C31.4451 45.2468 31.4451 45.2468 31.4451 45.1311C31.5607 45.0154 31.4451 45.0154 31.4451 44.8996Z" fill="#12120D"/>
<path fill-rule="evenodd" clip-rule="evenodd" d="M20 40.0393C8.90173 40.0393 0 31.1288 0 20.0196C0 8.91048 8.90173 0 20 0C31.0983 0 40 8.91048 40 20.0196C40 31.1288 31.0983 40.0393 20 40.0393ZM15.9538 10.2991H12.8324V24.3013C12.8324 25.5742 13.2948 26.5 14.3353 27.0786C15.2601 27.6572 16.5318 27.8886 17.9191 27.8886H23.3526C26.474 27.8886 28.0925 26.7314 28.0925 24.3013V18.1681C28.0925 17.1266 27.6301 16.3166 26.8208 15.6223C26.0116 14.9279 24.8555 14.6965 23.3526 14.6965H15.9538V10.2991ZM24.8555 23.7227C24.8555 24.417 24.7399 24.7642 24.3931 24.9956C23.9306 25.3428 23.237 25.5742 22.3121 25.5742H18.6127C16.763 25.5742 15.9538 24.9956 15.9538 23.8384V17.3581C15.9538 17.0109 16.185 16.7795 16.763 16.7795H22.4277C24.0462 16.7795 24.9711 17.3581 24.9711 18.631V23.7227H24.8555Z" fill="#12120D"/>
</g>
<defs>
<clipPath id="clip0">
<rect width="40" height="53" fill="white"/>
</clipPath>
</defs>
</svg>
