<svg width="145" height="50" viewBox="0 0 145 50" fill="none" xmlns="http://www.w3.org/2000/svg">
<path d="M72.3186 30.5548V28.5451H71.641V28.0918H71.8518C72.2282 28.0918 72.3637 27.9709 72.3637 27.6233V27.2305H72.8757V28.0918H73.6737V28.5451H72.8757V30.4792C72.8757 30.7059 72.966 30.8872 73.2671 30.8872C73.3725 30.8872 73.4779 30.8721 73.5833 30.8419V31.2801C73.4328 31.3254 73.2822 31.3556 73.1166 31.3556C72.4691 31.3405 72.3186 30.9325 72.3186 30.5548Z" fill="black"/>
<path d="M76.8207 29.2703V31.2648H76.2636V29.3912C76.2636 28.7716 75.9323 28.5147 75.5258 28.5147C75.1192 28.5147 74.6976 28.7867 74.6976 29.4516V31.2648H74.1405V26.7468H74.6976V28.4694H74.7428C74.9536 28.1672 75.2999 28.001 75.6613 28.0312C76.3388 28.0312 76.8207 28.4543 76.8207 29.2703Z" fill="black"/>
<path d="M77.5283 27.2152C77.5283 27.0188 77.6939 26.8525 77.9047 26.8525C78.1005 26.8525 78.2661 27.0188 78.2661 27.2152C78.2661 27.4116 78.1005 27.5778 77.9047 27.5778C77.6939 27.5778 77.5283 27.4116 77.5283 27.2152ZM77.6187 28.0916H78.1758V31.2799H77.6187V28.0916Z" fill="black"/>
<path d="M78.9888 28.0918H79.4857L79.5309 28.4696H79.576C79.7868 28.1673 80.1331 28.0011 80.4945 28.0313C81.1721 28.0313 81.6539 28.4695 81.6539 29.2855V31.2801H81.0968V29.4064C81.0968 28.7869 80.7655 28.53 80.359 28.53C79.9525 28.53 79.5309 28.8171 79.5309 29.4668V31.2801H78.9738V28.0918H78.9888Z" fill="black"/>
<path d="M83.8372 29.376L85.1321 31.28H84.5148L83.4608 29.7538L83.0242 30.1769V31.2648H82.467V26.7468H83.0242V29.4516H83.0693L84.4546 28.0765H85.1321L83.8372 29.376Z" fill="black"/>
<path d="M98.4424 29.6934C98.4424 28.7263 99.1049 28.0161 100.023 28.0161C100.731 28.0161 101.348 28.4241 101.454 29.1494H100.897C100.791 28.7565 100.43 28.4845 100.023 28.4996C99.4211 28.4996 99.0145 29.0134 99.0145 29.6783C99.0145 30.3129 99.406 30.8266 100.038 30.8266C100.43 30.8569 100.806 30.6 100.912 30.2222H101.469C101.348 30.8871 100.791 31.3253 100.023 31.3253C99.0597 31.3404 98.4424 30.6302 98.4424 29.6934Z" fill="black"/>
<path d="M102.086 28.0917H102.583L102.628 28.5299H102.673C102.839 28.2428 103.065 28.0312 103.577 28.0312H103.758V28.5903C103.667 28.5752 103.562 28.5752 103.471 28.5752C102.914 28.5752 102.628 29.0134 102.628 29.6027V31.2649H102.086V28.0917Z" fill="black"/>
<path d="M106.98 29.8143H104.616C104.646 30.4489 105.022 30.872 105.61 30.872C106.016 30.872 106.332 30.6907 106.438 30.3431H106.98C106.844 30.9778 106.317 31.3404 105.61 31.3404C104.706 31.3404 104.074 30.7058 104.074 29.7236C104.074 28.6961 104.736 28.0312 105.595 28.0312C106.363 28.0312 107.01 28.5601 107.01 29.6178C106.995 29.6783 106.98 29.7387 106.98 29.8143ZM104.616 29.4063H106.453C106.453 28.8623 106.091 28.4846 105.58 28.4846C105.068 28.4846 104.676 28.8925 104.616 29.4063Z" fill="black"/>
<path d="M110.413 30.8418V31.28H110.157C109.856 31.28 109.66 31.1742 109.6 30.872C109.344 31.1893 108.952 31.3707 108.546 31.3404C107.958 31.3404 107.492 31.0533 107.492 30.4338C107.492 29.8294 107.943 29.5272 108.576 29.4667L109.524 29.3761V29.1796C109.524 28.7414 109.283 28.4846 108.862 28.4846C108.44 28.4846 108.245 28.7414 108.184 29.089H107.627C107.687 28.4695 108.139 28.0312 108.862 28.0312C109.585 28.0312 110.081 28.4392 110.081 29.2099V30.5849C110.081 30.7662 110.157 30.8418 110.322 30.8418H110.413ZM109.524 29.7689L108.756 29.8445C108.35 29.8747 108.064 30.0712 108.064 30.4036C108.064 30.736 108.32 30.8871 108.621 30.8871C109.043 30.8871 109.524 30.6605 109.524 30.0409V29.7689Z" fill="black"/>
<path d="M111.196 30.5548V28.5451H110.533V28.0918H110.744C111.12 28.0918 111.256 27.9558 111.256 27.6233V27.2305H111.768V28.0918H112.566V28.5451H111.768V30.4792C111.768 30.7059 111.858 30.8721 112.174 30.8721C112.28 30.8721 112.385 30.857 112.491 30.8268V31.265C112.34 31.3103 112.189 31.3405 112.024 31.3405C111.346 31.3405 111.196 30.9325 111.196 30.5548Z" fill="black"/>
<path d="M115.728 29.8143H113.364C113.394 30.4489 113.77 30.872 114.358 30.872C114.764 30.872 115.08 30.6907 115.186 30.3431H115.728C115.592 30.9778 115.065 31.3404 114.358 31.3404C113.454 31.3404 112.822 30.7058 112.822 29.7236C112.822 28.6961 113.484 28.0312 114.343 28.0312C115.111 28.0312 115.758 28.5601 115.758 29.6178C115.728 29.6783 115.728 29.7387 115.728 29.8143ZM113.364 29.4063H115.201C115.201 28.8623 114.84 28.4846 114.328 28.4846C113.816 28.4846 113.424 28.8925 113.364 29.4063Z" fill="black"/>
<path d="M133.856 30.8418V31.28H133.601C133.299 31.28 133.104 31.1742 133.028 30.872C132.772 31.1893 132.381 31.3555 131.989 31.3404C131.402 31.3404 130.935 31.0533 130.935 30.4338C130.935 29.8294 131.387 29.5272 132.02 29.4667L132.968 29.3761V29.1796C132.968 28.7414 132.727 28.4846 132.306 28.4846C131.884 28.4846 131.688 28.7414 131.628 29.089H131.071C131.131 28.4846 131.583 28.0312 132.306 28.0312C133.028 28.0312 133.525 28.4392 133.525 29.2099V30.5849C133.525 30.7662 133.601 30.8418 133.766 30.8418H133.856ZM132.968 29.7689L132.2 29.8445C131.794 29.8747 131.508 30.0712 131.508 30.4036C131.508 30.736 131.764 30.8871 132.08 30.8871C132.501 30.8871 132.983 30.6605 132.983 30.0409L132.968 29.7689Z" fill="black"/>
<path d="M134.203 29.6934C134.203 28.7263 134.865 28.0161 135.784 28.0161C136.491 28.0161 137.109 28.4241 137.214 29.1494H136.657C136.552 28.7565 136.19 28.4845 135.784 28.4996C135.181 28.4996 134.775 29.0134 134.775 29.6783C134.775 30.3129 135.166 30.8267 135.799 30.8267C136.205 30.8569 136.567 30.6 136.672 30.2071H137.229C137.109 30.872 136.552 31.3102 135.784 31.3102C134.82 31.3404 134.203 30.6302 134.203 29.6934Z" fill="black"/>
<path d="M138.193 30.5548V28.5451H137.515V28.0918H137.726C138.103 28.0918 138.238 27.9709 138.238 27.6233V27.2305H138.75V28.0918H139.548V28.5451H138.75V30.4792C138.75 30.7059 138.84 30.8872 139.157 30.8872C139.262 30.8872 139.367 30.8721 139.473 30.8419V31.2801C139.322 31.3254 139.172 31.3556 139.006 31.3556C138.344 31.3405 138.193 30.9325 138.193 30.5548Z" fill="black"/>
<path d="M73.2973 22.9241C70.6473 22.9241 68.7953 21.005 68.7953 18.27C68.7953 15.5351 70.6774 13.5103 73.2823 13.5103C75.4655 13.5103 77.0616 14.7946 77.3778 16.7741L77.3928 16.9101H75.6161L75.6011 16.8194C75.33 15.6408 74.2309 15.112 73.2823 15.112C71.7164 15.112 70.572 16.4417 70.572 18.2852C70.572 20.0984 71.6862 21.3526 73.2973 21.3526C74.4718 21.3526 75.2999 20.7784 75.6312 19.7358L75.6613 19.6602H77.423L77.3928 19.7962C77.0616 21.685 75.4505 22.9241 73.2973 22.9241Z" fill="black"/>
<path d="M83.4306 22.924C80.8408 22.924 78.8984 20.8992 78.8984 18.2096C78.8984 15.4746 80.8107 13.4951 83.4306 13.4951C86.0204 13.4951 87.9778 15.5199 87.9778 18.2096C88.0079 19.4637 87.5412 20.6726 86.6829 21.5792C85.8397 22.4556 84.6502 22.9391 83.4306 22.924ZM83.4306 15.0968C81.8345 15.0968 80.6752 16.4114 80.6752 18.2096C80.6752 19.9926 81.8647 21.3223 83.4306 21.3223C84.9965 21.3223 86.2161 19.9775 86.2161 18.2096C86.2161 16.4417 85.0266 15.0817 83.4306 15.0968Z" fill="black"/>
<path d="M96.0033 18.7536H89.318V17.1821H96.0033V18.7536Z" fill="black"/>
<path d="M101.815 22.9241C99.1652 22.9241 97.3132 21.005 97.3132 18.27C97.3132 15.5351 99.1954 13.5103 101.8 13.5103C103.983 13.5103 105.595 14.7946 105.896 16.7741L105.911 16.9101H104.134L104.119 16.8194C103.848 15.6408 102.749 15.112 101.8 15.112C100.234 15.112 99.09 16.4417 99.09 18.2852C99.09 20.0984 100.204 21.3526 101.815 21.3526C102.99 21.3526 103.818 20.7784 104.149 19.7358L104.179 19.6602H105.956L105.926 19.7962C105.58 21.685 103.968 22.9241 101.815 22.9241Z" fill="black"/>
<path d="M111.949 22.924C109.359 22.924 107.417 20.8992 107.417 18.2096C107.417 15.4746 109.329 13.4951 111.949 13.4951C114.538 13.4951 116.496 15.5199 116.496 18.2096C116.526 19.4637 116.059 20.6726 115.201 21.5792C114.343 22.4556 113.168 22.9391 111.949 22.924ZM111.949 15.0968C110.353 15.0968 109.193 16.4114 109.193 18.2096C109.193 19.9926 110.383 21.3223 111.949 21.3223C113.515 21.3223 114.734 19.9775 114.734 18.2096C114.734 16.4417 113.53 15.0817 111.949 15.0968Z" fill="black"/>
<path d="M124.521 18.7536H117.836V17.1821H124.521V18.7536Z" fill="black"/>
<path d="M130.333 22.9241C127.683 22.9241 125.831 21.005 125.831 18.27C125.831 15.5351 127.713 13.5103 130.318 13.5103C132.501 13.5103 134.113 14.7946 134.414 16.7741L134.429 16.9101H132.652L132.637 16.8194C132.366 15.6408 131.267 15.112 130.318 15.112C128.752 15.112 127.608 16.4417 127.608 18.2852C127.608 20.0984 128.722 21.3526 130.333 21.3526C131.508 21.3526 132.336 20.7784 132.667 19.7358L132.697 19.6602H134.459L134.429 19.7962C134.097 21.685 132.486 22.9241 130.333 22.9241Z" fill="black"/>
<path d="M140.451 22.924C137.862 22.924 135.919 20.8992 135.919 18.2096C135.919 15.4746 137.832 13.4951 140.451 13.4951C143.041 13.4951 144.999 15.5199 144.999 18.2096C145.029 19.4637 144.562 20.6726 143.704 21.5792C142.861 22.4556 141.671 22.9391 140.451 22.924ZM140.451 15.0968C138.855 15.0968 137.696 16.4114 137.696 18.2096C137.696 19.9926 138.886 21.3223 140.451 21.3223C142.017 21.3223 143.237 19.9775 143.237 18.2096C143.237 16.4417 142.047 15.0817 140.451 15.0968Z" fill="black"/>
<path d="M35.9109 35.2541C38.0339 36.0701 40.2925 36.4781 42.5661 36.463C47.4897 36.4025 52.1724 34.3475 55.5753 30.7663C57.1864 29.0589 58.4512 27.0492 59.2944 24.8582C60.1225 22.6822 60.5592 20.3703 60.5441 18.0282C60.5291 15.5954 60.0171 13.1778 59.0384 10.9414C58.0748 8.68998 56.6594 6.66518 54.8827 4.98792C51.4647 1.73918 46.9175 -0.0589658 42.2198 0.00147595C37.2961 0.0619177 32.5983 2.11694 29.2105 5.69811C25.9733 9.12818 24.1815 13.6915 24.2417 18.406C24.2568 20.8539 24.7838 23.2716 25.7625 25.5079C25.9582 25.9461 26.154 26.3843 26.3798 26.7923L26.4099 26.8527C26.6659 27.3363 26.8918 27.85 27.0875 28.3638C27.3886 29.1948 27.5543 30.0561 27.5844 30.9477C27.6295 31.8543 27.5392 32.7609 27.3284 33.6373C27.1025 34.5439 26.7412 35.4203 26.2594 36.2212C25.627 37.294 24.7687 38.2309 23.7599 38.9713C22.7812 39.6815 21.682 40.1952 20.5076 40.4823C19.3331 40.7694 18.1135 40.8299 16.924 40.6637C15.6894 40.4975 14.5149 40.0744 13.4609 39.4246C12.3919 38.79 11.4583 37.9287 10.7206 36.9163C9.29014 34.9519 8.68786 32.4889 9.03417 30.0713C9.21485 28.8322 9.63645 27.6385 10.2839 26.5656C11.2325 24.9639 12.6328 23.6946 14.3192 22.9089C14.9817 22.6067 15.6743 22.38 16.382 22.2289L16.4422 22.2138L15.8249 19.1766L15.7646 19.1917C14.8161 19.3882 13.8976 19.6904 13.0243 20.0984C9.21485 21.8965 6.57988 25.4777 5.9776 29.6482C5.52589 32.8516 6.32391 36.1003 8.22109 38.7144C9.1998 40.0744 10.4345 41.2228 11.8799 42.0689C13.2953 42.9453 14.8913 43.5044 16.5325 43.7311C17.1047 43.8066 17.6919 43.852 18.2792 43.852C18.6857 43.852 19.0922 43.8369 19.4988 43.7915C20.086 43.7311 20.6732 43.6404 21.2604 43.4893C22.8113 43.1116 24.2869 42.4316 25.5818 41.4947C26.9369 40.5126 28.0813 39.2735 28.9395 37.8229C30.2193 35.7074 30.8367 33.2444 30.7162 30.7663C30.6711 29.5575 30.4301 28.3638 30.0085 27.2305C29.7676 26.611 29.4966 25.9914 29.1955 25.4021L29.1654 25.3417C28.9847 24.9941 28.804 24.6315 28.6384 24.2537C27.8253 22.3951 27.3886 20.4006 27.3736 18.3758C27.3284 14.4471 28.804 10.6392 31.5142 7.79846C34.3299 4.83682 38.1995 3.12934 42.28 3.08401C46.1948 3.03867 49.9892 4.5195 52.8199 7.23938C54.2955 8.62954 55.4548 10.3068 56.2529 12.1654C57.0659 14.0089 57.4875 15.9883 57.5026 18.0131C57.5177 19.9624 57.1563 21.8965 56.4637 23.7249C55.756 25.5381 54.7171 27.2154 53.377 28.6358C50.5613 31.5974 46.6917 33.2898 42.6112 33.3502C40.6689 33.3653 38.7416 33.0027 36.9348 32.2925C36.7541 32.2169 36.5583 32.1414 36.3777 32.0507V32.1263" fill="black"/>
<path d="M53.7685 13.223C53.1059 11.6818 52.1423 10.2916 50.9227 9.14321C48.5888 6.92198 45.472 5.68292 42.2499 5.72825C38.8771 5.77358 35.6549 7.17885 33.3361 9.62675C31.1227 11.9689 29.9031 15.0967 29.9332 18.3304C29.9483 20.0076 30.2946 21.6698 30.9722 23.211C31.1077 23.5284 31.2583 23.8306 31.4239 24.1328L31.454 24.1932C32.508 26.1727 33.1103 28.3486 33.2307 30.5849C33.3813 33.5768 32.6284 36.5535 31.0776 39.1223C30.0386 40.86 28.6685 42.3711 27.0272 43.5648C25.4463 44.7132 23.6695 45.5291 21.7874 45.9976C19.8902 46.4509 17.9328 46.5415 16.0055 46.2847C14.018 46.0127 12.1058 45.3327 10.4043 44.275C8.67278 43.2324 7.16708 41.8573 5.97758 40.2103C3.6588 37.0371 2.6801 33.0781 3.25227 29.1797C3.52329 27.17 4.21591 25.2509 5.2699 23.5132C6.80571 20.9445 9.07932 18.8894 11.7745 17.6202C12.8737 17.1064 14.018 16.7438 15.2075 16.502L15.2677 16.4869L14.6655 13.4346L14.6052 13.4648C13.1748 13.7519 11.7896 14.2052 10.4796 14.8096C7.21225 16.3358 4.47188 18.8139 2.61987 21.9266C1.35509 24.0119 0.526952 26.354 0.180641 28.7717C-0.481866 33.4559 0.692579 38.2006 3.46306 42.0235C4.89348 44.003 6.70032 45.6803 8.79324 46.9344C10.8711 48.2037 13.1899 49.0348 15.599 49.3521C16.4422 49.4579 17.3004 49.5183 18.1436 49.5183C18.7459 49.5183 19.3331 49.4881 19.9354 49.4276C20.8087 49.337 21.667 49.201 22.5101 48.9894C24.7838 48.4304 26.9369 47.4331 28.8341 46.058C30.8216 44.6225 32.4779 42.8093 33.7276 40.6938C35.2935 38.0948 36.1819 35.1483 36.3325 32.1111C36.3626 31.5369 36.3626 30.9627 36.3325 30.3885C36.3023 29.9352 36.2722 29.4668 36.212 29.0134C36.7239 29.3156 37.266 29.5725 37.8231 29.7992C39.3137 30.3885 40.9098 30.6907 42.5058 30.6756C45.8786 30.6303 49.1008 29.225 51.4196 26.762C52.5187 25.5834 53.377 24.2083 53.9642 22.7124C54.5364 21.2165 54.8224 19.645 54.8224 18.0433C54.8074 16.4113 54.446 14.7643 53.7685 13.223ZM42.4305 27.6082C41.241 27.6082 40.0515 27.3966 38.9524 26.9433C37.8231 26.49 36.7992 25.8251 35.9109 24.9941C35.2333 24.3594 34.6611 23.6341 34.2245 22.8182L34.2094 22.803L34.1191 22.6368C33.9986 22.4102 33.8932 22.1835 33.7878 21.9569C33.2759 20.8085 33.0199 19.5694 33.0049 18.3152C32.9748 15.8674 33.8932 13.5101 35.5796 11.7422C37.3262 9.91384 39.7353 8.85611 42.2499 8.82589C44.6891 8.79567 47.038 9.71741 48.7846 11.4098C49.688 12.2711 50.4258 13.3137 50.9076 14.4621C51.4196 15.5954 51.6755 16.8344 51.6906 18.0735C51.6906 19.2974 51.4798 20.4912 51.0431 21.6395C50.6065 22.7728 49.959 23.8003 49.1309 24.6767C47.3843 26.5051 44.9902 27.5628 42.4607 27.5931H42.4305V27.6082Z" fill="black"/>
</svg>
