<svg xmlns="http://www.w3.org/2000/svg" xmlns:xlink="http://www.w3.org/1999/xlink" width="641" height="504" viewBox="0 0 641 504">
    <defs>
        <path id="a" d="M22.996 17.203l514.976-.016-.025 661.983-514.975.017z"/>
    </defs>
    <g fill="none" fill-rule="evenodd">
        <g transform="rotate(94 346.72 317.123)">
            <mask id="b" fill="#fff">
                <use xlink:href="#a"/>
            </mask>
            <path fill="#E49068" fill-opacity=".498" fill-rule="nonzero" d="M152.681 263.725c36.747 71.521-10.128 153.879-65.304 215.894-18.468 20.797-38.855 42.599-41.416 68.683-3.087 31.908 21.988 61.237 51.732 80.411 54.254 34.942 128.35 45.745 192.92 28.112 55.798-15.232 102.71-49.638 158.997-63.508 94.126-23.23 191.405-13.404 165.181-61.145C587.043 481.626 573.593 6.74 485.472 12.775 423.123 17.04 368.06 37.578 307.556 47.084c-39.439 6.196-79.066 1.622-117.77 12.004-47.666 12.847-96.686 42.614-99.322 89.495-2.485 44.626 42.733 77.2 62.217 115.142z" mask="url(#b)" opacity=".655"/>
        </g>
        <path fill="#EA9185" d="M412.765 314.988c8.95-13.076-.465-23.399-15.95-43.22-17.49-22.388-2.19-17.369 18.977-11.187 40.343 11.787-26.999-43.808-18.762-64.16 8.236-20.351 34.77 13.253 18.762-35.735-16.011-48.989-5.132-61.762 9.257-64.6 14.388-2.839 6.022 66.021 19.967 44.278 13.945-21.745 45.097-11.623 16.871 31.536-28.224 43.158-16.871 87.388-6.762 72.459 1.114-1.644 18.27-61.081 40.136-39.14 21.87 21.944-24.487 60.673-43.356 109.081-18.868 48.406-13.067 46.269-8.27 43.492 4.8-2.779 29.595-65.926 42.832-32.346 8.794 22.309-10.204 17.695-40.431 91.353 0 0-.94 93.176-20.987-4.178-.845-4.092-1.664-8.005-2.466-11.752-20.493-51.37-27.552-62.347-38.195-90.254-9.66-25.33 12.044-16.254 28.377 4.373"/>
        <path fill="#EFA79E" d="M400.027 313.036a.862.862 0 0 1 1.095.493c.156.411 13.785 36.483 20.533 50.572-.054-.915-.11-1.822-.148-2.762-.754-18.115 1.45-36.57 6.551-55.024-6.1-3.4-17.072-30.742-18.354-33.975a.814.814 0 0 1 .49-1.065.856.856 0 0 1 1.102.475c4.643 11.723 13.117 30.222 17.228 32.953a207.059 207.059 0 0 1 2.63-8.483c.006-.02.01-.041.018-.057.293-.876.581-1.755.889-2.631 9.26-26.497 4.062-34.68-.967-42.596-3.694-5.817-7.491-11.81-5.79-24.274-14.537-8.297-20.523-24.805-20.776-25.519a.822.822 0 0 1 .529-1.05.858.858 0 0 1 1.082.514c.061.166 5.869 16.17 19.433 24.288.244-1.452.561-2.986.957-4.613 5.695-23.39 2.646-38.672-1.572-59.823-2.337-11.698-4.983-24.957-6.692-42.252-.066-.681.447-1.287 1.151-1.352.695-.072 1.328.433 1.394 1.115 1.7 17.178 4.331 30.375 6.654 42.019 2.212 11.073 4.1 20.562 4.615 30.437 16.378-17.052 25.186-42.457 25.276-42.721a.859.859 0 0 1 1.078-.525.822.822 0 0 1 .54 1.044c-.095.273-9.422 27.178-26.8 44.492.254 8.559-.569 17.518-3.154 28.137-3.888 15.962.066 22.19 4.254 28.78 5.335 8.406 10.854 17.095 1.208 44.694l-.048.147c23.132-12.458 47.198-74.188 47.447-74.836a.863.863 0 0 1 1.099-.484.82.82 0 0 1 .5 1.063c-1.054 2.727-25.591 65.653-49.808 76.487-13.557 40.382-10.457 73.257-5.46 93.739 6.923-19.004 39.934-59.745 41.447-61.604a.87.87 0 0 1 1.196-.136c.37.282.433.8.14 1.158-.387.477-37.823 46.673-41.977 63.716 2.08 7.734 4.343 13.412 5.818 16.7.28.629-.018 1.358-.665 1.632-.163.07-.337.103-.507.103-.495 0-.963-.279-1.173-.749-4.008-8.943-8.858-23.337-10.527-42.85-5.769-10.19-21.74-52.46-22.444-54.317a.822.822 0 0 1 .508-1.06"/>
        <path fill="#121214" d="M268.414 358.522l149.701 4.91-3.71-89.191H270.468l-2.054 84.281zm-.278 11.392l-5.986-.147.131-5.447-158.777-5.21 3.312-90.385 5.986.221-3.093 84.37 152.72 5.012 2.194-90.083h155.525l4.22 101.393-156.1-5.123-.132 5.4z"/>
        <path fill="#A5AFCE" d="M69.647 260.878l396.364 6.649 4.194 71.444-408.102-8.307 7.544-69.786"/>
        <path fill="#8C97B6" d="M465.742 284.453l-399.204-7.425.027-1.416 399.204 7.42-.027 1.421M464.264 303.608L65.06 296.184l.027-1.417 399.204 7.422-.027 1.42M464.264 324.237L65.06 316.812l.027-1.416 399.204 7.421-.027 1.42"/>
        <path fill="#D77971" d="M240.34 207.46s1.977 17.815 1.45 19.4c-.18.544-9.645 0-9.645 0s5.965 27.835 14.884 29.325c8.922 1.491 24.286-3.48 24.783-6.96.495-3.48 1.735-20.882 1.735-20.882s-2.416-.235-7.436-1.491c-.989-.25-3.22-29.334-3.22-29.334l-22.552 9.943"/>
        <path fill="#E6BF56" d="M225.84 225.989c-4.744-.165-9.457-1.226-13.882.494-7.621 2.958-12.22 10.834-14.43 18.683-2.209 7.849-2.63 16.125-5.034 23.918-1.462 4.729-3.635 9.21-5.382 13.843a81.69 81.69 0 0 0-5.205 25.853c-.145 3.889.075 8.044 2.314 11.232 1.519 2.17 3.923 3.7 6.535 4.176 5.157.927 10.086-2.118 14.586-4.798 8.574-5.106 18.006-9.413 27.99-9.697 10.284-.293 20.149 3.688 29.653 7.621 10.044 4.155 20.875 9.046 25.792 18.71 2.263-2 2.11-5.545 1.417-8.477-.69-2.937-1.73-6.054-.652-8.869 1.651 5.699 7.403 9.946 13.356 9.86 5.956-.09 11.578-4.502 13.058-10.252 1.522-5.907-1.015-11.985-2.341-17.941-2.88-12.92-.003-26.347-.021-39.583-.003-1.95-.48-5.626-1.093-9.536-1.432-9.123-8.123-16.553-17.069-18.952-8.561-2.298-18.894-4.98-26.014-4.774-1.234 3.76-3.26 7.708-5.602 10.903-2.96 4.047-9.048 10.741-13.59 8.587-1.527-.723-5.016-4.58-6.09-5.883-3.24-3.937-5.626-14.343-6.088-14.433-2.459-.49-8.207-.547-12.209-.685"/>
        <path fill="#121214" d="M274.282 190.927c-3.289 13.02-16.544 20.917-29.607 17.637-13.065-3.275-20.99-16.484-17.7-29.504 3.288-13.018 16.544-20.914 29.606-17.637 13.065 3.277 20.99 16.487 17.7 29.504"/>
        <path fill="#121214" d="M265.681 162.249c-2.094 8.283-10.53 13.308-18.842 11.222-8.314-2.084-13.357-10.492-11.263-18.775 2.091-8.286 10.528-13.309 18.842-11.225 8.312 2.087 13.354 10.492 11.263 18.778"/>
        <path fill="#FDE7D9" d="M207.049 260.245s25.148 3.367 28.986 3.578c3.837.212 12.787 1.684 13.639 5.055.428 0 8.741-4.635 18.332-5.896 9.59-1.265 21.739-5.051 21.739-5.051l3.024 3.658-36.059 15.073-6.184 3.37s-8.738-2.95-9.376-2.95c-.639 0-38.363-7.996-38.363-7.996l-.214-3.368 4.476-5.473"/>
        <path fill="#D66E60" d="M229.574 188.12c-.959 5.637-.006 11.423 1.473 16.95 1.31 4.882 11.756 26.374 25.93 23.042 14.045-3.305 18.075-31.443 16.1-40.791-1.894-8.95-10.456-21.022-20.933-20.74-10.96.296-20.88 11.601-22.57 21.54"/>
        <path fill="#D66E60" d="M228.972 191.986c-.937-.457-2.146-.526-3.003.057-1.1.755-1.26 2.239-1.209 3.526a23.603 23.603 0 0 0 3.19 10.908c.85 1.462 2.234 3.021 3.98 2.81 1.875-.227 2.773-2.309 3.04-4.088.682-4.53-1.257-10.908-5.998-13.213"/>
        <path fill="#B14331" d="M204.144 263.463l37.695 8.176c.79.171 1.5.667 1.822 1.403.53 1.223 1.938 3.037 5.593 2.895 3.775-.142 5.352-2.363 5.966-3.737a2.528 2.528 0 0 1 1.637-1.418l35.686-9.812c1.645-.452 3.258.818 3.18 2.507l-2.083 46.573a2.477 2.477 0 0 1-1.864 2.296c-7.328 1.884-34.8 8.944-35.348 8.944-.56 0-41.72-7.52-51.223-9.255a2.479 2.479 0 0 1-2.033-2.33l-2.075-43.693c-.078-1.634 1.431-2.898 3.047-2.55"/>
        <path fill="#121214" d="M251.804 193.566c-7.877 4.38-16.726 6.683-25.573 8.373.385-3.149.767-6.294 1.151-9.44.54-4.446 1.13-9.04 3.413-12.888 1.315-2.225 3.146-4.103 5.098-5.79 4.767-4.133 10.501-9.703 16.787-10.171 5.401-.404 16.873 4.996 16.418 11.983-.46 7.099-11.878 14.918-17.294 17.933"/>
        <path fill="#D66E60" d="M197.3 278.582c-.375-.032-.774-.057-1.103.118-.402.209-.585.654-.704 1.075a8.128 8.128 0 0 0-.314 2.229c0 .381.037.792.293 1.084.207.235.524.359.829.462 2.922.98 6.106.935 9.207.878.515-.009 1.045-.02 1.524-.198 1.09-.41 1.663-1.673 1.386-2.748-.844-3.259-8.382-2.67-11.118-2.9"/>
        <path fill="#D77971" d="M187.914 302.57c-1.298 1.654-1.76 3.862-1.563 5.959.194 2.096.996 4.095 2.007 5.94.373.68.805 1.376 1.472 1.77.602.356 1.328.43 2.024.492 1.887.17 3.876.327 5.6-.462 1.66-.757 2.845-2.3 3.65-3.94 2.177-4.425 1.915-9.962-.661-14.164-.418-.677-.917-1.345-1.637-1.678-3.12-1.451-9.17 3.89-10.892 6.083"/>
        <path fill="#D66E60" d="M194.732 283.367c-1.336.535-2.462 1.852-2.27 3.254.086.644.44 1.25.425 1.9-.021.961-.836 1.84-.632 2.778.108.503.494.906.689 1.385.398.967-.036 2.044-.18 3.079-.249 1.778.437 3.663 1.782 4.886 1.348 1.22 3.312 1.747 5.103 1.361 2.004-.432 3.675-1.89 5.693-2.22 1.24-.202 2.498.039 3.75.142 3.36.27 6.801-.48 9.724-2.132.749-.42 1.552-1.058 1.498-1.905-.057-.953-1.123-1.47-2.043-1.779a63.995 63.995 0 0 0-15.977-3.137c-.429-.477-.084-1.297.497-1.585.578-.288 1.27-.209 1.913-.115 2.561.353 5.122.709 7.682 1.062 1.486.206 3.426.167 3.956-1.209.348-.894-.185-1.928-.979-2.484-.79-.556-1.785-.744-2.74-.915-3.297-.596-6.595-1.193-9.895-1.787-1.312-.238-2.678-.72-3.962-.915-1.462-.22-2.663.336-4.034.336M290.891 274.99c-.798.18-1.645.419-2.152 1.019-.953 1.12-.102 2.906 1.268 3.552 1.373.646 3 .494 4.528.325 1.481-.167 2.972-.33 4.404-.724 1.262-.345 2.66-1.111 2.7-2.329.13-4.247-8.632-2.323-10.748-1.843"/>
        <path fill="#121214" d="M304.926 431.364c1.053 2.003 3.414 4.861 4.987 6.494 4.565 4.742 8.725 4.316 15.31 4.185 2.546-.05 5.136-.136 7.54-.965 2.402-.83 4.633-2.533 5.479-4.93 1.154-3.279-.576-6.979-3.133-9.334-2.56-2.358-5.835-3.747-8.862-5.468-4.779-2.72-10.086-5.389-13.516-9.684-2.901-3.632-6.636-8.905-11.273-9.307-4.949-.433-9.776 5.086-8.473 9.698.78 2.758 4.752 5.99 6.087 8.703 1.706 3.466 4.056 7.187 5.854 10.608"/>
        <path fill="#2A2249" d="M437.92 455.376l-16.179-89.552-321.617-6.247-14.598 84.686-5.68-.982 15.438-89.575 331.289 6.43 17.017 94.21-5.67 1.03"/>
        <path fill="#2A2249" d="M488.181 489.265l-18.817-117.63L66.07 366.89 42.582 471.198l-5.616-1.263 24.511-108.862 412.803 4.86 19.583 122.422-5.682.91"/>
        <path fill="#D66E60" d="M285.351 283.792c-1.018.072-2.073.155-2.974.639-.897.484-1.602 1.491-1.403 2.493.161.819.888 1.439 1.683 1.709.791.27 1.648.254 2.486.226 4.173-.133 8.336-.465 12.478-.99.757-.095 1.59-.238 2.07-.827 1.841-2.248-2.2-3.823-3.787-3.982-3.35-.34-7.19.493-10.553.732"/>
        <path fill="#A5AFCE" d="M50.274 343.392v26.524l432.168 2.945s11.522-22.592 7.68-22.592c-3.84 0-439.848-6.877-439.848-6.877"/>
        <path fill="#D66E60" d="M278.128 289.867c-1.225.067-2.75.378-3.056 1.623-.302 1.24.926 2.313 2.09 2.71 1.383.47 2.86.516 4.315.54 4.293.069 8.588.007 12.875-.19.87-.043 1.757-.089 2.565-.43.808-.342 1.53-1.03 1.698-1.925.852-4.585-6.45-3.128-8.55-3.008-3.978.225-7.96.452-11.937.68"/>
        <path fill="#D77971" d="M294.833 308.741c-.415 2.308-.829 4.67-.412 6.981.418 2.304 1.852 4.57 4.07 5.301 1.801.599 3.776.1 5.533-.616 2.527-1.022 5.016-2.66 6.018-5.2 1.063-2.712.185-5.82-1.226-8.366-1.41-2.55-3.329-4.804-4.554-7.444-.735-1.585-1.234-3.327-2.386-4.641-1.152-1.311-3.273-2.013-4.646-.931-.984.778-1.23 2.166-1.225 3.427.018 3.99-.461 7.547-1.172 11.49"/>
        <path fill="#D66E60" d="M285.594 296.773c-1.25.075-2.791.352-3.123 1.445-.236.783.355 1.615 1.141 2 .786.39 1.717.431 2.613.44a52.555 52.555 0 0 0 8.756-.627c.804-.128 1.706-.34 2.077-.994.383-.673-.028-1.544-.714-1.98-2.437-1.55-8.02-.446-10.75-.284"/>
        <path fill="#47498C" d="M289.14 335.766s5.82 12.008-1.69 14.567c-7.512 2.56-19.741-7.244-19.741-7.244s-17.169-23.664-16.31-24.087c.858-.43 8.155-2.133 8.155-2.133l14.163 3.836s10.895-1.64 15.424 15.06"/>
        <path fill="#D66E60" d="M235.103 431.491l.377 35.422s2.271 5.652 6.432 4.521c4.159-1.131 9.456-42.58 9.456-42.58l-16.265 2.637"/>
        <path fill="#47498C" d="M227.029 326.935s-4.409 8.553-3.673 28.31c.793 21.153 7.942 84.049 7.942 84.049l19.353 4.294s11.067-93.086 11.067-105.49c0-12.404-8.254-37.398-34.69-11.163"/>
        <path fill="#D66E60" d="M301.185 420.418c2.447 4.046 5.092 8.11 8.866 10.968 3.774 2.86 8.929 4.335 13.354 2.647 1.007-.383 1.982-.944 2.616-1.812 1.241-1.7.835-4.163-.347-5.901-1.182-1.738-2.986-2.939-4.686-4.178-11.29-8.23-19.824-20.145-23.959-33.456-.51-1.638-.969-3.328-1.96-4.73-.993-1.396-2.661-2.464-4.361-2.219-.839.121-1.609.546-2.278 1.062-6.375 4.893-1.188 10.962 1.36 16.362 3.43 7.274 7.24 14.37 11.395 21.257M300.592 285.715c1.185 1.023 1.91 2.423 2.517 3.827a37.02 37.02 0 0 1 2.896 11.153c.105 1.093.154 2.23-.278 3.25-.851 2.01-3.519 3.001-5.752 2.467-2.226-.535-3.953-2.31-4.82-4.316-.867-2.008-.978-4.234-.876-6.399.105-2.165.413-4.324.346-6.495-.028-.892-.118-1.805.083-2.677.66-2.845 4.043-2.403 5.884-.81"/>
        <path fill="#595694" d="M211.54 305.678s-17.786 11.89-17.786 19.027c0 7.137-1.172 26.802 7.476 28.591 9.086 1.885 22.329.902 22.329.902s-1.443-16.172 5.287-19.98c6.729-3.806 12.978-6.183 12.978-6.183l43.338 65.455 13.522-8.175s-12.154-41.583-15.519-50.144c-3.364-8.564-13.941-36.152-21.633-38.531-7.689-2.377-20.187-9.514-49.992 9.038"/>
        <path fill="#D66E60" d="M294.994 283.054c.557 1.446 1.853 2.548 3.318 2.83.266.05.549.075.8-.034.585-.25.712-1.048.75-1.71.135-2.39.234-4.782.297-7.17.006-.206.012-.411-.052-.604-.196-.595-.915-.773-1.515-.752-1.215.042-4.022.827-4.32 2.322-.118.586.223 1.513.258 2.12.054 1.014.095 2.044.464 2.998"/>
        <path fill="#121214" d="M266.185 186.367c1.483 4.227 3.517 8.525 7.25 11.151 1.718-3.29 3.377-6.66 4.137-10.273.76-3.61.547-7.533-1.32-10.747-.82-1.409-1.931-2.641-3.148-3.754-1.916-1.747-4.116-3.214-6.528-4.236-4.625-1.961-5.636 2.805-4.335 5.95 1.604 3.875 2.543 7.916 3.944 11.909M225.721 183.183c-.592 1.858-1.015 3.8-.965 5.754.073 2.972 1.22 5.793 2.35 8.533.543 1.31 1.315 2.812 2.69 2.981.778.094 1.53-.29 2.216-.68a43.086 43.086 0 0 0 12.05-10.224c3.192-3.917 5.782-8.671 5.826-13.782.062-6.823-5.178-13.676-11.571-9.27-5.839 4.024-10.395 9.766-12.596 16.688"/>
        <path fill="#D66E60" d="M275.24 190.51c.937-.454 2.149-.524 3.002.063 1.101.752 1.26 2.236 1.212 3.526a23.655 23.655 0 0 1-3.189 10.905c-.85 1.462-2.236 3.018-3.982 2.81-1.875-.227-2.77-2.309-3.04-4.088-.681-4.533 1.257-10.908 5.998-13.217M232.093 481.81c-.832 2.911-1.802 5.93-1.279 8.912.227 1.293.806 2.615 1.937 3.279.779.458 1.716.54 2.618.614 1.693.135 3.382.27 5.075.409 2.844.229 5.982.376 8.24-1.367 1.98-1.525 2.77-4.205 2.676-6.703-.097-2.497-.949-4.895-1.713-7.275a107.082 107.082 0 0 1-4.331-19.94c-.335-2.79-.64-5.795-2.495-7.905-6.465-7.35-6.8 4.578-6.985 7.819a102.092 102.092 0 0 1-3.743 22.156"/>
        <path fill="#121214" d="M245.379 492.73c.952-.415 1.864-.956 2.53-1.727 1.72-2.005 1.351-4.93.89-7.491l-1.638-9.067c5.157 6.24 5.956 14.784 5.618 22.73-.08 1.865-.29 3.908-1.685 5.209-1.391 1.298-3.524 1.447-5.465 1.52-3.497.131-7.043.245-10.454-.5-3.415-.748-6.735-2.46-8.627-5.284-1.645-2.452-2.06-5.53-1.648-8.415.41-2.888 1.587-5.626 2.933-8.24 1.492-2.896 3.152-5.903 5.267-8.408 1.028 5.176-4.709 10.259-2.93 15.295 1.923 5.442 10.522 6.412 15.209 4.378"/>
        <path fill="#F9CC7E" d="M12.891 461.047c.76-3.476.012-7.074-.187-10.63-.195-3.55.336-7.488 2.983-9.87 1.265-1.142 3.164-1.808 4.702-1.067 1.507.729 2.145 2.495 2.647 4.092 1.172 3.737 2.342 7.47 3.511 11.207 2.35-1.105 2.06-4.605 3.642-6.661 2.125-2.762 6.912-1.636 8.886 1.238 1.974 2.872 1.953 6.612 1.858 10.094 2.624-3.9 6.66-6.828 11.183-8.123 3.443 4.413 4.823 10.366 3.672 15.842 1.119-3.565 6.592-3.941 9.278-1.342 2.689 2.596 3.137 6.727 2.893 10.455-.047.761-.15 1.594-.709 2.118-.626.59-1.59.578-2.451.53-16.942-.942-38.685 1.485-54.959-3.102-5.535-1.564-11.334-4.593-9.491-11.548 2.074-7.814 13.19-4.525 12.542-3.233M462.03 479.107c.454-3.515-.625-7.02-1.146-10.526-.52-3.507-.34-7.462 2.115-10.06 1.179-1.243 3.035-2.072 4.65-1.473 1.588.59 2.394 2.285 3.044 3.826l4.557 10.81c2.27-1.308 1.663-4.753 3.074-6.935 1.898-2.928 6.83-2.234 9.084.443 2.25 2.672 2.568 6.388 2.785 9.85 2.298-4.102 6.106-7.367 10.555-9.05 3.874 4.074 5.805 9.86 5.137 15.394.806-3.636 6.298-4.495 9.243-2.155 2.95 2.338 3.778 6.397 3.868 10.116.018.762-.012 1.594-.526 2.167-.578.638-1.555.714-2.427.744-17.184.564-38.916 4.9-55.754 1.786-5.73-1.06-11.86-3.554-10.624-10.618 1.386-7.935 12.904-5.659 12.365-4.319M72.828 439.104c2.99-1.425 6.929-.68 9.128 1.733-.045-3.091 3.822-5.194 6.95-4.475 3.128.717 5.396 3.337 6.89 6.076.496.904 1.01 1.913 1.989 2.314.907.37 1.953.099 2.86-.277 4.898-2.034 9.799-7.082 14.492-4.637 2.656 1.378 3.891 4.836 6.818 5.55 1.62.39 3.296-.196 4.912-.6 2.89-.726 6.055-.859 8.79.294 2.736 1.153 4.912 3.8 4.81 6.671-4.378 2.268-9.606 2.225-14.58 2.103a1468.902 1468.902 0 0 1-45.812-1.834c-6.884-.382-18.755-7.429-7.247-12.918"/>
        <path fill="#F9CC7E" d="M402.563 444.996c2.99-1.424 6.929-.676 9.128 1.736-.045-3.09 3.822-5.194 6.95-4.477 3.128.716 5.396 3.336 6.89 6.077.493.905 1.01 1.913 1.989 2.311.904.37 1.953.101 2.86-.274 4.898-2.034 9.799-7.08 14.492-4.64 2.656 1.382 3.891 4.84 6.818 5.55 1.622.395 3.296-.194 4.912-.598 2.89-.728 6.055-.861 8.792.294 2.734 1.153 4.91 3.796 4.808 6.667-4.378 2.268-9.61 2.23-14.58 2.109a1478.195 1478.195 0 0 1-45.812-1.837c-6.884-.384-18.755-7.427-7.247-12.918"/>
        <g fill="#D1DDE9">
            <path d="M454.89 66.555c1.168.854 1.462 2.548.652 3.784-.807 1.239-2.413 1.545-3.58.691l-10.853-7.937c-1.17-.854-1.46-2.548-.652-3.784.813-1.236 2.413-1.545 3.583-.691l10.85 7.937"/>
            <path d="M454.071 60.778a2.61 2.61 0 0 0-.674-3.66 2.68 2.68 0 0 0-3.703.665l-7.767 11.09a2.613 2.613 0 0 0 .674 3.66 2.688 2.688 0 0 0 3.708-.668l7.762-11.087M470.888 27.906c1.172.856 1.464 2.55.654 3.787-.81 1.236-2.413 1.542-3.585.688l-10.845-7.938c-1.172-.853-1.464-2.548-.654-3.784.808-1.233 2.413-1.545 3.582-.689l10.848 7.936"/>
            <path d="M470.072 22.129a2.609 2.609 0 0 0-.677-3.661 2.682 2.682 0 0 0-3.702.666l-7.764 11.09a2.61 2.61 0 0 0 .673 3.66c1.21.826 2.868.53 3.706-.668l7.764-11.087"/>
        </g>
    </g>
</svg>
