<svg xmlns="http://www.w3.org/2000/svg" width="732" height="100" viewBox="0 0 732 100">
    <path fill="#FFF" fill-rule="nonzero" d="M46.1 44.1v-7.4c0-12.2-.6-19.9-1.8-23.1-1.333-3.667-3.233-5.933-5.7-6.8-1.4-.533-3.1-.8-5.1-.8-2 0-3.717.267-5.15.8-1.433.533-2.617 1.467-3.55 2.8a19.667 19.667 0 0 0-2.25 4.2c-.567 1.467-1.017 3.533-1.35 6.2-.4 3.867-.6 9.567-.6 17.1v7.2c0 8.133.317 13.917.95 17.35.633 3.433 1.417 5.883 2.35 7.35 2.067 3.267 5.267 4.9 9.6 4.9 5.267 0 8.683-2.217 10.25-6.65 1.567-4.433 2.35-12.15 2.35-23.15zM33.3 76c-11.133 0-19.45-3.017-24.95-9.05C2.85 60.917.1 52.183.1 40.75s2.95-20.433 8.85-27C14.85 7.183 23.2 3.9 34 3.9s18.95 3.117 24.45 9.35S66.7 28.333 66.7 39.8s-2.783 20.367-8.35 26.7C52.783 72.833 44.433 76 33.3 76zm95.68-1h-22.8l-1.1-7.3c-1.067 2.667-2.65 4.717-4.75 6.15-2.1 1.433-5.217 2.15-9.35 2.15-10.333 0-15.5-5.567-15.5-16.7V29.2h-5.6v-1.8h24.2v34.3c0 4 .283 6.633.85 7.9.567 1.267 1.7 1.9 3.4 1.9s3.217-1.033 4.55-3.1c1.333-2.067 2-4.933 2-8.6V29.2h-4.6v-1.8h23.2v45.8h5.5V75zm6.68-14.3V29.2h-5.5v-1.8h5.5V14.5l18.6-4.6v17.5h13v1.8h-13v33.7c0 3.133.317 5.433.95 6.9.633 1.467 1.95 2.2 3.95 2.2s3.75-1 5.25-3 2.483-4.733 2.95-8.2l1.7.2c-.533 4.6-2 8.25-4.4 10.95-2.4 2.7-6.367 4.05-11.9 4.05s-9.767-1.1-12.7-3.3c-2.933-2.2-4.4-6.2-4.4-12zm72.06-6.4c0 7 .367 11.65 1.1 13.95.733 2.3 2.083 3.45 4.05 3.45 1.967 0 3.667-.867 5.1-2.6 1.433-1.733 2.15-4.3 2.15-7.7V39.6c0-2.867-.567-5.3-1.7-7.3s-2.8-3-5-3-3.7 1.467-4.5 4.4c-.8 2.933-1.2 8.067-1.2 15.4v5.2zm13.7 20.7l-1.1-7c-2.267 5.333-6.867 8-13.8 8-5.733 0-10.183-2.067-13.35-6.2s-4.75-10.3-4.75-18.5c0-16.6 6.6-24.9 19.8-24.9 5.867 0 9.733 1.633 11.6 4.9V1.8h-6.1V0h25v73.2h4.9V75h-22.2zm56.78-19.7v-8.5c0-6.467-.35-11.183-1.05-14.15-.7-2.967-2.317-4.45-4.85-4.45-1.467 0-2.65.417-3.55 1.25-.9.833-1.55 2.217-1.95 4.15-.6 3-.9 7.567-.9 13.7v7.8c0 7.267.217 11.633.65 13.1.433 1.467.883 2.667 1.35 3.6.733 1.6 2.167 2.4 4.3 2.4 2.6 0 4.3-1.5 5.1-4.5.6-2.133.9-6.933.9-14.4zM272 76c-8.333 0-14.633-2.133-18.9-6.4-4.267-4.267-6.4-10.383-6.4-18.35 0-7.967 2.283-14.1 6.85-18.4 4.567-4.3 10.983-6.45 19.25-6.45s14.433 1.983 18.5 5.95 6.1 10.017 6.1 18.15c0 17-8.467 25.5-25.4 25.5zm60.18-20.7v-8.5c0-6.467-.35-11.183-1.05-14.15-.7-2.967-2.317-4.45-4.85-4.45-1.467 0-2.65.417-3.55 1.25-.9.833-1.55 2.217-1.95 4.15-.6 3-.9 7.567-.9 13.7v7.8c0 7.267.217 11.633.65 13.1.433 1.467.883 2.667 1.35 3.6.733 1.6 2.167 2.4 4.3 2.4 2.6 0 4.3-1.5 5.1-4.5.6-2.133.9-6.933.9-14.4zm-6.2 20.7c-8.333 0-14.633-2.133-18.9-6.4-4.267-4.267-6.4-10.383-6.4-18.35 0-7.967 2.283-14.1 6.85-18.4 4.567-4.3 10.983-6.45 19.25-6.45s14.433 1.983 18.5 5.95 6.1 10.017 6.1 18.15c0 17-8.467 25.5-25.4 25.5zm61.28-45.8c-2.467 0-4.633 1.6-6.5 4.8-1.867 3.2-2.8 7-2.8 11.4v26.8h7.1V75h-31.2v-1.8h5.5v-44h-5.5v-1.8h24.1V37c.867-3.4 2.533-6.017 5-7.85 2.467-1.833 5.267-2.75 8.4-2.75s5.683.883 7.65 2.65c1.967 1.767 2.95 4.267 2.95 7.5 0 3.233-.733 5.717-2.2 7.45-1.467 1.733-3.717 2.6-6.75 2.6s-5.267-1-6.7-3c-1.433-2-1.617-4.767-.55-8.3h3.6c1.667-3.4.967-5.1-2.1-5.1zM421.82 5h52l1 20.8h-1.8c-2.467-7.2-5.317-12.1-8.55-14.7-3.233-2.6-8.05-3.9-14.45-3.9h-2.8v32.5h4.5c3.2 0 5.867-1.167 8-3.5s3.6-5.533 4.4-9.6h1.5v29.6h-1.7c-1.067-5-2.55-8.567-4.45-10.7-1.9-2.133-4.483-3.2-7.75-3.2h-4.5v30.5h12.4V75h-37.8v-2.2h5.9V7.2h-5.9V5zm76.28 46.5h2.9v-7.7c0-6.333-.35-10.583-1.05-12.75-.7-2.167-2.05-3.25-4.05-3.25-1.2 0-2.283.317-3.25.95-.967.633-1.45 1.5-1.45 2.6s.2 2.217.6 3.35h2.5c.533 1.4.8 3.083.8 5.05 0 1.967-.833 3.667-2.5 5.1-1.667 1.433-3.767 2.15-6.3 2.15-5.733 0-8.6-2.767-8.6-8.3 0-8.2 6.967-12.3 20.9-12.3 7.933 0 13.417 1.35 16.45 4.05 3.033 2.7 4.55 7.65 4.55 14.85v20.3c0 3.467.967 5.2 2.9 5.2 2.267 0 3.6-3.433 4-10.3l1.5.1c-.267 5.867-1.367 9.9-3.3 12.1-1.933 2.2-5.1 3.3-9.5 3.3-8 0-12.6-2.467-13.8-7.4-.867 2.533-2.167 4.4-3.9 5.6-1.733 1.2-4.267 1.8-7.6 1.8-9.867 0-14.8-4.033-14.8-12.1 0-4.733 1.883-7.983 5.65-9.75 3.767-1.767 9.55-2.65 17.35-2.65zm-4 12.3c0 3.467.183 5.7.55 6.7.367 1 1.067 1.5 2.1 1.5 1.033 0 2-.85 2.9-2.55.9-1.7 1.35-4.05 1.35-7.05v-9.3h-.7c-4.133 0-6.2 3.033-6.2 9.1v1.6zm34.58-36.4h24.1v9.2c2.2-6.8 7.05-10.2 14.55-10.2 7.5 0 12.05 3.6 13.65 10.8 2.333-7.2 7.233-10.8 14.7-10.8 9.8 0 14.7 5.567 14.7 16.7v30.1h5.6V75h-27.7v-1.8h3.5V40.7c0-5.067-.433-8.033-1.3-8.9-.4-.4-.933-.6-1.6-.6-1.933 0-3.633 1.3-5.1 3.9-1.467 2.6-2.2 5.9-2.2 9.9v28.2h3.6V75h-25.7v-1.8h3.5V40.7c0-5.067-.433-8.033-1.3-8.9-.4-.4-.933-.6-1.6-.6-1.867 0-3.55 1.417-5.05 4.25s-2.25 6.217-2.25 10.15v27.6h3.6V75h-27.7v-1.8h5.5v-44h-5.5v-1.8zm103.18-6.9c-3.533 0-6.05-.9-7.55-2.7-1.5-1.8-2.25-4.033-2.25-6.7s.817-4.867 2.45-6.6c1.633-1.733 4.117-2.6 7.45-2.6s5.867.783 7.6 2.35c1.733 1.567 2.6 3.8 2.6 6.7 0 2.9-.833 5.217-2.5 6.95-1.667 1.733-4.267 2.6-7.8 2.6zm-15.1 6.9h24.5v45.8h5.6V75h-29.7v-1.8h5.5v-44h-5.9v-1.8zM648.14 0h24.5v73.2h5.6V75h-29.7v-1.8h5.5V1.8h-5.9V0zm29.68 29.2v-1.8h29v1.8h-5.4l10.9 33.2 11.6-33.2h-6.7v-1.8h14.1v1.8h-5l-18.7 53.9c-2.2 6.267-4.667 10.65-7.4 13.15-2.733 2.5-6.067 3.75-10 3.75s-7.033-.9-9.3-2.7c-2.267-1.8-3.4-4.1-3.4-6.9 0-2.8.733-4.933 2.2-6.4 1.467-1.467 3.4-2.2 5.8-2.2 5.533 0 8.3 2.3 8.3 6.9 0 1-.2 2.2-.6 3.6h-3.5c-.533 1.533-.6 2.8-.2 3.8.4 1 1.3 1.5 2.7 1.5 2.733 0 5.167-1.35 7.3-4.05 2.133-2.7 4.167-6.817 6.1-12.35l2.2-6.2h-8.8l-17.1-45.8h-4.1z"/>
</svg>
