<svg xmlns="http://www.w3.org/2000/svg" width="27" height="24" viewBox="0 0 27 24">
    <g fill="none" fill-rule="evenodd" transform="translate(-10 -13)">
        <path fill="#B4B9C2" fill-rule="nonzero" d="M13 33h5v3h-5zM22 33h5v3h-5z"/>
        <path fill="#B4B9C2" fill-rule="nonzero" stroke="#D8DDE6" stroke-linecap="round" stroke-linejoin="round" d="M11 14h17v3H11z"/>
        <path stroke="#D8DDE6" stroke-linecap="round" stroke-linejoin="round" d="M11 36.5h25"/>
        <path fill="#B4B9C2" fill-rule="nonzero" d="M17 32h5v4h-5z"/>
        <path stroke="#B4B9C2" stroke-linecap="round" stroke-linejoin="round" d="M16 21.5h2M22 21.5h2M16 25.5h2M22 25.5h2"/>
        <circle cx="33" cy="27" r="3" fill="#B4B9C2" fill-rule="nonzero" stroke="#B4B9C2" stroke-linecap="round" stroke-linejoin="round"/>
        <path stroke="#B4B9C2" stroke-linecap="round" stroke-linejoin="round" d="M33.5 31v5M13 18.583V17h14v19H13V22.542"/>
        <path stroke="#D8DDE6" stroke-linecap="round" stroke-linejoin="round" d="M17 31h5v5h-5z"/>
        <path d="M0 0h47v47H0z"/>
    </g>
</svg>
