<svg xmlns="http://www.w3.org/2000/svg" width="21" height="18" viewBox="0 0 21 18">
    <g fill="none" fill-rule="evenodd" transform="translate(-7 -10)">
        <path fill="#B4B9C2" fill-rule="nonzero" d="M9.625 24.5h3.5v2.333h-3.5zM16.625 24.5h3.5v2.333h-3.5z"/>
        <path fill="#B4B9C2" fill-rule="nonzero" stroke="#D8DDE6" stroke-linecap="round" stroke-linejoin="round" d="M8.458 10.5h12.833v2.333H8.458z"/>
        <path stroke="#D8DDE6" stroke-linecap="round" stroke-linejoin="round" d="M8.458 26.833h18.667"/>
        <path fill="#B4B9C2" fill-rule="nonzero" d="M13.125 23.917h3.5v2.917h-3.5z"/>
        <path stroke="#D8DDE6" stroke-linecap="round" stroke-linejoin="round" d="M12.25 15.75h1.167M16.333 15.75H17.5M12.25 19.25h1.167M16.333 19.25H17.5"/>
        <circle cx="24.792" cy="20.417" r="2.333" fill="#B4B9C2" fill-rule="nonzero" stroke="#B4B9C2" stroke-linecap="round" stroke-linejoin="round"/>
        <path stroke="#D8DDE6" stroke-linecap="round" stroke-linejoin="round" d="M24.792 22.75v4.083M9.625 14v-1.167h10.5v14h-10.5v-9.916"/>
        <path stroke="#D8DDE6" stroke-linecap="round" stroke-linejoin="round" d="M13.125 22.75h3.5v4.083h-3.5z"/>
        <path d="M0 0h35v35H0z"/>
    </g>
</svg>
