<svg xmlns="http://www.w3.org/2000/svg" width="39" height="38" viewBox="0 0 39 38">
    <path fill="#6A6A77" fill-rule="evenodd" d="M0 18.678C0 8.363 8.667 0 19.358 0c10.69 0 19.358 8.363 19.358 18.678 0 10.316-8.667 18.679-19.358 18.679S0 28.994 0 18.678zm30.503-6.48a8.72 8.72 0 0 1-2.487.675 4.314 4.314 0 0 0 1.904-2.371 8.788 8.788 0 0 1-2.753 1.04 4.34 4.34 0 0 0-3.162-1.354c-2.392 0-4.332 1.92-4.332 4.287 0 .336.038.664.112.978a12.341 12.341 0 0 1-8.928-4.481 4.223 4.223 0 0 0-.586 2.155c0 1.488.765 2.801 1.927 3.57a4.366 4.366 0 0 1-1.963-.54v.054c0 2.077 1.494 3.81 3.475 4.205a4.43 4.43 0 0 1-1.142.15c-.28 0-.55-.027-.815-.08a4.329 4.329 0 0 0 4.046 2.98 8.748 8.748 0 0 1-5.38 1.832 9.3 9.3 0 0 1-1.033-.059 12.336 12.336 0 0 0 6.64 1.93c7.969 0 12.325-6.534 12.325-12.201l-.015-.555a8.603 8.603 0 0 0 2.167-2.216z"/>
</svg>
