<?xml version="1.0"?>
<svg xmlns="http://www.w3.org/2000/svg" height="512px" viewBox="-39 0 409 409.22609" width="512px"><g><path d="m167.230469 51.621094c-.367188 0-.734375-.007813-1.097657-.007813-27.058593-.003906-52.984374 10.867188-71.949218 30.167969-40.710938 41.382812-41.421875 107.550781-1.605469 149.796875 18.808594 19.984375 44.945313 31.4375 72.386719 31.722656.367187 0 .734375.007813 1.101562.007813 27.054688 0 52.980469-10.871094 71.945313-30.171875 19.707031-19.832031 30.839843-46.613281 31-74.574219.625-58.359375-45.03125-106.335938-101.78125-106.941406zm38.867187 110.910156h-33.070312v34.929688c0 3.3125-2.6875 6-6 6s-6-2.6875-6-6v-34.929688h-34.929688c-3.316406 0-6-2.6875-6-6 0-3.316406 2.683594-6 6-6h34.929688v-33.070312c0-3.316407 2.6875-6 6-6s6 2.683593 6 6v33.070312h33.070312c3.3125 0 6 2.683594 6 6 0 3.3125-2.6875 6-6 6zm0 0" data-original="#000000" class="active-path" data-old_color="#000000" fill="#FFFFFF"/><path d="m331.746094 158.980469c-2.75-41.847657-20.558594-81.285157-50.128906-111.023438-30.605469-30.703125-72.171876-47.957031-115.519532-47.957031-43.351562 0-84.917968 17.253906-115.523437 47.957031-29.570313 29.738281-47.375 69.175781-50.128907 111.023438-1.460937 22.894531 1.902344 45.84375 9.882813 67.351562 7.820313 21.429688 20.546875 41.628907 37.835937 60.042969l113.558594 120.957031c1.132813 1.207031 2.71875 1.894531 4.375 1.894531s3.238282-.6875 4.371094-1.894531l113.5625-120.957031c17.285156-18.414062 30.015625-38.613281 37.832031-60.042969 7.980469-21.507812 11.347657-44.457031 9.882813-67.351562zm-85.230469 82.621093c-21.207031 21.570313-50.195313 33.71875-80.445313 33.707032-.414062 0-.824218 0-1.238281-.007813-30.679687-.308593-59.90625-13.109375-80.941406-35.441406-44.304687-46.953125-43.515625-120.546875 1.785156-166.539063 21.507813-21.882812 51.003907-34.054687 81.683594-33.699218 63.363281.675781 114.347656 54.097656 113.652344 119.070312-.1875 31.089844-12.574219 60.863282-34.496094 82.910156zm0 0" data-original="#000000" class="active-path" data-old_color="#000000" fill="#FFFFFF"/></g> </svg>
