<svg xmlns="http://www.w3.org/2000/svg" width="20" height="19" viewBox="0 0 20 19">
    <path fill="#5F5D70" fill-rule="nonzero" d="M17.741 18.292V7.236c.876.302 1.477 1.1 1.544 2.061l.007.182v8.012c0 .44-.26.746-.663.794l-.113.007h-.775V7.236zM2.238 7.236v11.056h-.775c-.465 0-.776-.32-.776-.801V9.479c0-1.041.62-1.923 1.55-2.243zm13.953 3.845v6.41c0 .44-.26.746-.662.794l-.113.007H4.563c-.426 0-.722-.27-.768-.685l-.007-.116v-6.41c.564.437 1.32.742 2.093.794l.233.008h2.325v.8c0 .441.26.747.662.795l.113.007h1.55c.427 0 .723-.27.77-.685l.006-.116v-.801h2.325c.853 0 1.706-.32 2.326-.802zM12.315.667c2.103 0 3.769 1.654 3.871 3.796l.005.21v3.204c0 1.305-.926 2.316-2.162 2.398l-.164.005H11.54v-.8c0-.441-.26-.747-.662-.795l-.113-.007h-1.55c-.427 0-.723.27-.77.684l-.006.117v.801H6.114c-1.263 0-2.241-.956-2.32-2.235l-.006-.168V4.672c0-2.173 1.6-3.895 3.674-4l.202-.005h4.651z"/>
</svg>
