<svg xmlns="http://www.w3.org/2000/svg" width="30" height="23" viewBox="0 0 30 23">
    <g fill="#5F5D70" fill-rule="nonzero">
        <path d="M30 9.09c-.013-.252-.166-.72-1.054-1.019L5.256.131C4.04-.278 2.694.301 2.252 1.42L1.61 3.047.167 6.701C-.275 7.82.354 9.062 1.568 9.47l6.905 2.314a2.43 2.43 0 0 0 .564 2.019l-1.471 3.725a.474.474 0 0 1-.444.286h-4.31v-1.296c0-.715-.63-1.296-1.406-1.296H.47c-.26 0-.469.193-.469.432v6.914c0 .239.21.432.469.432h.937c.776 0 1.407-.582 1.407-1.296v-1.297h4.309c1.376 0 2.617-.8 3.087-1.993l1.44-3.647c.824-.106 1.573-.55 2.017-1.242l8.069 2.704c.263.088.533.13.799.13.806 0 1.571-.386 2-1.03l.926.31a1.01 1.01 0 0 0 .716-.029.889.889 0 0 0 .485-.487l1.283-3.25c.156-.395-.022-.828-.4-1.036l1.502-.646c.857-.368.965-.847.953-1.1zM1.874 21.705c0 .238-.21.432-.469.432H.938v-6.05h.468c.259 0 .469.194.469.432v5.186zm7.453-3.585c-.336.852-1.223 1.424-2.206 1.424h-4.31v-.864h4.31c.59 0 1.123-.344 1.325-.856l1.346-3.408a2.975 2.975 0 0 0 .872.318L9.328 18.12zm1.987-4.193a2.037 2.037 0 0 1-.706-.105 1.913 1.913 0 0 1-.73-.443 1.639 1.639 0 0 1-.502-1.29l3.385 1.133a1.91 1.91 0 0 1-1.447.705zm15.748-2.348l-1.282 3.25-.882-.297 1.216-3.08.25-.107.698.234zm1.587-2.17l-2.506 1.077-.6.258h-.001l-.704.303c-.825.355-2.246.412-3.103.125L8.177 6.629c-.243-.082-.512.034-.6.258-.089.225.037.473.28.554l13.559 4.542c.472.158 1.053.235 1.647.235.648 0 1.31-.092 1.86-.272l-1.065 2.696c-.265.671-1.074 1.019-1.803.774L1.89 8.658c-.729-.245-1.106-.99-.84-1.662l.801-2.031c.268.379.666.684 1.161.85l.44.148c.244.082.513-.034.602-.258.088-.224-.037-.472-.28-.554l-.441-.148c-.729-.244-1.106-.99-.84-1.661l.16-.407.48-1.218c.266-.671 1.074-1.02 1.803-.774l23.69 7.94c.301.102.413.207.435.246-.019.04-.12.154-.41.279z"/>
        <path d="M5.66 5.555l-.968-.51c-.268-.14-.563.059-.66.445-.098.387.04.814.307.955l.97.51c.057.03.117.045.175.045.21 0 .409-.188.485-.49.097-.387-.04-.814-.308-.955z"/>
    </g>
</svg>
