<svg xmlns="http://www.w3.org/2000/svg" xmlns:xlink="http://www.w3.org/1999/xlink" width="41" height="43" viewBox="0 0 41 43">
    <defs>
        <path id="a" d="M2.457 11.537c-7.21 13.234 2.301 29.32 17.45 29.686 3.497.084 6.998.071 10.5.06 1.49-.006 2.979-.01 4.47-.009 2.158.004 4.316-.009 6.586-.014-.01-5.534-.021-10.918-.03-16.393l-8.33.07-.02 7.975c-.24.075-.36.146-.482.146-4.165.012-8.335.158-12.494-.01-6.095-.248-10.931-4.627-11.725-10.34-.825-5.94 2.677-11.512 8.42-13.4 5.598-1.843 11.932.459 14.648 5.598.839 1.586 1.743 2 3.383 1.877 1.392-.102 2.793-.091 4.26-.08.645.004 1.303.008 1.98.003-.335-1.099-.537-2.018-.89-2.878C37.008 6.09 31.215 1.455 22.845.713a26.739 26.739 0 0 0-2.358-.106c-7.878 0-14.091 3.697-18.03 10.93"/>
        <path id="c" d="M2.639 8.583s-.87-.819-.354-2.219c.517-1.4-.816-2.482-.816-2.482C1.85 6.496 0 5.731 0 9.956S3.645 15 3.645 15H7.155c4.815-1.188 4.455-6.397 2.453-8.615-1.095-1.213-.63-3.533-.63-3.533-2.76 2.5-1.034 6.47-1.034 6.47-1.68-1.516-.71-3.221-.87-4.648C6.664.977 4.19 0 4.19 0c.435.528.598 2.8-.653 4.727-1.252 1.928-.898 3.856-.898 3.856z"/>
    </defs>
    <g fill="none" fill-rule="evenodd">
        <g transform="rotate(89 20.68 20.917)">
            <mask id="b" fill="#fff">
                <use xlink:href="#a"/>
            </mask>
            <path fill="#FFF" d="M19.907 41.223c3.497.084 6.998.071 10.5.06 1.49-.006 2.979-.01 4.47-.009 2.158.004 4.316-.009 6.586-.014-.01-5.534-.021-10.918-.03-16.393l-8.33.07-.02 7.975c-.24.075-.36.146-.482.146-4.165.012-8.335.158-12.494-.01-6.095-.248-10.931-4.627-11.725-10.34-.825-5.94 2.677-11.512 8.42-13.4 5.598-1.843 11.932.459 14.648 5.598.839 1.586 1.743 2 3.383 1.877 1.392-.102 2.793-.091 4.26-.08.645.004 1.303.008 1.98.003-.335-1.099-.537-2.018-.89-2.878C37.008 6.09 31.215 1.455 22.845.713a26.739 26.739 0 0 0-2.358-.106c-7.878 0-14.091 3.697-18.03 10.93-7.21 13.234 2.301 29.32 17.45 29.686z" mask="url(#b)"/>
        </g>
        <g transform="translate(15 13)">
            <mask id="d" fill="#fff">
                <use xlink:href="#c"/>
            </mask>
            <path fill="#FFF" d="M2.639 8.583s-.87-.819-.354-2.219c.517-1.4-.816-2.482-.816-2.482C1.85 6.496 0 5.731 0 9.956S3.645 15 3.645 15H7.155c4.815-1.188 4.455-6.397 2.453-8.615-1.095-1.213-.63-3.533-.63-3.533-2.76 2.5-1.034 6.47-1.034 6.47-1.68-1.516-.71-3.221-.87-4.648C6.664.977 4.19 0 4.19 0c.435.528.598 2.8-.653 4.727-1.252 1.928-.898 3.856-.898 3.856z" mask="url(#d)"/>
        </g>
    </g>
</svg>
