<svg width="221" height="221" viewBox="0 0 221 221" fill="none" xmlns="http://www.w3.org/2000/svg">
<circle cx="110.237" cy="110.237" r="80" transform="rotate(-32 110.237 110.237)" fill="#C4C4C4"/>
<path d="M69.6835 112.377L65.8077 114.799L72.5248 125.549L70.943 126.537L64.2259 115.787L60.3583 118.204L59.5407 116.895L68.8659 111.068L69.6835 112.377ZM82.5374 119.292C82.3387 119.17 82.0703 118.901 81.7321 118.482C81.4822 119.667 80.8631 120.568 79.8748 121.186C78.9914 121.738 78.1102 121.943 77.231 121.802C76.3539 121.651 75.6756 121.192 75.196 120.425C74.613 119.492 74.5144 118.548 74.9002 117.593C75.2881 116.629 76.1253 115.745 77.4117 114.941L78.9025 114.009L78.4626 113.305C78.1279 112.77 77.7022 112.445 77.1853 112.33C76.665 112.21 76.0929 112.345 75.469 112.735C74.9224 113.076 74.5504 113.501 74.353 114.008C74.1555 114.515 74.1793 114.965 74.4243 115.357L72.8839 116.319C72.6044 115.872 72.4927 115.343 72.5486 114.732C72.6066 114.112 72.8303 113.512 73.2196 112.931C73.6144 112.347 74.1375 111.851 74.789 111.444C75.8215 110.799 76.7924 110.553 77.702 110.706C78.6081 110.854 79.3551 111.373 79.943 112.265L82.5201 116.389C83.0341 117.212 83.5479 117.801 84.0613 118.156L84.1441 118.288L82.5374 119.292ZM79.2653 119.713C79.7456 119.413 80.1235 119.004 80.3989 118.486C80.6743 117.969 80.7844 117.451 80.7292 116.933L79.5804 115.094L78.3795 115.845C76.5023 117.018 75.907 118.153 76.5936 119.252C76.8937 119.732 77.2884 120.008 77.7777 120.078C78.267 120.149 78.7628 120.027 79.2653 119.713ZM86.1395 111.272L85.805 112.874L87.7715 116.021L86.2394 116.979L78.2906 104.258L79.8227 103.301L84.6302 110.994L84.8343 109.497L85.783 104.804L87.6463 103.64L86.4988 109.562L93.6515 112.347L91.8544 113.47L86.1395 111.272ZM98.4839 109.558C97.2692 110.317 96.0325 110.537 94.7738 110.218C93.5116 109.893 92.4631 109.063 91.6282 107.727L91.4522 107.445C90.8968 106.557 90.5701 105.659 90.4722 104.753C90.3764 103.838 90.5096 102.995 90.872 102.223C91.2365 101.443 91.7748 100.83 92.487 100.385C93.652 99.6568 94.7972 99.4747 95.9228 99.8385C97.0483 100.202 98.0578 101.099 98.9514 102.529L99.3498 103.167L93.2793 106.96C93.8534 107.83 94.5569 108.384 95.3899 108.624C96.2249 108.854 97.0233 108.732 97.7852 108.256C98.3263 107.917 98.7156 107.521 98.953 107.065C99.1904 106.61 99.3361 106.112 99.39 105.572L100.781 105.716C100.751 107.339 99.9856 108.619 98.4839 109.558ZM93.2736 101.644C92.6553 102.03 92.2777 102.581 92.141 103.296C92.0009 104.005 92.1347 104.797 92.5424 105.67L97.0311 102.865L96.9587 102.749C96.4281 101.999 95.8422 101.528 95.2011 101.337C94.5566 101.141 93.9141 101.243 93.2736 101.644ZM114.582 93.9482C115.23 95.3167 115.374 96.5972 115.013 97.7897C114.655 98.9732 113.819 99.9755 112.505 100.797C111.08 101.687 109.618 101.89 108.119 101.407C106.625 100.92 105.343 99.8211 104.274 98.1096L103.549 96.9501C102.849 95.8293 102.432 94.7196 102.298 93.621C102.17 92.5189 102.331 91.512 102.783 90.6004C103.231 89.6833 103.938 88.9229 104.904 88.3191C106.185 87.5187 107.436 87.2359 108.657 87.4707C109.875 87.6999 110.943 88.407 111.86 89.592L110.262 90.5908C109.523 89.7163 108.788 89.2087 108.055 89.0679C107.327 88.9236 106.55 89.1102 105.721 89.6277C104.706 90.2625 104.142 91.1364 104.032 92.2495C103.927 93.3592 104.307 94.607 105.173 95.9928L105.903 97.1605C106.721 98.469 107.644 99.339 108.674 99.7704C109.703 100.202 110.71 100.11 111.692 99.4963C112.576 98.9443 113.128 98.323 113.349 97.6322C113.572 96.9324 113.45 96.0374 112.984 94.947L114.582 93.9482ZM124.443 93.1065C124.244 92.985 123.976 92.7152 123.638 92.2969C123.388 93.4818 122.769 94.383 121.78 95.0006C120.897 95.5526 120.016 95.7578 119.136 95.6163C118.259 95.4657 117.581 95.0067 117.102 94.2393C116.518 93.3062 116.42 92.3622 116.806 91.4071C117.194 90.4431 118.031 89.5591 119.317 88.7553L120.808 87.8238L120.368 87.1198C120.033 86.5843 119.608 86.2592 119.091 86.1446C118.57 86.0245 117.998 86.1593 117.374 86.5492C116.828 86.8907 116.456 87.3151 116.258 87.8223C116.061 88.3295 116.085 88.7791 116.33 89.1711L114.789 90.1337C114.51 89.6865 114.398 89.1575 114.454 88.5467C114.512 87.927 114.736 87.3267 115.125 86.7456C115.52 86.1612 116.043 85.6654 116.694 85.2583C117.727 84.6131 118.698 84.3672 119.607 84.5205C120.514 84.6682 121.261 85.188 121.848 86.0796L124.426 90.2039C124.94 91.0266 125.453 91.6153 125.967 91.97L126.05 92.1026L124.443 93.1065ZM121.171 93.5275C121.651 93.2274 122.029 92.8185 122.304 92.301C122.58 91.7834 122.69 91.2655 122.635 90.7472L121.486 88.9087L120.285 89.659C118.408 90.832 117.813 91.9679 118.499 93.0666C118.799 93.5469 119.194 93.8223 119.683 93.8928C120.172 93.9632 120.668 93.8415 121.171 93.5275ZM127.728 80.5059C127.472 80.6121 127.208 80.7498 126.938 80.9188C125.933 81.5467 125.518 82.4007 125.694 83.4807L129.669 89.8411L128.137 90.7985L122.537 81.8376L124.028 80.9061L124.7 81.9258C124.702 80.8113 125.164 79.966 126.086 79.3898C126.384 79.2035 126.635 79.1007 126.838 79.0814L127.728 80.5059ZM137.54 85.1526C136.326 85.9116 135.089 86.1316 133.83 85.8127C132.568 85.4882 131.52 84.6579 130.685 83.3218L130.509 83.0402C129.953 82.1513 129.627 81.2538 129.529 80.3477C129.433 79.4326 129.566 78.5893 129.929 77.8178C130.293 77.0373 130.831 76.4246 131.544 75.9795C132.709 75.2516 133.854 75.0695 134.979 75.4333C136.105 75.7971 137.114 76.6939 138.008 78.1239L138.406 78.7616L132.336 82.5549C132.91 83.4245 133.614 83.979 134.446 84.2186C135.281 84.4491 136.08 84.3264 136.842 83.8503C137.383 83.5122 137.772 83.1154 138.01 82.66C138.247 82.2045 138.393 81.7066 138.447 81.1663L139.838 81.3103C139.808 82.9334 139.042 84.2142 137.54 85.1526ZM132.33 77.2383C131.712 77.6247 131.334 78.1754 131.198 78.8903C131.057 79.5997 131.191 80.3913 131.599 81.265L136.088 78.4602L136.015 78.3442C135.485 77.5933 134.899 77.1226 134.258 76.9321C133.613 76.7361 132.971 76.8381 132.33 77.2383ZM142.3 77.2155L140.917 78.0797L135.401 69.4926L137.008 68.4886L142.3 77.2155ZM142.397 80.8168C142.242 80.5683 142.187 80.3147 142.232 80.0559C142.28 79.7882 142.453 79.5611 142.751 79.3748C143.049 79.1885 143.329 79.1327 143.59 79.2072C143.849 79.2763 144.055 79.435 144.21 79.6834C144.366 79.9319 144.418 80.1872 144.367 80.4495C144.312 80.7062 144.136 80.9277 143.838 81.114C143.54 81.3003 143.263 81.3617 143.008 81.2982C142.756 81.2257 142.552 81.0652 142.397 80.8168ZM89.5246 142.047L87.9263 143.046L84.4435 137.472L78.3647 141.271L81.8475 146.844L80.2574 147.838L72.7226 135.78L74.3127 134.786L77.5522 139.97L83.631 136.172L80.3915 130.988L81.9899 129.989L89.5246 142.047ZM93.7732 139.392L92.241 140.35L86.6417 131.389L88.1738 130.431L93.7732 139.392ZM85.0323 129.09C84.877 128.841 84.8204 128.585 84.8626 128.32C84.9102 128.053 85.0831 127.826 85.3812 127.639C85.6794 127.453 85.9592 127.397 86.2208 127.472C86.4823 127.546 86.6907 127.708 86.846 127.956C87.0012 128.205 87.0533 128.46 87.0022 128.722C86.9511 128.984 86.7765 129.209 86.4783 129.395C86.1802 129.581 85.9021 129.64 85.644 129.571C85.3914 129.498 85.1875 129.338 85.0323 129.09ZM92.0828 127.989L92.8363 129.084C92.9827 127.795 93.608 126.805 94.7123 126.115C96.606 124.932 98.2287 125.404 99.5805 127.53L103.281 133.451L101.748 134.409L98.0432 128.479C97.634 127.836 97.1865 127.452 96.7007 127.326C96.2204 127.196 95.6738 127.322 95.061 127.705C94.5641 128.016 94.2107 128.421 94.0008 128.921C93.791 129.42 93.7157 129.951 93.775 130.513L97.765 136.898L96.2328 137.855L90.6335 128.894L92.0828 127.989ZM112.205 124.938L109.648 117.013L111.18 116.055L114.171 126.646L112.929 127.422L106.507 121.992L108.631 130.108L107.388 130.885L99.1885 123.549L100.712 122.596L106.668 128.202L104.563 120.19L105.797 119.419L112.205 124.938ZM122.167 121.88C120.952 122.639 119.716 122.859 118.457 122.54C117.195 122.216 116.146 121.385 115.311 120.049L115.135 119.768C114.58 118.879 114.253 117.981 114.155 117.075C114.06 116.16 114.193 115.317 114.555 114.545C114.92 113.765 115.458 113.152 116.17 112.707C117.335 111.979 118.48 111.797 119.606 112.161C120.731 112.525 121.741 113.421 122.635 114.851L123.033 115.489L116.963 119.282C117.537 120.152 118.24 120.707 119.073 120.946C119.908 121.177 120.706 121.054 121.468 120.578C122.009 120.24 122.399 119.843 122.636 119.387C122.874 118.932 123.019 118.434 123.073 117.894L124.464 118.038C124.435 119.661 123.669 120.942 122.167 121.88ZM116.957 113.966C116.338 114.352 115.961 114.903 115.824 115.618C115.684 116.327 115.818 117.119 116.226 117.992L120.714 115.188L120.642 115.072C120.111 114.321 119.525 113.85 118.884 113.66C118.24 113.464 117.597 113.566 116.957 113.966ZM129.004 117.378L127.471 118.335L121.872 109.374L123.404 108.417L129.004 117.378ZM120.263 107.075C120.107 106.827 120.051 106.57 120.093 106.306C120.141 106.038 120.314 105.811 120.612 105.625C120.91 105.439 121.19 105.383 121.451 105.457C121.713 105.532 121.921 105.693 122.076 105.942C122.232 106.19 122.284 106.446 122.233 106.708C122.182 106.97 122.007 107.194 121.709 107.381C121.411 107.567 121.133 107.626 120.874 107.557C120.622 107.484 120.418 107.324 120.263 107.075ZM135.196 110.204C134.937 109.79 134.579 109.568 134.123 109.538C133.669 109.499 133.001 109.64 132.119 109.961C131.243 110.279 130.503 110.464 129.9 110.519C129.302 110.57 128.793 110.504 128.372 110.322C127.956 110.136 127.611 109.823 127.335 109.381C126.876 108.647 126.797 107.832 127.098 106.938C127.404 106.04 128.041 105.289 129.007 104.686C130.023 104.051 131.009 103.799 131.966 103.93C132.929 104.058 133.666 104.531 134.176 105.348L132.636 106.31C132.374 105.891 131.968 105.641 131.42 105.562C130.877 105.479 130.335 105.606 129.793 105.945C129.236 106.293 128.876 106.687 128.713 107.127C128.55 107.566 128.591 107.982 128.836 108.374C129.067 108.744 129.387 108.931 129.797 108.936C130.207 108.941 130.847 108.791 131.716 108.486C132.59 108.178 133.339 107.994 133.962 107.935C134.585 107.875 135.115 107.943 135.552 108.139C135.991 108.325 136.36 108.658 136.66 109.139C137.161 109.939 137.242 110.783 136.905 111.669C136.565 112.549 135.884 113.309 134.863 113.947C134.145 114.395 133.431 114.665 132.72 114.756C132.009 114.847 131.355 114.765 130.757 114.508C130.162 114.243 129.699 113.846 129.367 113.316L130.899 112.358C131.248 112.855 131.707 113.136 132.278 113.201C132.851 113.258 133.452 113.09 134.081 112.696C134.661 112.334 135.053 111.928 135.255 111.479C135.46 111.021 135.44 110.596 135.196 110.204ZM144.031 108.218C142.816 108.977 141.579 109.197 140.321 108.878C139.059 108.554 138.01 107.723 137.175 106.387L136.999 106.106C136.444 105.217 136.117 104.319 136.019 103.413C135.923 102.498 136.057 101.655 136.419 100.883C136.783 100.103 137.322 99.4901 138.034 99.045C139.199 98.3171 140.344 98.135 141.47 98.4988C142.595 98.8626 143.605 99.7594 144.498 101.189L144.897 101.827L138.826 105.62C139.4 106.49 140.104 107.045 140.937 107.284C141.772 107.515 142.57 107.392 143.332 106.916C143.873 106.578 144.262 106.181 144.5 105.725C144.737 105.27 144.883 104.772 144.937 104.232L146.328 104.376C146.298 105.999 145.533 107.28 144.031 108.218ZM138.821 100.304C138.202 100.69 137.825 101.241 137.688 101.956C137.548 102.665 137.682 103.457 138.089 104.331L142.578 101.526L142.506 101.41C141.975 100.659 141.389 100.188 140.748 99.9976C140.103 99.8016 139.461 99.9036 138.821 100.304Z" fill="black"/>
</svg>
