<svg xmlns="http://www.w3.org/2000/svg" width="23" height="29" viewBox="0 0 23 29">
    <g fill="none" fill-rule="evenodd">
        <path fill="#6A6A77" fill-rule="nonzero" d="M18.044 13.878c-.199-.285-.525-.416-.84-.34-.302.062-.55.305-.646.632a7.282 7.282 0 0 1-1.074 2.12c.033-.35.05-.703.05-1.056a13.366 13.366 0 0 0-.075-1.31 10.586 10.586 0 0 0-.647-2.533 1.68 1.68 0 0 0-.109-.264c-.67-1.627-1.738-3.006-3.08-3.976a.762.762 0 0 0-.84-.047.962.962 0 0 0-.445.82 7.142 7.142 0 0 1-.613 2.826c-.479 1.075-1.221 1.974-2.14 2.59a8.027 8.027 0 0 0-2.393 2.582A9.008 9.008 0 0 0 4 20.435c-.005 2.862 1.322 5.52 3.5 7.01.283.21.65.21.932 0 .28-.225.409-.616.328-.99a8.773 8.773 0 0 1 .294-4.777 7.83 7.83 0 0 1 .503-1.206l.05.132c1.135 2.918 3.082 5.345 5.55 6.915.184.123.369.227.562.33l.084.057a.764.764 0 0 0 .377.094.787.787 0 0 0 .53-.217c1.494-1.346 2.557-3.2 3.03-5.285a11.94 11.94 0 0 0 .26-2.421c0-2.257-.691-4.445-1.956-6.2z"/>
        <path stroke="#6A6A77" stroke-linecap="round" stroke-linejoin="round" stroke-width=".8" d="M4.62 9.24l.76-.48M9.252 5.413A10.666 10.666 0 0 0 10.282 1a11.668 11.668 0 0 1 4.123 5.012c.04.058.067.124.08.194.438 1.022.736 2.104.884 3.215.07.54.11 1.083.12 1.628 0 1.628-.317 3.239-.932 4.734a9.93 9.93 0 0 0 .708-.397 9.516 9.516 0 0 0 3.102-3.164 9.483 9.483 0 0 0 1.037-2.236c1.685 2.184 2.602 4.91 2.596 7.72a13.84 13.84 0 0 1-.346 3.02c-.733 2.986-2.498 5.579-4.95 7.274a10.33 10.33 0 0 1-1.753-.844c-2.217-1.316-3.966-3.354-4.983-5.805a11.724 11.724 0 0 1-.53-1.552 7.586 7.586 0 0 0-1.496 2.531 8.275 8.275 0 0 0-.112 5.468c-2.895-.928-5.207-3.228-6.245-6.213-1.038-2.985-.681-6.308.964-8.975.137-.228.29-.447.45-.667"/>
    </g>
</svg>
