<svg xmlns="http://www.w3.org/2000/svg" width="36" height="47" viewBox="0 0 36 47">
    <path fill="#3E415A" fill-rule="nonzero" d="M18 0C9.15 0 0 6.823 0 18.194c0 10.764 16.2 27.593 16.95 28.351.3.303.6.455 1.05.455.45 0 .75-.152 1.05-.455C19.8 45.787 36 29.11 36 18.194 36 6.823 26.85 0 18 0zm6 19.71h-4.5v4.548c0 .91-.6 1.516-1.5 1.516s-1.5-.606-1.5-1.516V19.71H12c-.9 0-1.5-.607-1.5-1.516 0-.91.6-1.517 1.5-1.517h4.5V12.13c0-.91.6-1.516 1.5-1.516s1.5.606 1.5 1.516v4.548H24c.9 0 1.5.607 1.5 1.517 0 .91-.6 1.516-1.5 1.516z"/>
</svg>
