<svg xmlns="http://www.w3.org/2000/svg" width="22" height="28" viewBox="0 0 22 28">
    <path fill="#FFF" fill-rule="nonzero" d="M11 0C5.592 0 0 4.065 0 10.839c0 6.413 9.9 16.438 10.358 16.89.184.18.367.271.642.271s.458-.09.642-.271C12.1 27.277 22 17.342 22 10.839 22 4.065 16.408 0 11 0zm3.667 11.742h-2.75v2.71c0 .542-.367.903-.917.903s-.917-.361-.917-.903v-2.71h-2.75c-.55 0-.916-.361-.916-.903s.366-.904.916-.904h2.75v-2.71c0-.541.367-.902.917-.902s.917.36.917.903v2.71h2.75c.55 0 .916.36.916.903 0 .542-.366.903-.916.903z"/>
</svg>
