<svg xmlns="http://www.w3.org/2000/svg" width="30" height="29" viewBox="0 0 30 29">
    <g fill="#5F5D70" fill-rule="nonzero">
        <path d="M22.505 11.993l1.715-.106.01-.001a4.06 4.06 0 0 0 3.011-1.715l1.356-1.942a7.685 7.685 0 0 0 1.288-5.75 1.763 1.763 0 0 0-.584-1.027 1.842 1.842 0 0 0-1.116-.443 8.153 8.153 0 0 0-5.695 1.937l-1.813 1.547a3.9 3.9 0 0 0-1.385 3.123v.009l.099 1.674a2.325 2.325 0 0 1-.672 1.766l-14.166 14.2a1.98 1.98 0 0 0-.551 1.49c.026.634.324 1.256.797 1.665a2.481 2.481 0 0 0 1.79.573c.588-.046 1.103-.3 1.452-.715l12.746-15.422a2.436 2.436 0 0 1 1.718-.863zm-2.398.326L7.362 27.739c-.195.232-.495.375-.843.402a1.582 1.582 0 0 1-1.14-.36 1.504 1.504 0 0 1-.502-1.06c-.014-.341.095-.648.306-.863L19.347 11.66a3.17 3.17 0 0 0 .918-2.41l-.098-1.67a3.058 3.058 0 0 1 1.086-2.444l1.813-1.547a7.273 7.273 0 0 1 5.077-1.727c.213.01.417.092.577.23.16.137.266.326.302.53a6.85 6.85 0 0 1-1.148 5.126L26.518 9.69a3.185 3.185 0 0 1-2.358 1.344l-1.71.106a3.323 3.323 0 0 0-2.343 1.179z"/>
        <path d="M29.33 24.97l-9.865-8.853a.46.46 0 0 0-.642.03.444.444 0 0 0 .03.632l9.863 8.85c.234.214.367.53.374.887a1.58 1.58 0 0 1-.453 1.14 1.628 1.628 0 0 1-1.158.448c-.363-.007-.683-.138-.897-.367l-8.791-9.509a.46.46 0 0 0-.643-.03.443.443 0 0 0-.03.634l8.793 9.51c.387.412.937.646 1.55.658h.048c.659 0 1.318-.263 1.77-.71A2.485 2.485 0 0 0 30 26.5c-.012-.604-.248-1.147-.669-1.53zM5.526 12.043a4.244 4.244 0 0 0 2.783 1.12l1.799.005c.7.002 1.375.3 1.848.814l.792.869a.457.457 0 1 0 .677-.616l-.793-.87a3.448 3.448 0 0 0-2.521-1.112l-1.794-.005a3.33 3.33 0 0 1-2.15-.86L.956 5.202a.157.157 0 0 1 .121-.26c.025 0 .072.007.112.047l4.745 4.738a1.205 1.205 0 0 0 1.7 0l.558-.557.99-.989.558-.557a1.201 1.201 0 0 0 0-1.699L4.995 1.187a.158.158 0 0 1 .213-.233l6.197 5.205c.534.59.84 1.35.86 2.147l.005 1.791c.003.954.41 1.872 1.115 2.519l.849.772a.459.459 0 0 0 .616-.676l-.847-.771a2.523 2.523 0 0 1-.817-1.847l-.005-1.796v-.01a4.232 4.232 0 0 0-1.122-2.77.457.457 0 0 0-.042-.04L5.797.254a1.072 1.072 0 0 0-1.45 1.58L9.092 6.57a.287.287 0 0 1 0 .406l-.234.233L3.57 1.93a.458.458 0 0 0-.648.646l5.288 5.28-.342.343-5.288-5.28a.458.458 0 0 0-.648.646l5.288 5.28-.234.234a.288.288 0 0 1-.406 0L1.836 4.341a1.068 1.068 0 0 0-.76-.314c-.287 0-.556.112-.76.314a1.066 1.066 0 0 0-.062 1.45L5.486 12a.426.426 0 0 0 .04.042z"/>
    </g>
</svg>
