<svg xmlns="http://www.w3.org/2000/svg" width="17" height="18" viewBox="0 0 17 18">
    <g fill="none" fill-rule="evenodd" stroke="#3E415A" stroke-width=".5">
        <path d="M8.5 17c-1.5-1.164-1.575-4.945.75-5.818 1.2-.437 1.65 2.109 4.05 1.454.45-.145 1.575.51 1.2 1.528M4.225 3.764c.45.363.825.8 1.2 1.309.3.509.975 1.89.375 2.618-.675.873-2.7 1.164-2.7 1.964 0 .581.9 1.309 1.35 1.963.75 1.018.375 2.037 0 2.618-.225.364-.525.582-.9.8"/>
        <path d="M14.65 5.582C15.475 6.745 16 8.2 16 9.727c0 4-3.375 7.273-7.5 7.273S1 13.727 1 9.727c0-4 3.375-7.272 7.5-7.272.375 0 .75 0 1.125.072"/>
        <path stroke-linecap="square" d="M15.25 3.91c0 1.817-3 4.363-3 4.363s-3-2.546-3-4.364S10.825 1 12.25 1s3 1.09 3 2.91z"/>
    </g>
</svg>
