<svg xmlns="http://www.w3.org/2000/svg" width="27" height="28" viewBox="0 0 27 28">
    <g fill="none" fill-rule="nonzero" stroke="#5F5D70" stroke-width=".4" transform="translate(1 -1)">
        <path d="M10.957 28.14L.19 27.403 10.957 5.545l5.56 11.286 1.983-4.043 7.249 14.702-7.25.65-3.252-.294-4.29.294zM18.5 12.788l7.249 14.702"/>
        <path d="M12.675 16.3l1.718 1.779 1.802-1.822-5.238-10.712-5.28 10.712L7.48 18.08 9.198 16.3l1.76 1.778z"/>
        <ellipse cx="10.957" cy="1.815" rx="1" ry="1"/>
        <path d="M10.916 2.77c-.126 0-.126 0-.42-.087v4.033c0 .174.252.304.42.304.167 0 .419-.13.419-.304V2.683c0 .173-.294.087-.42.087z"/>
        <path d="M10.916 7.02c.167 0 .419-.13.419-.304V2.683c-.21.087-.294.087-.42.087M11.335 1.425c.25.217.25.607 0 .868-.252.26-.587.26-.839 0M16.991 4.721l.755-.867H13.01v1.735h4.735z"/>
        <path d="M17.746 5.589l-.755-.868.755-.867H13.01"/>
        <path d="M11.335 2.986h3.352v1.301h-3.352z"/>
        <path d="M11.335 2.986h3.352v1.301"/>
    </g>
</svg>
