<svg xmlns="http://www.w3.org/2000/svg" width="18" height="18" viewBox="0 0 18 18">
    <g fill="#FFF" fill-rule="nonzero">
        <path d="M17.583 16.332l-1.251 1.273-3.271-3.27A7.977 7.977 0 0 1 8.1 16.067a7.903 7.903 0 0 1-5.62-2.327C.988 12.227.154 10.251.154 8.122c0-2.13.834-4.127 2.326-5.62C3.995 1.01 5.97.176 8.1.176s4.127.834 5.62 2.326c2.853 2.832 3.095 7.442.592 10.559l3.27 3.27zm-3.674-8.15a5.704 5.704 0 0 0-5.727-5.727 5.704 5.704 0 0 0-5.727 5.727 5.704 5.704 0 0 0 5.727 5.727 5.704 5.704 0 0 0 5.727-5.727z"/>
        <path d="M17.583 16.332l-3.27-3.271-1.252 1.273 3.27 3.27z"/>
    </g>
</svg>
