<svg xmlns="http://www.w3.org/2000/svg" width="35" height="29" viewBox="0 0 35 29">
    <g fill="#5F5D70" fill-rule="nonzero">
        <path d="M3.6 5.839c.383 0 .693-.26.693-.581v-.232c0-.321-.31-.581-.693-.581-.382 0-.692.26-.692.58v.233c0 .32.31.58.692.58z"/>
        <path d="M32.953 13.419H16.642c-.245 0-.443.16-.443.356 0 .197.198.357.443.357h16.311c.523 0 .946.34.946.76s-.423.761-.946.761h-17.64V4.101h.269c.89 0 1.612-.582 1.613-1.298V1.56c0-.716-.722-1.297-1.612-1.298H1.752C.86.262.139.844.138 1.56v1.242C.14 3.52.861 4.1 1.752 4.101h9.89c.245 0 .444-.16.444-.357 0-.197-.199-.356-.443-.356H1.752c-.402 0-.727-.263-.728-.586V1.56c0-.323.326-.585.728-.585h13.831c.402 0 .727.262.727.585v1.242c0 .324-.325.586-.727.586h-2.257c-.244 0-.443.16-.443.356 0 .197.199.357.443.357h1.1v11.552H9.131c-.245 0-.443.16-.443.357 0 .197.198.356.443.356h22.23c-.242 3.807-4.144 6.794-8.88 6.8h-4.814c-.244 0-.443.159-.443.356 0 .197.199.356.443.356h1.254l-1.268 3.817c-.043.123 0 .256.113.347a.52.52 0 0 0 .43.092c.153-.033.273-.13.313-.255l1.33-4.001h2.642c5.225-.005 9.524-3.312 9.766-7.512h.705c1.002-.011 1.806-.668 1.806-1.474 0-.806-.804-1.462-1.806-1.474z"/>
        <path d="M17.719 23.237H9.327c-.575 0-1.041-.402-1.042-.897v-6.033h1.098c.233 0 .423-.163.423-.364 0-.2-.19-.363-.423-.363H6.345c-.666-.001-1.207-.466-1.207-1.04V6.203c0-.2-.19-.363-.423-.363-.233 0-.422.163-.422.363v8.338c.001.975.92 1.765 2.052 1.766H7.44v6.034c.001.897.845 1.623 1.887 1.624h8.392c.233 0 .422-.163.422-.364 0-.2-.189-.363-.422-.363zM9.14 25.358c-.383 0-.693.119-.693.266v2.257c0 .147.31.266.693.266.382 0 .692-.12.692-.266v-2.257c0-.147-.31-.266-.692-.266zM28.39 19.918c-1.21 1.283-3.346 2.063-5.643 2.059-.25 0-.451.132-.451.296 0 .164.202.297.45.297 2.61.005 5.035-.88 6.409-2.339.128-.138.062-.319-.147-.405-.21-.086-.485-.045-.619.092zM28.255 18.35c.16.054.338.048.493-.015a.609.609 0 0 0 .337-.325l.095-.237a.533.533 0 0 0-.115-.578.69.69 0 0 0-.618-.19.625.625 0 0 0-.487.391l-.084.21c-.124.3.045.632.379.744z"/>
    </g>
</svg>
