<svg xmlns="http://www.w3.org/2000/svg" width="30" height="30" viewBox="0 0 30 30">
    <g fill="none" fill-rule="evenodd">
        <path d="M-13-13h53v53h-53z"/>
        <g fill="#FFF" fill-rule="nonzero">
            <path d="M12.975 25.453h-.48v-.96a.476.476 0 0 0-.041-.195l-1.92-4.319a.48.48 0 0 0-.438-.285H1.457a.48.48 0 0 0-.48.48v5.279h-.48a.48.48 0 0 0-.48.48v1.92c0 .265.215.48.48.48h1.508c.215.825.96 1.439 1.852 1.439.892 0 1.637-.614 1.851-1.44h2.056c.215.826.96 1.44 1.852 1.44.892 0 1.637-.614 1.851-1.44h1.508a.48.48 0 0 0 .48-.48v-1.92a.48.48 0 0 0-.48-.48zm-9.118 3.36a.96.96 0 0 1 0-1.92.96.96 0 0 1 0 1.92zm5.759 0a.96.96 0 0 1 0-1.92.96.96 0 0 1 0 1.92zm2.88-1.44h-1.029a1.917 1.917 0 0 0-1.851-1.44c-.892 0-1.637.613-1.852 1.44H5.708a1.917 1.917 0 0 0-1.851-1.44c-.892 0-1.637.613-1.852 1.44H.977v-.96h.48a.48.48 0 0 0 .48-.48v-5.28h7.847l1.751 3.942v1.338c0 .265.215.48.48.48h.48v.96z"/>
            <path d="M9.582 21.915a.48.48 0 0 0-.446-.302h-1.92a.48.48 0 0 0-.48.48v2.4c0 .265.215.48.48.48h2.88a.48.48 0 0 0 .446-.658l-.96-2.4zm-1.886 2.098v-1.44h1.115l.576 1.44h-1.69zM5.297 21.613h-1.92a.48.48 0 0 0-.48.48v2.4c0 .265.214.48.48.48h1.92a.48.48 0 0 0 .48-.48v-2.4a.48.48 0 0 0-.48-.48zm-.48 2.4h-.96v-1.44h.96v1.44zM8.176 18.254h14.397c1.323 0 2.4 1.077 2.4 2.4s-1.077 2.4-2.4 2.4h-8.158v.959h8.158a3.364 3.364 0 0 0 3.36-3.36 3.364 3.364 0 0 0-3.36-3.359H8.176c-3.97 0-7.199-3.229-7.199-7.198 0-3.97 3.23-7.199 7.199-7.199h13.917v-.96H8.176c-4.499 0-8.158 3.66-8.158 8.159 0 4.498 3.66 8.158 8.158 8.158z"/>
            <path d="M22.573 13.455h-7.198V12.41c.826-.268 1.44-1.2 1.44-2.314 0-1.323-.862-2.4-1.92-2.4-1.059 0-1.92 1.077-1.92 2.4 0 1.115.614 2.046 1.44 2.314v1.045h-3.84V12.41c.827-.268 1.44-1.2 1.44-2.314 0-1.323-.86-2.4-1.92-2.4-1.058 0-1.919 1.077-1.919 2.4 0 1.115.614 2.046 1.44 2.314v1.045h-1.44a3.364 3.364 0 0 1-3.36-3.36 3.364 3.364 0 0 1 3.36-3.359h13.917v-.96H8.176a4.324 4.324 0 0 0-4.32 4.32 4.324 4.324 0 0 0 4.32 4.319h14.397a6.246 6.246 0 0 1 6.24 6.239 6.246 6.246 0 0 1-6.24 6.238h-8.158v.96h8.158c3.97 0 7.199-3.229 7.199-7.198 0-3.97-3.23-7.199-7.199-7.199zm-8.638-3.36c0-.78.44-1.44.96-1.44s.96.66.96 1.44c0 .781-.44 1.44-.96 1.44s-.96-.659-.96-1.44zm-4.8 0c0-.78.44-1.44.96-1.44s.96.66.96 1.44c0 .781-.44 1.44-.96 1.44s-.96-.659-.96-1.44zM20.654 3.857h1.44v.96h-1.44zM16.814 3.857h1.92v.96h-1.92zM12.975 3.857h1.92v.96h-1.92zM9.136 3.857h1.92v.96h-1.92zM5.537 5.523a5.224 5.224 0 0 1 1.759-.633l-.16-.947a6.17 6.17 0 0 0-2.08.75l.481.83zM3.108 6.456a6.198 6.198 0 0 0-.974 2.08l.93.24a5.23 5.23 0 0 1 .824-1.76l-.78-.56zM1.958 10.615c.06.723.244 1.423.545 2.08l.873-.4a5.235 5.235 0 0 1-.46-1.759l-.958.079z"/>
            <path d="M4.685 14.055l-.636.72a6.202 6.202 0 0 0 2.048 1.204l.32-.904a5.251 5.251 0 0 1-1.732-1.02zM8.176 15.375h1.92v.96h-1.92zM12.015 15.375h1.92v.96h-1.92zM15.855 15.375h1.92v.96h-1.92zM19.694 15.375h1.92v.96h-1.92zM25.742 16.43a5.217 5.217 0 0 0-2.113-.95l-.19.941c.63.128 1.21.39 1.727.777l.576-.767zM27.413 18.542l-.88.384c.239.546.36 1.127.36 1.728h.96c0-.734-.149-1.445-.44-2.112zM25.165 24.11l.576.767a5.298 5.298 0 0 0 1.671-2.111l-.879-.385a4.338 4.338 0 0 1-1.368 1.728zM21.613 24.973v.96h.96a5.33 5.33 0 0 0 1.055-.106l-.19-.941a4.352 4.352 0 0 1-.865.087h-.96zM17.774 24.973h1.92v.96h-1.92zM14.415 24.973h1.44v.96h-1.44zM25.933 6.698v4.837h.96V6.698a3.362 3.362 0 0 0 2.879-3.321 3.364 3.364 0 0 0-3.36-3.36 3.364 3.364 0 0 0-3.359 3.36 3.362 3.362 0 0 0 2.88 3.32zm.48-5.72c1.323 0 2.4 1.076 2.4 2.399s-1.077 2.4-2.4 2.4a2.402 2.402 0 0 1-2.4-2.4c0-1.323 1.077-2.4 2.4-2.4z"/>
            <path d="M27.852 3.377h-.96a.48.48 0 0 1-.48.48v.96c.794 0 1.44-.646 1.44-1.44z"/>
        </g>
    </g>
</svg>
