<svg width="158" height="54" viewBox="0 0 158 54" fill="none" xmlns="http://www.w3.org/2000/svg">
<g clip-path="url(#clip0)">
<path d="M24.9667 27.0612C31.2084 27.0612 35.1247 31.7143 35.1247 38.6939V50.8163C35.1247 52.4082 34.1456 53.2653 32.4322 53.2653H2.69249C0.979086 53.2653 0 52.4082 0 50.8163V39.9184C0 33.1837 3.67157 28.2857 9.91324 28.2857C12.4833 28.2857 15.4206 29.5102 16.7668 32.9388C17.5012 29.0204 21.7847 27.0612 24.9667 27.0612ZM7.22076 44.9388H14.5639V41.6326C14.5639 38.0816 12.8505 36.6122 10.8923 36.6122C8.68939 36.6122 7.22076 38.3265 7.22076 40.898V44.9388ZM24.2324 35.2653C22.2742 35.2653 20.316 36.8571 20.316 40.2857V44.9388H27.7816V39.1837C27.7816 36.4898 26.0682 35.2653 24.2324 35.2653Z" fill="black"/>
<path d="M7.95507 15.6734H14.1967V5.6326C14.1967 3.91832 15.1758 2.93872 16.8892 2.93872H18.6026C20.316 2.93872 21.2951 3.91832 21.2951 5.6326V15.6734H27.292V3.67342C27.292 1.95913 28.2711 1.10199 29.9845 1.10199H32.4322C34.1456 1.10199 35.1247 1.95913 35.1247 3.67342V21.9183C35.1247 23.6326 34.1456 24.4897 32.4322 24.4897H2.69249C0.979086 24.4897 0 23.6326 0 21.9183V3.67342C0 1.95913 0.979086 1.10199 2.69249 1.10199H5.1402C6.8536 1.10199 7.83269 1.95913 7.83269 3.67342V15.6734H7.95507Z" fill="black"/>
<path d="M40.6321 22.5306V2.44894C40.6321 1.102 41.3664 0.36731 42.835 0.36731H46.1394C47.6081 0.36731 48.3424 1.102 48.3424 2.44894V18.3673H57.5213C58.9899 18.3673 59.7243 19.102 59.7243 20.4489V22.5306C59.7243 23.8775 58.9899 24.6122 57.5213 24.6122H42.835C41.3664 24.6122 40.6321 23.8775 40.6321 22.5306Z" fill="black"/>
<path d="M59.3571 12.4898C59.3571 5.7551 64.4973 0 73.0643 0C81.6313 0 86.7715 5.7551 86.7715 12.4898C86.7715 19.2245 81.6313 24.9796 73.0643 24.9796C64.4973 24.9796 59.3571 19.2245 59.3571 12.4898ZM79.1835 12.4898C79.1835 9.06122 76.9806 6.2449 73.0643 6.2449C69.1479 6.2449 66.945 9.06122 66.945 12.4898C66.945 15.9184 69.1479 18.7347 73.0643 18.7347C76.9806 18.7347 79.1835 15.9184 79.1835 12.4898Z" fill="black"/>
<path d="M88.2401 12.4898C88.2401 5.7551 93.7475 0 102.314 0C105.619 0 108.189 0.979592 110.392 2.57143C111.493 3.42857 111.616 4.53061 110.637 5.5102L109.168 7.10204C108.311 8.08163 107.332 8.08163 106.108 7.22449C104.885 6.4898 103.416 6.2449 102.314 6.2449C98.3981 6.2449 95.828 9.06122 95.828 12.4898C95.828 16.0408 98.3981 18.7347 102.314 18.7347C103.538 18.7347 104.885 18.4898 106.108 17.7551C107.332 17.0204 108.189 16.898 109.168 17.8776L110.637 19.4694C111.616 20.449 111.616 21.551 110.514 22.2857C108.189 23.8776 105.741 24.9796 102.314 24.9796C93.7475 24.9796 88.2401 19.2245 88.2401 12.4898Z" fill="black"/>
<path d="M112.717 22.2857L120.917 2.08158C121.407 0.979542 122.141 0.489746 123.365 0.489746H126.425C127.648 0.489746 128.505 0.979542 128.872 2.08158L137.194 22.2857C137.806 23.7551 137.072 24.7346 135.481 24.7346H131.932C130.708 24.7346 129.851 24.2448 129.484 23.1428L128.505 20.6938H121.04L120.183 23.1428C119.693 24.2448 118.959 24.8571 117.735 24.8571H114.431C112.84 24.6122 112.105 23.6326 112.717 22.2857ZM127.281 14.9387L124.834 8.08158L122.141 14.9387H127.281Z" fill="black"/>
<path d="M139.03 22.5306V2.44894C139.03 1.102 139.765 0.36731 141.233 0.36731H144.538C146.006 0.36731 146.741 1.102 146.741 2.44894V18.3673H155.92C157.388 18.3673 158.122 19.102 158.122 20.4489V22.5306C158.122 23.8775 157.388 24.6122 155.92 24.6122H141.356C139.887 24.6122 139.03 23.8775 139.03 22.5306Z" fill="black"/>
<path d="M40.6321 51.551V31.4694C40.6321 30.1225 41.3664 29.3878 42.835 29.3878H46.1394C47.6081 29.3878 48.3424 30.1225 48.3424 31.4694V39.0612H55.8079V31.4694C55.8079 30.1225 56.5422 29.3878 58.0109 29.3878H61.3153C62.7839 29.3878 63.5182 30.1225 63.5182 31.4694V51.551C63.5182 52.898 62.7839 53.6327 61.3153 53.6327H58.0109C56.5422 53.6327 55.8079 52.898 55.8079 51.551V44.9388H48.3424V51.551C48.3424 52.898 47.6081 53.6327 46.1394 53.6327H42.835C41.3664 53.6327 40.6321 52.898 40.6321 51.551Z" fill="black"/>
<path d="M74.1658 35.6327V38.8163H81.0194C82.488 38.8163 83.2223 39.551 83.2223 40.898V42.2449C83.2223 43.5918 82.488 44.3265 81.0194 44.3265H74.1658V47.3878H82.488C83.9567 47.3878 84.691 48.1225 84.691 49.4694V51.551C84.691 52.898 83.9567 53.6327 82.488 53.6327H68.7808C67.3122 53.6327 66.5779 52.898 66.5779 51.551V31.4694C66.5779 30.1225 67.3122 29.3878 68.7808 29.3878H82.488C83.9567 29.3878 84.691 30.1225 84.691 31.4694V33.551C84.691 34.898 83.9567 35.6327 82.488 35.6327H74.1658Z" fill="black"/>
<path d="M110.392 41.5102C110.392 34.7755 115.532 29.0204 124.099 29.0204C132.666 29.0204 137.806 34.7755 137.806 41.5102C137.806 48.2449 132.666 54 124.099 54C115.532 54 110.392 48.2449 110.392 41.5102ZM130.218 41.5102C130.218 38.0817 128.016 35.2653 124.099 35.2653C120.183 35.2653 117.98 38.0817 117.98 41.5102C117.98 44.9388 120.183 47.7551 124.099 47.7551C128.016 47.7551 130.218 44.9388 130.218 41.5102Z" fill="black"/>
<path d="M108.923 37.8367C108.923 33.1837 105.741 29.3878 99.8668 29.3878H89.7088C88.2402 29.3878 87.5059 30.1225 87.5059 31.4694V51.551C87.5059 52.898 88.2402 53.6327 89.7088 53.6327H93.0132C94.4818 53.6327 95.2162 52.898 95.2162 51.551V45.4286H96.44L101.091 51.9184C101.825 52.898 102.315 53.5102 103.416 53.5102H107.21C109.046 53.5102 108.923 51.3061 108.434 50.8163L103.661 44.8163C106.965 43.9592 108.923 41.3878 108.923 37.8367ZM95.0938 35.6327H99.0101C100.356 35.6327 101.213 36.8571 101.213 38.0816C101.213 39.3061 100.234 40.4082 99.0101 40.4082H95.0938V35.6327Z" fill="black"/>
</g>
<defs>
<clipPath id="clip0">
<rect width="158" height="54" fill="white"/>
</clipPath>
</defs>
</svg>
