<svg xmlns="http://www.w3.org/2000/svg" xmlns:xlink="http://www.w3.org/1999/xlink" width="69" height="71" viewBox="0 0 69 71">
    <defs>
        <path id="a" d="M4.126 18.543C-7.983 40.743 7.99 67.727 33.43 68.34c5.874.141 11.754.12 17.634.1 2.502-.009 5.004-.016 7.507-.013 3.625.006 7.25-.015 11.06-.025l-.05-27.5c-4.821.042-9.365.079-13.989.117-.01 4.618-.021 8.934-.032 13.38-.403.125-.606.244-.81.244-6.996.02-14 .266-20.984-.018-10.235-.414-18.357-7.76-19.69-17.345-1.385-9.964 4.495-19.311 14.14-22.478 9.402-3.09 20.04.77 24.6 9.39 1.41 2.662 2.928 3.355 5.682 3.15 2.338-.171 4.69-.153 7.153-.136 1.084.008 2.19.016 3.326.007-.562-1.843-.902-3.385-1.494-4.828C62.152 9.405 52.422 1.629 38.367.385a44.956 44.956 0 0 0-3.962-.178c-13.23 0-23.664 6.202-30.28 18.336"/>
        <path id="c" d="M4.558 14.305s-1.504-1.365-.61-3.698c.892-2.332-1.41-4.137-1.41-4.137C3.195 10.827 0 9.55 0 16.593 0 23.636 6.297 25 6.297 25h6.061c8.317-1.98 7.696-10.662 4.238-14.359-1.891-2.021-1.09-5.887-1.09-5.887-4.766 4.167-1.785 10.783-1.785 10.783-2.901-2.527-1.224-5.37-1.504-7.747C11.512 1.628 7.237 0 7.237 0c.751.88 1.033 4.666-1.128 7.878-2.162 3.214-1.551 6.427-1.551 6.427z"/>
    </defs>
    <g fill="none" fill-rule="evenodd">
        <g transform="rotate(89 34.09 34.317)">
            <mask id="b" fill="#fff">
                <use xlink:href="#a"/>
            </mask>
            <path fill="#3E415A" d="M33.431 68.341c5.874.141 11.754.12 17.634.1 2.502-.009 5.004-.016 7.507-.013 3.625.006 7.25-.015 11.06-.025l-.05-27.5c-4.821.042-9.365.079-13.989.117-.01 4.618-.021 8.934-.032 13.38-.403.125-.606.244-.81.244-6.996.02-14 .266-20.984-.018-10.235-.414-18.357-7.76-19.69-17.345-1.385-9.964 4.495-19.311 14.14-22.478 9.402-3.09 20.04.77 24.6 9.39 1.41 2.662 2.928 3.355 5.682 3.15 2.338-.171 4.69-.153 7.153-.136 1.084.008 2.19.016 3.326.007-.562-1.843-.902-3.385-1.494-4.828C62.152 9.405 52.422 1.629 38.367.385a44.956 44.956 0 0 0-3.962-.178c-13.23 0-23.664 6.202-30.28 18.336-12.108 22.2 3.866 49.184 29.306 49.798z" mask="url(#b)"/>
        </g>
        <g transform="translate(24 22)">
            <mask id="d" fill="#fff">
                <use xlink:href="#c"/>
            </mask>
            <path fill="#3E415A" d="M4.558 14.305s-1.504-1.365-.61-3.698c.892-2.332-1.41-4.137-1.41-4.137C3.195 10.827 0 9.55 0 16.593 0 23.636 6.297 25 6.297 25h6.061c8.317-1.98 7.696-10.662 4.238-14.359-1.891-2.021-1.09-5.887-1.09-5.887-4.766 4.167-1.785 10.783-1.785 10.783-2.901-2.527-1.224-5.37-1.504-7.747C11.512 1.628 7.237 0 7.237 0c.751.88 1.033 4.666-1.128 7.878-2.162 3.214-1.551 6.427-1.551 6.427z" mask="url(#d)"/>
        </g>
    </g>
</svg>
