<svg width="129" height="77" viewBox="0 0 129 77" fill="none" xmlns="http://www.w3.org/2000/svg">
<rect width="129" height="77" fill="#C4C4C4"/>
<path d="M31 25.3V28.82H35.32C35.6667 28.82 35.9533 28.9333 36.18 29.16C36.42 29.3733 36.54 29.6533 36.54 30C36.54 30.2933 36.42 30.5533 36.18 30.78C35.9533 31.0067 35.6667 31.12 35.32 31.12H31V35.78C31 36.1267 30.8733 36.42 30.62 36.66C30.38 36.8867 30.0933 37 29.76 37C29.3867 37 29.08 36.8867 28.84 36.66C28.6133 36.4333 28.5 36.14 28.5 35.78V24.22C28.5 23.8733 28.6133 23.5867 28.84 23.36C29.08 23.12 29.3733 23 29.72 23H36.22C36.5667 23 36.8533 23.1133 37.08 23.34C37.32 23.5533 37.44 23.8333 37.44 24.18C37.44 24.4733 37.32 24.7333 37.08 24.96C36.8533 25.1867 36.5667 25.3 36.22 25.3H31ZM47.1775 26.3C47.5242 26.3 47.8108 26.42 48.0375 26.66C48.2642 26.8867 48.3775 27.1733 48.3775 27.52V32.6C48.3775 34.04 47.9775 35.1667 47.1775 35.98C46.3908 36.7933 45.2642 37.2 43.7975 37.2C42.3308 37.2 41.2042 36.7933 40.4175 35.98C39.6308 35.1667 39.2375 34.04 39.2375 32.6V27.52C39.2375 27.1733 39.3508 26.8867 39.5775 26.66C39.8042 26.42 40.0908 26.3 40.4375 26.3C40.7842 26.3 41.0708 26.42 41.2975 26.66C41.5242 26.8867 41.6375 27.1733 41.6375 27.52V32.6C41.6375 33.4133 41.8175 34.02 42.1775 34.42C42.5375 34.8067 43.0775 35 43.7975 35C44.5308 35 45.0775 34.8067 45.4375 34.42C45.7975 34.02 45.9775 33.4133 45.9775 32.6V27.52C45.9775 27.1733 46.0908 26.8867 46.3175 26.66C46.5442 26.42 46.8308 26.3 47.1775 26.3ZM56.5358 26.1C56.9358 26.1 57.2691 26.2133 57.5358 26.44C57.8158 26.6667 57.9558 26.9333 57.9558 27.24C57.9558 27.6533 57.8491 27.9667 57.6358 28.18C57.4224 28.38 57.1691 28.48 56.8758 28.48C56.6758 28.48 56.4491 28.4333 56.1958 28.34C56.1558 28.3267 56.0624 28.3 55.9158 28.26C55.7824 28.22 55.6358 28.2 55.4758 28.2C55.1291 28.2 54.7958 28.3067 54.4758 28.52C54.1558 28.7333 53.8891 29.06 53.6758 29.5C53.4758 29.9267 53.3758 30.44 53.3758 31.04V35.78C53.3758 36.1267 53.2624 36.42 53.0358 36.66C52.8091 36.8867 52.5224 37 52.1758 37C51.8291 37 51.5424 36.8867 51.3158 36.66C51.0891 36.42 50.9758 36.1267 50.9758 35.78V27.52C50.9758 27.1733 51.0891 26.8867 51.3158 26.66C51.5424 26.42 51.8291 26.3 52.1758 26.3C52.5224 26.3 52.8091 26.42 53.0358 26.66C53.2624 26.8867 53.3758 27.1733 53.3758 27.52V27.78C53.6824 27.2333 54.1224 26.82 54.6958 26.54C55.2691 26.2467 55.8824 26.1 56.5358 26.1ZM64.8077 34.74C64.9943 34.74 65.161 34.8333 65.3077 35.02C65.4677 35.1933 65.5477 35.4267 65.5477 35.72C65.5477 36.08 65.3477 36.3867 64.9477 36.64C64.561 36.88 64.121 37 63.6277 37C62.801 37 62.101 36.8267 61.5277 36.48C60.9677 36.12 60.6877 35.3667 60.6877 34.22V28.7H59.7677C59.4477 28.7 59.181 28.5933 58.9677 28.38C58.7543 28.1667 58.6477 27.9 58.6477 27.58C58.6477 27.2733 58.7543 27.02 58.9677 26.82C59.181 26.6067 59.4477 26.5 59.7677 26.5H60.6877V25.22C60.6877 24.8733 60.801 24.5867 61.0277 24.36C61.2677 24.12 61.561 24 61.9077 24C62.241 24 62.521 24.12 62.7477 24.36C62.9743 24.5867 63.0877 24.8733 63.0877 25.22V26.5H64.5077C64.8277 26.5 65.0943 26.6067 65.3077 26.82C65.521 27.0333 65.6277 27.3 65.6277 27.62C65.6277 27.9267 65.521 28.1867 65.3077 28.4C65.0943 28.6 64.8277 28.7 64.5077 28.7H63.0877V34.12C63.0877 34.4 63.161 34.6067 63.3077 34.74C63.4543 34.86 63.6543 34.92 63.9077 34.92C64.0143 34.92 64.161 34.8933 64.3477 34.84C64.5077 34.7733 64.661 34.74 64.8077 34.74ZM73.4513 26.1C74.7713 26.1 75.6846 26.5067 76.1913 27.32C76.6979 28.12 76.9513 29.2333 76.9513 30.66V35.78C76.9513 36.1267 76.8379 36.42 76.6113 36.66C76.3846 36.8867 76.0979 37 75.7513 37C75.4046 37 75.1179 36.8867 74.8913 36.66C74.6646 36.42 74.5513 36.1267 74.5513 35.78V30.66C74.5513 29.9267 74.4046 29.3533 74.1113 28.94C73.8313 28.5133 73.3313 28.3 72.6113 28.3C71.8646 28.3 71.2779 28.5267 70.8513 28.98C70.4379 29.42 70.2313 29.98 70.2313 30.66V35.78C70.2313 36.1267 70.1179 36.42 69.8913 36.66C69.6646 36.8867 69.3779 37 69.0312 37C68.6846 37 68.3979 36.8867 68.1713 36.66C67.9446 36.42 67.8313 36.1267 67.8313 35.78V23.42C67.8313 23.0733 67.9446 22.7867 68.1713 22.56C68.3979 22.32 68.6846 22.2 69.0312 22.2C69.3779 22.2 69.6646 22.32 69.8913 22.56C70.1179 22.7867 70.2313 23.0733 70.2313 23.42V27.84C70.5913 27.36 71.0446 26.9533 71.5913 26.62C72.1513 26.2733 72.7713 26.1 73.4513 26.1ZM89.15 31.4C89.1367 31.72 89.01 31.98 88.77 32.18C88.53 32.38 88.25 32.48 87.93 32.48H81.33C81.49 33.2667 81.8567 33.8867 82.43 34.34C83.0033 34.78 83.65 35 84.37 35C84.9167 35 85.3433 34.9533 85.65 34.86C85.9567 34.7533 86.1967 34.6467 86.37 34.54C86.5567 34.42 86.6833 34.34 86.75 34.3C86.99 34.18 87.2167 34.12 87.43 34.12C87.71 34.12 87.95 34.22 88.15 34.42C88.35 34.62 88.45 34.8533 88.45 35.12C88.45 35.48 88.2633 35.8067 87.89 36.1C87.5167 36.4067 87.0167 36.6667 86.39 36.88C85.7633 37.0933 85.13 37.2 84.49 37.2C83.37 37.2 82.39 36.9667 81.55 36.5C80.7233 36.0333 80.0833 35.3933 79.63 34.58C79.1767 33.7533 78.95 32.8267 78.95 31.8C78.95 30.6533 79.19 29.6467 79.67 28.78C80.15 27.9133 80.7833 27.2533 81.57 26.8C82.3567 26.3333 83.1967 26.1 84.09 26.1C84.97 26.1 85.7967 26.34 86.57 26.82C87.3567 27.3 87.9833 27.9467 88.45 28.76C88.9167 29.5733 89.15 30.4533 89.15 31.4ZM84.09 28.3C82.5433 28.3 81.63 29.0267 81.35 30.48H86.59V30.34C86.5367 29.78 86.2633 29.3 85.77 28.9C85.2767 28.5 84.7167 28.3 84.09 28.3ZM96.7116 26.1C97.1116 26.1 97.4449 26.2133 97.7116 26.44C97.9916 26.6667 98.1316 26.9333 98.1316 27.24C98.1316 27.6533 98.0249 27.9667 97.8116 28.18C97.5982 28.38 97.3449 28.48 97.0516 28.48C96.8516 28.48 96.6249 28.4333 96.3716 28.34C96.3316 28.3267 96.2382 28.3 96.0916 28.26C95.9582 28.22 95.8116 28.2 95.6516 28.2C95.3049 28.2 94.9716 28.3067 94.6516 28.52C94.3316 28.7333 94.0649 29.06 93.8516 29.5C93.6516 29.9267 93.5516 30.44 93.5516 31.04V35.78C93.5516 36.1267 93.4382 36.42 93.2116 36.66C92.9849 36.8867 92.6982 37 92.3516 37C92.0049 37 91.7182 36.8867 91.4916 36.66C91.2649 36.42 91.1516 36.1267 91.1516 35.78V27.52C91.1516 27.1733 91.2649 26.8867 91.4916 26.66C91.7182 26.42 92.0049 26.3 92.3516 26.3C92.6982 26.3 92.9849 26.42 93.2116 26.66C93.4382 26.8867 93.5516 27.1733 93.5516 27.52V27.78C93.8582 27.2333 94.2982 26.82 94.8716 26.54C95.4449 26.2467 96.0582 26.1 96.7116 26.1ZM30.9 60.78C30.9 61.1267 30.78 61.42 30.54 61.66C30.3133 61.8867 30.0267 62 29.68 62C29.3467 62 29.0667 61.8867 28.84 61.66C28.6133 61.42 28.5 61.1267 28.5 60.78V48.42C28.5 48.0733 28.6133 47.7867 28.84 47.56C29.08 47.32 29.3733 47.2 29.72 47.2C30.0533 47.2 30.3333 47.32 30.56 47.56C30.7867 47.7867 30.9 48.0733 30.9 48.42V60.78ZM43.7753 56.66C43.7753 57.7267 43.5353 58.6867 43.0553 59.54C42.5753 60.38 41.9153 61.0333 41.0753 61.5C40.2486 61.9667 39.3353 62.2 38.3353 62.2C37.322 62.2 36.402 61.9667 35.5753 61.5C34.7486 61.0333 34.0953 60.38 33.6153 59.54C33.1353 58.6867 32.8953 57.7267 32.8953 56.66C32.8953 55.5933 33.1353 54.64 33.6153 53.8C34.0953 52.9467 34.7486 52.2867 35.5753 51.82C36.402 51.34 37.322 51.1 38.3353 51.1C39.3353 51.1 40.2486 51.34 41.0753 51.82C41.9153 52.2867 42.5753 52.9467 43.0553 53.8C43.5353 54.64 43.7753 55.5933 43.7753 56.66ZM41.3753 56.66C41.3753 56.0067 41.2353 55.4267 40.9553 54.92C40.6886 54.4 40.322 54 39.8553 53.72C39.402 53.44 38.8953 53.3 38.3353 53.3C37.7753 53.3 37.262 53.44 36.7953 53.72C36.342 54 35.9753 54.4 35.6953 54.92C35.4286 55.4267 35.2953 56.0067 35.2953 56.66C35.2953 57.3133 35.4286 57.8933 35.6953 58.4C35.9753 58.9067 36.342 59.3 36.7953 59.58C37.262 59.86 37.7753 60 38.3353 60C38.8953 60 39.402 59.86 39.8553 59.58C40.322 59.3 40.6886 58.9067 40.9553 58.4C41.2353 57.8933 41.3753 57.3133 41.3753 56.66ZM54.6405 51.1C54.9871 51.1 55.2738 51.2133 55.5005 51.44C55.7271 51.6667 55.8405 51.96 55.8405 52.32V61.22C55.8405 62.8467 55.3338 64.0467 54.3205 64.82C53.3205 65.6067 52.0471 66 50.5005 66C50.1005 66 49.5471 65.9333 48.8405 65.8C48.1471 65.6667 47.6538 65.5333 47.3605 65.4C46.7071 65.12 46.3805 64.7333 46.3805 64.24C46.3805 64.1467 46.4005 64.04 46.4405 63.92C46.5205 63.6267 46.6538 63.4 46.8405 63.24C47.0405 63.0933 47.2538 63.02 47.4805 63.02C47.6138 63.02 47.7405 63.04 47.8605 63.08C47.9138 63.0933 48.2405 63.2133 48.8405 63.44C49.4538 63.68 50.0071 63.8 50.5005 63.8C51.4871 63.8 52.2205 63.6 52.7005 63.2C53.1938 62.8133 53.4405 62.26 53.4405 61.54V60.58C53.1471 60.9933 52.7005 61.3667 52.1005 61.7C51.5138 62.0333 50.8805 62.2 50.2005 62.2C49.2671 62.2 48.4138 61.9667 47.6405 61.5C46.8805 61.02 46.2805 60.36 45.8405 59.52C45.4005 58.68 45.1805 57.7267 45.1805 56.66C45.1805 55.5933 45.3938 54.64 45.8205 53.8C46.2605 52.9467 46.8538 52.2867 47.6005 51.82C48.3605 51.34 49.2005 51.1 50.1205 51.1C50.8005 51.1 51.4338 51.24 52.0205 51.52C52.6071 51.8 53.0805 52.14 53.4405 52.54V52.32C53.4405 51.9733 53.5538 51.6867 53.7805 51.46C54.0071 51.22 54.2938 51.1 54.6405 51.1ZM50.5005 60C51.3938 60 52.1205 59.6867 52.6805 59.06C53.2538 58.42 53.5405 57.62 53.5405 56.66C53.5405 55.7 53.2538 54.9 52.6805 54.26C52.1205 53.62 51.3938 53.3 50.5005 53.3C49.6071 53.3 48.8805 53.62 48.3205 54.26C47.7605 54.9 47.4805 55.7 47.4805 56.66C47.4805 57.62 47.7605 58.42 48.3205 59.06C48.8805 59.6867 49.6071 60 50.5005 60ZM68.3261 56.66C68.3261 57.7267 68.0861 58.6867 67.6061 59.54C67.1261 60.38 66.4661 61.0333 65.6261 61.5C64.7994 61.9667 63.8861 62.2 62.8861 62.2C61.8728 62.2 60.9528 61.9667 60.1261 61.5C59.2994 61.0333 58.6461 60.38 58.1661 59.54C57.6861 58.6867 57.4461 57.7267 57.4461 56.66C57.4461 55.5933 57.6861 54.64 58.1661 53.8C58.6461 52.9467 59.2994 52.2867 60.1261 51.82C60.9528 51.34 61.8728 51.1 62.8861 51.1C63.8861 51.1 64.7994 51.34 65.6261 51.82C66.4661 52.2867 67.1261 52.9467 67.6061 53.8C68.0861 54.64 68.3261 55.5933 68.3261 56.66ZM65.9261 56.66C65.9261 56.0067 65.7861 55.4267 65.5061 54.92C65.2394 54.4 64.8728 54 64.4061 53.72C63.9528 53.44 63.4461 53.3 62.8861 53.3C62.3261 53.3 61.8128 53.44 61.3461 53.72C60.8928 54 60.5261 54.4 60.2461 54.92C59.9794 55.4267 59.8461 56.0067 59.8461 56.66C59.8461 57.3133 59.9794 57.8933 60.2461 58.4C60.5261 58.9067 60.8928 59.3 61.3461 59.58C61.8128 59.86 62.3261 60 62.8861 60C63.4461 60 63.9528 59.86 64.4061 59.58C64.8728 59.3 65.2394 58.9067 65.5061 58.4C65.7861 57.8933 65.9261 57.3133 65.9261 56.66Z" fill="black"/>
</svg>
