<svg xmlns="http://www.w3.org/2000/svg" width="35" height="37" viewBox="0 0 35 37">
    <g fill="none" fill-rule="evenodd" stroke="#5F5D70" stroke-linecap="round" stroke-linejoin="round" stroke-width="3">
        <path d="M13.738 10.758c1.492-.472 2.342-2.141 1.898-3.728l-.803-2.874c-.444-1.587-2.013-2.491-3.505-2.02-1.491.473-2.341 2.142-1.898 3.729l.803 2.874c.444 1.587 2.013 2.49 3.505 2.019zM21.262 10.758c-1.492-.472-2.342-2.141-1.898-3.728l.803-2.874c.444-1.587 2.013-2.491 3.505-2.02 1.491.473 2.341 2.142 1.898 3.729l-.803 2.874c-.444 1.587-2.013 2.49-3.505 2.019zM7.242 15.85c1.184-1.076 1.323-2.969.312-4.227l-.593-.74c-1.011-1.258-2.79-1.407-3.973-.331-1.184 1.076-1.323 2.968-.312 4.227l.593.739c1.011 1.258 2.79 1.407 3.973.331zM27.758 15.85c-1.184-1.076-1.323-2.969-.312-4.227l.593-.74c1.011-1.258 2.79-1.407 3.973-.331 1.184 1.076 1.323 2.968.312 4.227l-.593.739c-1.011 1.258-2.79 1.407-3.973.331zM10.593 20.731l-3.194 5.607c-2.663 4.676 1.896 10.184 6.82 8.24l.277-.11a8.166 8.166 0 0 1 6.008 0l.277.11c4.924 1.944 9.483-3.564 6.82-8.24l-3.194-5.607a8.248 8.248 0 0 0-13.814 0z"/>
    </g>
</svg>
