<svg xmlns="http://www.w3.org/2000/svg" width="36" height="31" viewBox="0 0 36 31">
    <g fill="none" fill-rule="evenodd" transform="translate(-13 -18)">
        <path fill="#FFF" fill-rule="nonzero" d="M17 44h7v4h-7zM29 44h7v4h-7z"/>
        <path fill="#FFF" fill-rule="nonzero" stroke="#FFF" stroke-linecap="round" stroke-linejoin="round" d="M15 19h23v4H15z"/>
        <path stroke="#FFF" stroke-linecap="round" stroke-linejoin="round" d="M14 48.5h34"/>
        <path fill="#FFF" fill-rule="nonzero" d="M23 43h7v5h-7z"/>
        <path stroke="#FFF" stroke-linecap="round" stroke-linejoin="round" d="M21 28.5h3M29 28.5h3M21 34.5h3M29 34.5h3"/>
        <circle cx="44" cy="36" r="4" fill="#FFF" fill-rule="nonzero" stroke="#FFF" stroke-linecap="round" stroke-linejoin="round"/>
        <path stroke="#FFF" stroke-linecap="round" stroke-linejoin="round" d="M44.5 41v7M17 25.083V23h19v25H17V30.292"/>
        <path stroke="#FFF" stroke-linecap="round" stroke-linejoin="round" d="M23 41h7v7h-7z"/>
        <path d="M0 0h63v63H0z"/>
    </g>
</svg>
