<svg xmlns="http://www.w3.org/2000/svg" xmlns:xlink="http://www.w3.org/1999/xlink" width="59" height="59" viewBox="0 0 59 59">
    <defs>
        <rect id="b" width="47" height="47" rx="2"/>
        <filter id="a" width="142.6%" height="142.6%" x="-21.3%" y="-17%" filterUnits="objectBoundingBox">
            <feOffset dy="2" in="SourceAlpha" result="shadowOffsetOuter1"/>
            <feGaussianBlur in="shadowOffsetOuter1" result="shadowBlurOuter1" stdDeviation="3"/>
            <feColorMatrix in="shadowBlurOuter1" values="0 0 0 0 0.854257641 0 0 0 0 0.850166786 0 0 0 0 0.886984481 0 0 0 1 0"/>
        </filter>
    </defs>
    <g fill="none" fill-rule="evenodd">
        <g transform="translate(6 4)">
            <use fill="#000" filter="url(#a)" xlink:href="#b"/>
            <use fill="#E59069" xlink:href="#b"/>
        </g>
        <path fill="#FFF" fill-rule="nonzero" d="M33.865 30.883c.853 0 1.706-.32 2.326-.802v6.41c0 .48-.31.8-.775.8H24.563c-.465 0-.775-.32-.775-.8v-6.41c.62.481 1.473.802 2.326.802h2.325v.8c0 .481.31.802.775.802h1.55c.466 0 .776-.32.776-.801v-.801h2.325zm-7.751-1.603c-1.318 0-2.326-1.041-2.326-2.403v-3.205c0-2.243 1.706-4.005 3.876-4.005h4.651c2.17 0 3.876 1.762 3.876 4.005v3.205c0 1.362-1.008 2.403-2.326 2.403H31.54v-.8c0-.482-.31-.802-.775-.802h-1.55c-.466 0-.776.32-.776.801v.801h-2.325zm11.627 8.012V26.236c.93.32 1.55 1.202 1.55 2.243v8.012c0 .48-.31.8-.775.8h-.775zM22.238 26.236v11.056h-.775c-.465 0-.776-.32-.776-.801v-8.012c0-1.041.62-1.923 1.55-2.243z"/>
    </g>
</svg>
