<svg xmlns="http://www.w3.org/2000/svg" width="47" height="47" viewBox="0 0 47 47">
    <g fill="none" fill-rule="evenodd">
        <rect width="47" height="47" fill="#F6F6F9" rx="2"/>
        <g stroke="#5F5D70" stroke-linecap="round" stroke-linejoin="round" stroke-width="1.75">
            <path d="M21.732 18.649a1.691 1.691 0 0 0 1.139-2.103l-.482-1.621a1.691 1.691 0 1 0-3.242.964l.482 1.62a1.691 1.691 0 0 0 2.103 1.14zM26.247 18.649a1.691 1.691 0 0 1-1.139-2.103l.482-1.621a1.691 1.691 0 1 1 3.242.964l-.481 1.62a1.691 1.691 0 0 1-2.104 1.14zM17.834 21.521c.71-.607.794-1.674.187-2.384l-.356-.417a1.691 1.691 0 0 0-2.572 2.197l.356.417c.607.71 1.674.794 2.385.187zM30.146 21.521a1.691 1.691 0 0 1-.188-2.384l.356-.417a1.691 1.691 0 0 1 2.572 2.197l-.356.417a1.691 1.691 0 0 1-2.384.187zM19.844 24.275l-1.916 3.163c-1.598 2.638 1.138 5.745 4.092 4.648l.166-.062a5.192 5.192 0 0 1 3.607 0l.166.062c2.955 1.097 5.69-2.01 4.092-4.648l-1.916-3.163c-1.995-2.814-6.296-2.814-8.29 0z"/>
        </g>
    </g>
</svg>
